<svg xmlns="http://www.w3.org/2000/svg" viewBox="0 0 224.598 29.539">
    <defs>
        <style>
            .cls-1{fill:#c0241f}
        </style>
    </defs>
    <g id="Group_1134" data-name="Group 1134" transform="translate(-136 -18.642)">
        <g id="Asset_1" data-name="Asset 1" transform="translate(136 18.642)">
            <g id="Layer_1" data-name="Layer 1" transform="translate(0 10.523)">
                <path id="Path_1536" d="M34.566 210.981a10.885 10.885 0 1 1-19.128 0A97.814 97.814 0 0 0 0 213.308c4.234-2.4 10.342-4.166 17.4-4.914 1.576-.168 3.2-.284 4.859-.344a8.58 8.58 0 1 0 5.484 0c1.66.06 3.283.176 4.859.344 7.059.748 13.166 2.516 17.4 4.914a97.687 97.687 0 0 0-15.436-2.327z" class="cls-1" data-name="Path 1536" transform="translate(0 -208.05)"/>
            </g>
            <g id="Layer_2" data-name="Layer 2" transform="translate(31.688 2.135)">
                <circle id="Ellipse_420" cx="3.091" cy="3.091" r="3.091" class="cls-1" data-name="Ellipse 420"/>
            </g>
            <g id="Layer_3" data-name="Layer 3" transform="translate(21.912)">
                <circle id="Ellipse_421" cx="3.091" cy="3.091" r="3.091" class="cls-1" data-name="Ellipse 421"/>
            </g>
            <g id="Layer_4" data-name="Layer 4" transform="translate(12.136 2.135)">
                <circle id="Ellipse_422" cx="3.091" cy="3.091" r="3.091" class="cls-1" data-name="Ellipse 422"/>
            </g>
            <g id="Layer_5" data-name="Layer 5" transform="translate(18.701 12.357)">
                <path id="Path_1537" d="M376.05 244.32a6.3 6.3 0 1 0 6.3 6.3 6.3 6.3 0 0 0-6.3-6.3zm0 8.345a2.042 2.042 0 1 1 2.043-2.043 2.042 2.042 0 0 1-2.043 2.043zm2.743 2.218a1.138 1.138 0 1 1 .8-.335 1.136 1.136 0 0 1-.8.335z" class="cls-1" data-name="Path 1537" transform="translate(-369.75 -244.32)"/>
            </g>
        </g>
        <g id="Asset_2" data-name="Asset 2" transform="translate(193 24.92)">
            <g id="Layer_6" data-name="Layer 6">
                <path id="Path_1538" d="M11.4 5.386a5.4 5.4 0 0 1-1.473 3.939 5.243 5.243 0 0 1-3.9 1.52H4.075v5.84H0V0h6.006a5.3 5.3 0 0 1 3.957 1.454A5.375 5.375 0 0 1 11.4 5.386zM5.458 3.5H4.077v3.84h1.335a1.683 1.683 0 0 0 1.347-.535 2.086 2.086 0 0 0 .464-1.419 1.956 1.956 0 0 0-.464-1.369A1.661 1.661 0 0 0 5.458 3.5z" data-name="Path 1538"/>
                <path id="Path_1539" d="M75.5 31.273a3.768 3.768 0 0 1 1.323-3.015 5.269 5.269 0 0 1 3.54-1.133 6.128 6.128 0 0 1 2.407.454v-.454a1.193 1.193 0 0 0-.489-.977 2.27 2.27 0 0 0-1.418-.38 7.171 7.171 0 0 0-3.146.786l-1.478-2.67a9.043 9.043 0 0 1 5.1-1.554q3.025 0 4.218 1.347a5.424 5.424 0 0 1 1.191 3.73v7.751H83.2l-.214-.691a3.835 3.835 0 0 1-2.835 1 4.99 4.99 0 0 1-3.3-1.119 3.79 3.79 0 0 1-1.351-3.075zm4.457-1.109a1.166 1.166 0 0 0-.477.965 1.1 1.1 0 0 0 .477.941 2.316 2.316 0 0 0 2.417.012 1.1 1.1 0 0 0 .464-.953 1.157 1.157 0 0 0-.477-.977 1.972 1.972 0 0 0-1.209-.357 1.9 1.9 0 0 0-1.195.369z" data-name="Path 1539" transform="translate(-62.463 -18.474)"/>
                <path id="Path_1540" d="M164.594 35.177v-7.46a1.8 1.8 0 0 0-.454-1.323 1.587 1.587 0 0 0-1.191-.466 1.615 1.615 0 0 0-1.262.5 1.848 1.848 0 0 0-.454 1.288v7.46h-3.973V22.665h3.885v1.286a3.418 3.418 0 0 1 1.24-1.121 3.773 3.773 0 0 1 1.9-.477 4.586 4.586 0 0 1 1.943.382 3.4 3.4 0 0 1 1.262.938 4.178 4.178 0 0 1 .691 1.406 8.583 8.583 0 0 1 .321 1.554 15.814 15.814 0 0 1 .072 1.608v6.936z" data-name="Path 1540" transform="translate(-130.105 -18.493)"/>
                <path id="Path_1541" d="M239.755 8.83v2.647h2.12v3.217h-2.12v4.6q0 1.357 1.554 1.359a5.317 5.317 0 0 0 .667-.024v3.409a6.186 6.186 0 0 1-1.525.142 4.7 4.7 0 0 1-3.491-1.191 5.39 5.39 0 0 1-1.181-3.885v-4.41h-1.209v-3.217h1.209V8.83z" data-name="Path 1541" transform="translate(-194.066 -7.305)"/>
                <path id="Path_1542" d="M288.47 31.273a3.768 3.768 0 0 1 1.323-3.015 5.269 5.269 0 0 1 3.54-1.133 6.128 6.128 0 0 1 2.407.454v-.454a1.19 1.19 0 0 0-.489-.977 2.269 2.269 0 0 0-1.418-.38 7.178 7.178 0 0 0-3.146.786l-1.478-2.67a9.043 9.043 0 0 1 5.1-1.554q3.029 0 4.219 1.347a5.447 5.447 0 0 1 1.191 3.73v7.751h-3.55l-.216-.691a3.835 3.835 0 0 1-2.835 1 4.99 4.99 0 0 1-3.3-1.119 3.79 3.79 0 0 1-1.348-3.075zm4.457-1.109a1.165 1.165 0 0 0-.477.965 1.1 1.1 0 0 0 .477.941 2.315 2.315 0 0 0 2.417.012 1.1 1.1 0 0 0 .466-.953 1.157 1.157 0 0 0-.477-.977 1.975 1.975 0 0 0-1.209-.357 1.9 1.9 0 0 0-1.197.369z" data-name="Path 1542" transform="translate(-238.658 -18.474)"/>
                <path id="Path_1543" d="M373.642 24.16v7.46a1.8 1.8 0 0 0 .454 1.323 1.587 1.587 0 0 0 1.192.464 1.618 1.618 0 0 0 1.262-.5 1.844 1.844 0 0 0 .45-1.287v-7.46h3.98v12.512h-3.88v-1.286a3.455 3.455 0 0 1-1.24 1.119 3.773 3.773 0 0 1-1.9.477 4.581 4.581 0 0 1-1.943-.38 3.369 3.369 0 0 1-1.264-.943 4.162 4.162 0 0 1-.691-1.406 8.452 8.452 0 0 1-.321-1.554 15.813 15.813 0 0 1-.073-1.609v-6.93z" data-name="Path 1543" transform="translate(-305.836 -19.988)"/>
                <path id="Path_1544" d="M457.14 16.684V0h4.36a4.687 4.687 0 0 1 3.314 1.191 3.971 3.971 0 0 1 1.28 3.075 3.987 3.987 0 0 1-.632 2.215 3.971 3.971 0 0 1-1.6 1.461 4.123 4.123 0 0 1 2.025 1.514 4.253 4.253 0 0 1 .786 2.563 4.49 4.49 0 0 1-1.369 3.312 4.663 4.663 0 0 1-3.421 1.359zm1.209-9.249h3.289a3.1 3.1 0 0 0 3.194-3.169 3.057 3.057 0 0 0-.894-2.245 3.109 3.109 0 0 0-2.3-.893h-3.282zm0 8.152h3.151a4.122 4.122 0 0 0 2.825-.953 3.289 3.289 0 0 0 1.078-2.621 3.137 3.137 0 0 0-1.103-2.575 4.354 4.354 0 0 0-2.849-.907h-3.091z" data-name="Path 1544" transform="translate(-378.203)"/>
                <path id="Path_1545" d="M528 29.709a6.488 6.488 0 0 1 1.751-4.731 5.664 5.664 0 0 1 4.208-1.8 5.455 5.455 0 0 1 4.218 1.739 6.333 6.333 0 0 1 1.6 4.459v.506h-10.536a5.129 5.129 0 0 0 1.393 3.814 5.432 5.432 0 0 0 7.926-.739l.775.551a5.522 5.522 0 0 1-5.053 2.668 6.094 6.094 0 0 1-4.529-1.787 6.328 6.328 0 0 1-1.753-4.68zm1.31-.882h9.223a4.579 4.579 0 0 0-1.407-3.384 4.625 4.625 0 0 0-3.193-1.167 4.54 4.54 0 0 0-3.122 1.191 4.778 4.778 0 0 0-1.509 3.362z" data-name="Path 1545" transform="translate(-436.827 -19.175)"/>
                <path id="Path_1546" d="M620.6 23.186v1.176a3.217 3.217 0 0 0-2.92 1.381 6.5 6.5 0 0 0-.893 3.592v6.531H615.6V23.5h1.191v2.214a3.464 3.464 0 0 1 1.357-1.763 4.059 4.059 0 0 1 2.452-.765z" data-name="Path 1546" transform="translate(-509.301 -19.181)"/>
                <path id="Path_1547" d="M657.69 33.386l1.026-.406a3.271 3.271 0 0 0 3.194 2.169 2.881 2.881 0 0 0 1.9-.654 2.167 2.167 0 0 0 .786-1.753 2.016 2.016 0 0 0-.654-1.525 4.945 4.945 0 0 0-1.6-.989q-.943-.37-1.884-.763a4.231 4.231 0 0 1-1.6-1.155 2.779 2.779 0 0 1-.656-1.884 2.863 2.863 0 0 1 1.048-2.322 4.03 4.03 0 0 1 2.647-.863 3.671 3.671 0 0 1 2.454.763 3.454 3.454 0 0 1 1.169 1.692l-.977.38a2.776 2.776 0 0 0-2.742-1.787 2.661 2.661 0 0 0-1.739.561 1.845 1.845 0 0 0-.691 1.513 1.9 1.9 0 0 0 .477 1.286 3.053 3.053 0 0 0 1.181.834q.7.287 1.537.656t1.537.739a3.175 3.175 0 0 1 1.186 1.091 3.1 3.1 0 0 1 .477 1.727 3.248 3.248 0 0 1-1.109 2.538 4.043 4.043 0 0 1-2.8.988 4.167 4.167 0 0 1-4.167-2.836z" data-name="Path 1547" transform="translate(-544.123 -19.227)"/>
                <path id="Path_1548" d="M719 32.055a3.649 3.649 0 0 1 1.347-2.908A5.071 5.071 0 0 1 723.738 28a5.386 5.386 0 0 1 2.122.4 4.076 4.076 0 0 1 1.425.931v-1.882a3.03 3.03 0 0 0-.917-2.359 3.517 3.517 0 0 0-2.468-.834 7.28 7.28 0 0 0-3.813 1.143l-.5-.929a8 8 0 0 1 4.386-1.311 4.457 4.457 0 0 1 3.372 1.179 4.424 4.424 0 0 1 1.131 3.182v8.323h-.976l-.214-1.167a4.467 4.467 0 0 1-3.552 1.476 4.955 4.955 0 0 1-3.407-1.179A3.736 3.736 0 0 1 719 32.055zm1.209 0a2.736 2.736 0 0 0 .993 2.129 3.819 3.819 0 0 0 2.609.863 3.756 3.756 0 0 0 2.551-.863 2.717 2.717 0 0 0 1-2.146 2.651 2.651 0 0 0-.978-2.145 3.921 3.921 0 0 0-2.59-.81 3.87 3.87 0 0 0-2.59.834 2.66 2.66 0 0 0-1.004 2.138z" data-name="Path 1548" transform="translate(-594.843 -19.161)"/>
                <path id="Path_1549" d="M814.492 27.9v7.96H813.3V28.4q0-4.124-3.217-4.124a3.305 3.305 0 0 0-2.562 1.084 4.379 4.379 0 0 0-.989 3.062v7.437h-1.192v-7.943a3.832 3.832 0 0 0-.882-2.67 3.059 3.059 0 0 0-2.383-.977A3.227 3.227 0 0 0 799.6 25.4a4.19 4.19 0 0 0-1.024 2.92v7.539h-1.196V23.492h1.191v1.951a3.722 3.722 0 0 1 1.406-1.6 3.961 3.961 0 0 1 2.245-.667 4.391 4.391 0 0 1 2.466.667 3.652 3.652 0 0 1 1.433 1.811 3.826 3.826 0 0 1 1.609-1.846 4.854 4.854 0 0 1 2.49-.632 3.925 3.925 0 0 1 3.136 1.311 5.041 5.041 0 0 1 1.136 3.413z" data-name="Path 1549" transform="translate(-659.692 -19.175)"/>
                <path id="Path_1550" d="M915.666 32.079a3.65 3.65 0 0 1 1.345-2.908 5.078 5.078 0 0 1 3.4-1.143 5.388 5.388 0 0 1 2.122.4 4.076 4.076 0 0 1 1.43.931v-1.885a3.031 3.031 0 0 0-.917-2.359 3.5 3.5 0 0 0-2.468-.829 7.274 7.274 0 0 0-3.813 1.143l-.5-.929a7.991 7.991 0 0 1 4.384-1.311 4.457 4.457 0 0 1 3.372 1.179 4.431 4.431 0 0 1 1.133 3.182v8.32h-.977l-.214-1.167a4.467 4.467 0 0 1-3.552 1.476A4.956 4.956 0 0 1 917 35a3.74 3.74 0 0 1-1.334-2.921zm1.209 0a2.735 2.735 0 0 0 .995 2.129 3.828 3.828 0 0 0 2.611.863 3.755 3.755 0 0 0 2.551-.863 2.712 2.712 0 0 0 1-2.146 2.646 2.646 0 0 0-.977-2.145 3.918 3.918 0 0 0-2.59-.81 3.865 3.865 0 0 0-2.59.834 2.665 2.665 0 0 0-.993 2.138z" data-name="Path 1550" transform="translate(-757.552 -19.186)"/>
            </g>
        </g>
    </g>
</svg>
