<svg xmlns="http://www.w3.org/2000/svg" width="24" height="24" viewBox="0 0 24 24">
    <defs>
        <style>
            .cls-1{fill:none}.cls-2{fill:#fff}
        </style>
    </defs>
    <g id="ic_clap_white" transform="translate(-16 -159)">
        <path id="Rectangle_101" d="M0 0h24v24H0z" class="cls-1" data-name="Rectangle 101" transform="translate(16 159)"/>
        <path id="Path_1518" d="M13.91 5.78a1 1 0 0 0-.18.35l-.53 1.6-2-2a.51.51 0 0 1 0-.74l.6-.61a.5.5 0 0 1 .72 0z" class="cls-2" data-name="Path 1518" transform="translate(16 159)"/>
        <path id="Path_1519" d="M6.75 17.77a3.62 3.62 0 0 0 5.1 0l3.3-3.3a3.64 3.64 0 0 0 1-2.1l.71-5.68a.51.51 0 0 0-.13-.41.5.5 0 0 0-.38-.17h-1.16a.5.5 0 0 0-.48.35l-1.06 3.18-5-5a.51.51 0 0 0-.72 0l-.61.61A.51.51 0 0 0 7.3 6l3.4 3.4-.73.73-5.46-5.51a.52.52 0 0 0-.73 0l-.6.61a.52.52 0 0 0 0 .73l5.45 5.45-.72.73-4.43-4.43a.52.52 0 0 0-.73 0l-.6.61a.52.52 0 0 0 0 .73l4.42 4.42-.72.73-2.37-2.36a.51.51 0 0 0-.36-.15.53.53 0 0 0-.37.15l-.6.6a.52.52 0 0 0 0 .73z" class="cls-2" data-name="Path 1519" transform="translate(16 159)"/>
        <path id="Path_1520" d="M21.88 7.27a.55.55 0 0 0-.39-.18H20.3a.51.51 0 0 0-.49.36l-1 3.17-1.23-1.17-.38 3a4.73 4.73 0 0 1-1.32 2.71l-3.3 3.3a4.15 4.15 0 0 1-.52.42 3.61 3.61 0 0 0 4.9-.17l3.3-3.29a3.6 3.6 0 0 0 1-2.1L22 7.67a.52.52 0 0 0-.12-.4z" class="cls-2" data-name="Path 1520" transform="translate(16 159)"/>
    </g>
</svg>
