<svg xmlns="http://www.w3.org/2000/svg" width="24" height="24" viewBox="0 0 24 24">
    <defs>
        <style>
            .cls-1{fill:none}.cls-2{fill:#111}
        </style>
    </defs>
    <g id="ic_clap_web" transform="translate(0 -1)">
        <g id="Group_980" data-name="Group 980" transform="translate(0 3)">
            <path id="Rectangle_102" d="M0 0h24v24H0z" class="cls-1" data-name="Rectangle 102" transform="translate(0 -2)"/>
            <path id="Path_1521" d="M21.56 7a1.78 1.78 0 0 0-1.34-.61h-1a1.78 1.78 0 0 0-1.66 1.11 1.77 1.77 0 0 0-.43-1.34 1.8 1.8 0 0 0-1.34-.6h-1a1.75 1.75 0 0 0-.24 0l-1.17-1.12a1.76 1.76 0 0 0-1.28-.54 1.75 1.75 0 0 0-1.26.53l-.52.57-.32-.34a1.79 1.79 0 0 0-2.52 0L7 5.19l-.52-.53a1.79 1.79 0 0 0-2.52 0l-.53.53a1.79 1.79 0 0 0-.31 2.1h-.05l-.53.52a1.8 1.8 0 0 0 0 2.53l.53.52-.53.52a1.8 1.8 0 0 0 0 2.53l4 4a4.43 4.43 0 0 0 3.15 1.31 4.63 4.63 0 0 0 1.46-.22 4.5 4.5 0 0 0 2.94 1.12 4.45 4.45 0 0 0 3.15-1.31l2.86-2.85a4.45 4.45 0 0 0 1.27-2.6L22 8.42A1.76 1.76 0 0 0 21.56 7zm-9.45-1.31l1 1v.08l-.23.69-1.3-1.25zm-4.34 11l-4-4 .53-.52 2 2.05L7.62 13l-2-2.05-1.84-1.83.53-.52 3.83 3.83 1.26-1.26-3.83-3.83-.88-.88.52-.53L7 7.71l2.94 2.94 1.26-1.26-2.95-2.94.52-.53 1.55 1.55 2.28 2.28 1 1 1.15-3.44h1l-.62 4.92a2.65 2.65 0 0 1-.76 1.56l-2.86 2.86a2.74 2.74 0 0 1-3.74.03zm11.83-3.57a2.77 2.77 0 0 1-.76 1.56L16 17.53a2.67 2.67 0 0 1-3.19.44l2.85-2.86A4.5 4.5 0 0 0 17 12.48l.21-1.73.89.88 1.09-3.43h1z" class="cls-2" data-name="Path 1521" transform="translate(0 -2)"/>
        </g>
    </g>
</svg>
