<?xml version="1.0" encoding="utf-8"?>
<!-- Generator: Adobe Illustrator 22.0.0, SVG Export Plug-In . SVG Version: 6.00 Build 0)  -->
<svg version="1.1" id="Layer_1" xmlns="http://www.w3.org/2000/svg" xmlns:xlink="http://www.w3.org/1999/xlink" x="0px" y="0px"
	 viewBox="0 0 24 24" style="enable-background:new 0 0 24 24;" xml:space="preserve">
<style type="text/css">
	.st0{fill:#4F4F4F;}
</style>
<path id="Path_32" class="st0" d="M3.5,5.6H1.4v14.8c0,1.2,0.9,2.1,2.1,2.1h14.8v-2.1H3.5V5.6z M20.5,1.4H7.8c-1.2,0-2.1,1-2.1,2.1
	v12.7c0,1.2,1,2.1,2.1,2.1h12.7c1.2,0,2.1-1,2.1-2.1V3.5C22.6,2.4,21.6,1.4,20.5,1.4z M19.4,10.9H8.8V8.8h10.6L19.4,10.9z
	 M15.2,15.2H8.8v-2.1h6.4V15.2z M19.4,6.7H8.8V4.6h10.6L19.4,6.7z"/>
</svg>
