<svg xmlns="http://www.w3.org/2000/svg" viewBox="0 0 16 12.224">
    <defs>
        <style>
            .cls-1{fill:#111}
        </style>
    </defs>
    <g id="open-book" transform="translate(0 -35.048)">
        <g id="Group_796" data-name="Group 796" transform="translate(0 35.048)">
            <g id="Group_795" data-name="Group 795">
                <path id="Path_823" d="M35.4 35.049a.564.564 0 0 0-.4.166.57.57 0 0 0-.169.406v8.585a.574.574 0 0 0 .573.572 7.083 7.083 0 0 1 5.106 1.893v-8.984a.549.549 0 0 0-.079-.29c-1.262-2.036-3.691-2.345-5.031-2.348z" class="cls-1" data-name="Path 823" transform="translate(-32.956 -35.049)"/>
                <path id="Path_824" d="M162.43 44.206v-8.585a.571.571 0 0 0-.57-.573c-1.336 0-3.765.313-5.029 2.348a.549.549 0 0 0-.079.29v8.985a7.083 7.083 0 0 1 5.106-1.893.574.574 0 0 0 .572-.572z" class="cls-1" data-name="Path 824" transform="translate(-148.306 -35.048)"/>
                <path id="Path_825" d="M177.671 71.8h-.415v7.178a1.465 1.465 0 0 1-1.46 1.461 6.35 6.35 0 0 0-4.314 1.473 13.783 13.783 0 0 1 6.061.117.572.572 0 0 0 .7-.558v-9.1a.573.573 0 0 0-.572-.571z" class="cls-1" data-name="Path 825" transform="translate(-162.244 -69.821)"/>
                <path id="Path_826" d="M.988 78.979V71.8H.572a.573.573 0 0 0-.572.573v9.1a.572.572 0 0 0 .7.558 13.782 13.782 0 0 1 6.061-.117 6.35 6.35 0 0 0-4.313-1.474 1.465 1.465 0 0 1-1.46-1.461z" class="cls-1" data-name="Path 826" transform="translate(0 -69.821)"/>
            </g>
        </g>
    </g>
</svg>
