<svg xmlns="http://www.w3.org/2000/svg" viewBox="0 0 16 13.128">
    <defs>
        <style>
            .cls-1{fill:#111}
        </style>
    </defs>
    <g id="old-fashion-briefcase" transform="translate(.001 -4.509)">
        <g id="Group_799" data-name="Group 799" transform="translate(-.001 4.509)">
            <g id="Group_798" data-name="Group 798">
                <path id="Path_827" d="M24.229 27.347v-.356a.784.784 0 0 0-1.569 0v.356a.784.784 0 0 0 1.569 0z" class="cls-1" data-name="Path 827" transform="translate(-15.444 -19.298)"/>
                <path id="Path_828" d="M10.011 30.685a1.379 1.379 0 0 1-2.645 0h-5.4a2.21 2.21 0 0 1-.952-.217v3.588a1.277 1.277 0 0 0 1.27 1.274h12.809a1.277 1.277 0 0 0 1.274-1.274v-3.588a2.21 2.21 0 0 1-.952.217z" class="cls-1" data-name="Path 828" transform="translate(-.688 -22.202)"/>
                <path id="Path_829" d="M14.672 6.55h-3.058a2.426 2.426 0 0 0-2.39-2.041h-2.45A2.426 2.426 0 0 0 4.383 6.55H1.326A1.3 1.3 0 0 0 0 7.823v2.94a1.274 1.274 0 0 0 1.274 1.274h5.342a1.383 1.383 0 0 1 .424-.937l.025-.02a1.4 1.4 0 0 1 .175-.14c.022-.015.048-.025.071-.039a1.361 1.361 0 0 1 .158-.083 1.387 1.387 0 0 1 .137-.042c.039-.012.077-.027.118-.036A1.378 1.378 0 0 1 8 10.716a1.394 1.394 0 0 1 .275.028c.041.008.079.024.118.036a1.357 1.357 0 0 1 .137.043 1.377 1.377 0 0 1 .158.083c.023.014.049.024.072.039a1.365 1.365 0 0 1 .175.139c.008.007.018.013.025.021a1.381 1.381 0 0 1 .424.934h5.343A1.274 1.274 0 0 0 16 10.764v-2.94a1.305 1.305 0 0 0-1.328-1.274zm-9.062 0a1.23 1.23 0 0 1 1.164-.85h2.45a1.229 1.229 0 0 1 1.164.848z" class="cls-1" data-name="Path 829" transform="translate(.001 -4.509)"/>
            </g>
        </g>
    </g>
</svg>
