<?xml version="1.0" encoding="utf-8"?>
<!-- Generator: Adobe Illustrator 22.0.0, SVG Export Plug-In . SVG Version: 6.00 Build 0)  -->
<svg version="1.1" id="Layer_1" xmlns="http://www.w3.org/2000/svg" xmlns:xlink="http://www.w3.org/1999/xlink" x="0px" y="0px"
	 viewBox="0 0 24 24" style="enable-background:new 0 0 24 24;" xml:space="preserve">
<style type="text/css">
	.st0{fill:#111111;}
</style>
<path id="Path_1522" class="st0" d="M11.9,2.5c-5.1,0-9.2,4.1-9.2,9.2s4.1,9.2,9.2,9.2s9.2-4.1,9.2-9.2l0,0
	C21.1,6.6,17,2.5,11.9,2.5z M11.9,19.1c-4,0-7.4-3.3-7.4-7.4s3.3-7.4,7.4-7.4s7.4,3.3,7.4,7.4l0,0C19.3,15.7,15.9,19.1,11.9,19.1z"
	/>
<path id="Path_1523" class="st0" d="M14.8,7.3l-3,3l-3.1-3L7.4,8.7l3,3l-3,3l1.3,1.3l3-3l3,3l1.3-1.3l-3.1-3l3-3L14.8,7.3z"/>
</svg>
