<svg xmlns="http://www.w3.org/2000/svg" width="24" height="24" viewBox="0 0 24 24">
    <defs>
        <style>
            .cls-1{fill:none}.cls-2{fill:#111}
        </style>
    </defs>
    <g id="ic_komentar_web" transform="translate(-1049 -191)">
        <g id="Group_992" data-name="Group 992">
            <path id="Path_653" d="M0 0h24v24H0z" class="cls-1" data-name="Path 653" transform="translate(1049 191)"/>
            <path id="Path_654" d="M21.99 4A2 2 0 0 0 20 2H4a2.006 2.006 0 0 0-2 2v12a2.006 2.006 0 0 0 2 2h14l4 4zM20 4v13.17L18.83 16H4V4zM6 12h12v2H6zm0-3h12v2H6zm0-3h12v2H6z" class="cls-2" data-name="Path 654" transform="translate(1049 191)"/>
        </g>
    </g>
</svg>
