<svg xmlns="http://www.w3.org/2000/svg" id="flat-twitter_badge-72px" width="36" height="36" viewBox="0 0 36 36">
    <defs>
        <style>
            .cls-1{fill:#059ff5}.cls-2{fill:#fff;fill-rule:evenodd}.cls-3{fill:none}
        </style>
    </defs>
    <g id="ic_twitter_circle" transform="translate(4.5 4.5)">
        <g id="_1.4-Buzzer-_task-Detail_" data-name="1.4-Buzzer-(task-Detail)">
            <g id="Task-Detail">
                <g id="Task-Detail-2">
                    <g id="Group-3-Copy">
                        <g id="Group-7-Copy">
                            <g id="ic_twitter_circle-2" data-name="ic_twitter_circle">
                                <circle id="Oval-Copy" cx="13.5" cy="13.5" r="13.5" class="cls-1"/>
                                <path id="Shape-Copy" d="M17.41 8.7a2.9 2.9 0 0 0 1.217-1.615 5.371 5.371 0 0 1-1.759.709 2.7 2.7 0 0 0-2.021-.923A2.848 2.848 0 0 0 12.078 9.8a3.056 3.056 0 0 0 .071.665A7.735 7.735 0 0 1 6.44 7.409a3.037 3.037 0 0 0-.375 1.469A2.968 2.968 0 0 0 7.3 11.31a2.671 2.671 0 0 1-1.255-.365v.036a2.886 2.886 0 0 0 2.223 2.864 2.578 2.578 0 0 1-.731.1 2.6 2.6 0 0 1-.521-.052A2.793 2.793 0 0 0 9.6 15.924a5.377 5.377 0 0 1-3.44 1.25 5.231 5.231 0 0 1-.661-.04 7.552 7.552 0 0 0 4.246 1.312c5.1 0 7.88-4.451 7.88-8.311 0-.127 0-.253-.007-.378A5.79 5.79 0 0 0 19 8.245a5.308 5.308 0 0 1-1.59.455z" class="cls-2" transform="translate(1.25 1.563)"/>
                            </g>
                        </g>
                    </g>
                </g>
            </g>
        </g>
    </g>
    <path id="Rectangle_89" d="M0 0h36v36H0z" class="cls-3" data-name="Rectangle 89"/>
</svg>
