<?xml version="1.0" encoding="utf-8"?>
<!-- Generator: Adobe Illustrator 22.0.0, SVG Export Plug-In . SVG Version: 6.00 Build 0)  -->
<svg version="1.1" id="Layer_1" xmlns="http://www.w3.org/2000/svg" xmlns:xlink="http://www.w3.org/1999/xlink" x="0px" y="0px"
	 viewBox="0 0 18 6.4" style="enable-background:new 0 0 18 6.4;" xml:space="preserve">
<style type="text/css">
	.st0{fill:#7C7C7C;}
</style>
<path id="Path_108" class="st0" d="M3.2,1.1c-1.1,0-2,0.9-2,2s0.9,2,2,2s2-0.9,2-2S4.3,1.1,3.2,1.1z M15.2,1.1c-1.1,0-2,0.9-2,2
	s0.9,2,2,2s2-0.9,2-2S16.3,1.1,15.2,1.1z M9.2,1.1c-1.1,0-2,0.9-2,2s0.9,2,2,2s2-0.9,2-2S10.3,1.1,9.2,1.1z"/>
</svg>
