<?xml version="1.0" encoding="utf-8"?>
<!-- Generator: Adobe Illustrator 22.0.0, SVG Export Plug-In . SVG Version: 6.00 Build 0)  -->
<svg version="1.1" id="Layer_1" xmlns="http://www.w3.org/2000/svg" xmlns:xlink="http://www.w3.org/1999/xlink" x="0px" y="0px"
	 viewBox="0 0 24 24" style="enable-background:new 0 0 24 24;" xml:space="preserve">
<g>
	<path d="M13.2,10.7c1.3,1.3,1.3,3.4,0,4.7l-3.1,3.1c-1.3,1.3-3.4,1.3-4.7,0c-1.3-1.3-1.3-3.4,0-4.7l1.5-1.5l-1.3-1.5l-1.5,1.5
		c-1,1-1.5,2.4-1.5,3.7c0,2.9,2.4,5.3,5.3,5.3l0,0c1.5,0,2.8-0.6,3.7-1.6l3.1-3.1c2.1-2.1,2.1-5.4,0-7.5L13.2,10.7z"/>
	<path d="M20.6,3.6c-1.9-2.2-5.3-2.4-7.4-0.3l-3.1,2.9c-2.1,2.1-2.1,5.4,0,7.5l1.3-1.3c-1.3-1.3-1.3-3.4,0-4.7l3.1-2.9
		c0.1-0.1,0.3-0.3,0.4-0.4c1.3-1.2,3.5-1,4.7,0.4c1.2,1.3,1,3.5-0.4,4.7L17.8,11l1.3,1.3l1.5-1.5C22.5,8.8,22.5,5.6,20.6,3.6z"/>
</g>
</svg>
