<svg xmlns="http://www.w3.org/2000/svg" width="24" height="24" viewBox="0 0 24 24">
    <defs>
        <style>
            .cls-1{fill:none}.cls-2{fill:#111}
        </style>
    </defs>
    <g id="Group_1172" data-name="Group 1172" transform="translate(-156 -949)">
        <path id="Rectangle_2230" d="M0 0h24v24H0z" class="cls-1" data-name="Rectangle 2230" transform="translate(156 949)"/>
        <g id="lock" transform="translate(159.75 950)">
            <g id="Group_1171" data-name="Group 1171">
                <path id="Path_1877" d="M80.042 8.25h-1.375V6.417a6.417 6.417 0 1 0-12.833 0V8.25h-1.376a.458.458 0 0 0-.458.458v11.459A1.835 1.835 0 0 0 65.833 22h12.834a1.835 1.835 0 0 0 1.833-1.833V8.708a.458.458 0 0 0-.458-.458zm-6.419 9.574a.458.458 0 0 1-.456.509h-1.834a.458.458 0 0 1-.456-.509l.289-2.6a1.813 1.813 0 0 1-.75-1.474 1.833 1.833 0 1 1 3.667 0 1.813 1.813 0 0 1-.75 1.474zm2.294-9.574h-7.334V6.417a3.667 3.667 0 1 1 7.333 0z" class="cls-2" data-name="Path 1877" transform="translate(-64)"/>
            </g>
        </g>
    </g>
</svg>
