<?xml version="1.0" encoding="utf-8"?>
<!-- Generator: Adobe Illustrator 22.0.0, SVG Export Plug-In . SVG Version: 6.00 Build 0)  -->
<svg version="1.1" id="Layer_1" xmlns="http://www.w3.org/2000/svg" xmlns:xlink="http://www.w3.org/1999/xlink" x="0px" y="0px"
	 viewBox="0 0 142 83.9" style="enable-background:new 0 0 142 83.9;" xml:space="preserve">
<style type="text/css">
	.st0{fill:#C0241F;}
</style>
<g id="Asset_1_1_" transform="translate(136 18.642)">
	<g id="Layer_1_2_" transform="translate(0 10.523)">
		<path id="Path_1536_1_" class="st0" d="M-38,9c8.1,14.9,2.6,33.6-12.3,41.7S-83.9,53.2-92,38.3c-5-9.1-5-20.2,0-29.3
			c-14.7,1-29.2,3.2-43.6,6.6c11.9-6.8,29.2-11.8,49.1-13.9c4.4-0.5,9-0.8,13.7-1c-12.7,4.3-19.5,18-15.2,30.7
			c4.3,12.7,18,19.5,30.7,15.2c12.7-4.3,19.5-18,15.2-30.7c-2.4-7.2-8-12.8-15.2-15.2c4.7,0.2,9.3,0.5,13.7,1
			C-23.6,3.8-6.4,8.8,5.6,15.5C-8.8,12.2-23.3,10-38,9z"/>
	</g>
	<g id="Layer_2_2_" transform="translate(31.688 2.135)">
		<circle id="Ellipse_420_1_" class="st0" cx="-69.1" cy="-5.9" r="8.7"/>
	</g>
	<g id="Layer_3_1_" transform="translate(21.912)">
		<circle id="Ellipse_421_1_" class="st0" cx="-86.9" cy="-9.7" r="8.7"/>
	</g>
	<g id="Layer_4_1_" transform="translate(12.136 2.135)">
		<circle id="Ellipse_422_1_" class="st0" cx="-104.7" cy="-5.9" r="8.7"/>
	</g>
	<g id="Layer_5_1_" transform="translate(18.701 12.357)">
		<path id="Path_1537_1_" class="st0" d="M-83.7,4c-9.8,0-17.8,8-17.8,17.8s8,17.8,17.8,17.8s17.8-8,17.8-17.8c0,0,0,0,0,0
			C-65.9,12-73.9,4-83.7,4z M-83.7,27.6c-3.2,0-5.8-2.6-5.8-5.8c0-3.2,2.6-5.8,5.8-5.8c3.2,0,5.8,2.6,5.8,5.8
			C-77.9,25-80.5,27.6-83.7,27.6C-83.7,27.6-83.7,27.6-83.7,27.6z M-75.9,33.9c-1.8,0-3.2-1.4-3.2-3.2c0-1.8,1.4-3.2,3.2-3.2
			c1.8,0,3.2,1.4,3.2,3.2c0,0.9-0.3,1.7-0.9,2.3C-74.3,33.5-75.1,33.9-75.9,33.9z"/>
	</g>
</g>
</svg>
