<svg xmlns="http://www.w3.org/2000/svg" id="baseline-favorite_border-24px" viewBox="0 0 20 20">
    <defs>
        <style>
            .cls-1{fill:none}.cls-2{fill:#393939}
        </style>
    </defs>
    <path id="Path_484" d="M0 0h20v20H0z" class="cls-1" data-name="Path 484"/>
    <path id="Path_485" d="M13.6 3A4.836 4.836 0 0 0 10 4.634 4.836 4.836 0 0 0 6.4 3 4.309 4.309 0 0 0 2 7.3c0 2.956 2.72 5.365 6.84 9.024L10 17.35l1.16-1.032C15.28 12.666 18 10.257 18 7.3A4.309 4.309 0 0 0 13.6 3zm-3.52 12.16l-.08.078-.08-.078C6.112 11.79 3.6 9.561 3.6 7.3a2.7 2.7 0 0 1 2.8-2.736A3.13 3.13 0 0 1 9.256 6.41h1.5A3.109 3.109 0 0 1 13.6 4.564 2.7 2.7 0 0 1 16.4 7.3c0 2.261-2.512 4.49-6.32 7.86z" class="cls-2" data-name="Path 485"/>
</svg>
