<?xml version="1.0" encoding="utf-8"?>
<!-- Generator: Adobe Illustrator 22.0.0, SVG Export Plug-In . SVG Version: 6.00 Build 0)  -->
<svg version="1.1" id="Layer_1" xmlns="http://www.w3.org/2000/svg" xmlns:xlink="http://www.w3.org/1999/xlink" x="0px" y="0px"
	 viewBox="0 0 36 36" style="enable-background:new 0 0 36 36;" xml:space="preserve">
<style type="text/css">
	.st0{fill:#BD081C;}
	.st1{fill:#FFFFFF;}
</style>
<circle id="Ellipse_228" class="st0" cx="18" cy="18" r="17.1"/>
<path id="Path_966" class="st1" d="M14.8,29.5c1.3,0.3,2.6-0.4,3-1.7l-4.7-1.3C12.7,27.8,13.5,29.2,14.8,29.5z M23.8,24.3l1.6-5.9
	c1-3.6-0.1-7.2-3.3-8.9l0.2-0.8c0.3-1-0.3-2-1.3-2.2s-2,0.3-2.2,1.3c0,0,0,0,0,0l-0.2,0.8c-3.6-0.1-6.3,2.4-7.3,6.1l-1.6,5.9l-3,1.7
	l-0.3,1.2l18.9,5.1l0.3-1.2L23.8,24.3z M21.1,24.9l-9.5-2.5l1.9-7.1c0.8-2.9,3.2-4.8,6.2-4.1c2.9,0.8,4.1,3.7,3.3,6.6L21.1,24.9z"/>
</svg>
