<svg xmlns="http://www.w3.org/2000/svg" id="outline-edit-48px" viewBox="0 0 16 16">
    <defs>
        <style>
            .cls-1{fill:none}
        </style>
    </defs>
    <path id="Path_1721" d="M0 0h16v16H0z" class="cls-1" data-name="Path 1721"/>
    <path id="Path_1722" d="M10.86 5.41l-7.333 7.333-1.047 3.4 3.4-1.043 7.333-7.333zm-5.68 8.513l-.667.207.207-.667 6.153-6.153.473.473z" data-name="Path 1722" transform="translate(-.827 -1.803)"/>
    <path id="Path_1723" d="M19.527 2.861l-.467-.467a1.333 1.333 0 0 0-1.887 0L15.76 3.808l2.353 2.353 1.413-1.413a1.333 1.333 0 0 0 0-1.887z" data-name="Path 1723" transform="translate(-5.253 -.668)"/>
    <path id="Path_1724" d="M8.95 19.333h8.033V18h-6.7z" data-name="Path 1724" transform="translate(-2.983 -6)"/>
</svg>
