<?xml version="1.0" encoding="utf-8"?>
<!-- Generator: Adobe Illustrator 22.0.0, SVG Export Plug-In . SVG Version: 6.00 Build 0)  -->
<svg version="1.1" id="Layer_1" xmlns="http://www.w3.org/2000/svg" xmlns:xlink="http://www.w3.org/1999/xlink" x="0px" y="0px"
	 viewBox="0 0 24 24" style="enable-background:new 0 0 24 24;" xml:space="preserve">
<style type="text/css">
	.st0{fill:#4F4F4F;}
</style>
<path id="Path_39" class="st0" d="M9,15c-2.7,0-8,1.3-8,4v2h16v-2C17,16.3,11.7,15,9,15z M16.8,5.4L15.1,7c0.8,1.2,0.8,2.7,0,3.9
	l1.7,1.7C18.8,10.6,18.8,7.4,16.8,5.4C16.8,5.4,16.8,5.4,16.8,5.4z M20.1,2l-1.6,1.6c2.8,3,2.8,7.7,0,10.7l1.6,1.6
	c3.9-3.8,3.9-10,0.1-13.9C20.1,2.1,20.1,2,20.1,2z"/>
<circle id="Ellipse_2" class="st0" cx="9" cy="9" r="4"/>
</svg>
