<?xml version="1.0" encoding="utf-8"?>
<!-- Generator: Adobe Illustrator 22.0.0, SVG Export Plug-In . SVG Version: 6.00 Build 0)  -->
<svg version="1.1" id="Layer_1" xmlns="http://www.w3.org/2000/svg" xmlns:xlink="http://www.w3.org/1999/xlink" x="0px" y="0px"
	 viewBox="0 0 24 24" style="enable-background:new 0 0 24 24;" xml:space="preserve">
<path id="Path_14" class="st0" d="M19.5,2.9H15c-0.6-1.7-2.5-2.5-4.1-1.9C10,1.3,9.3,2,9,2.9H4.5C3.4,2.9,2.4,3.8,2.4,5v14.6
	c0,1.2,1,2.1,2.1,2.1h14.9c1.2,0,2.1-0.9,2.1-2.1V5C21.6,3.8,20.6,2.9,19.5,2.9z M12,2.9c0.6,0,1,0.5,1,1.1c0,0.6-0.5,1-1.1,1
	c-0.6,0-1-0.5-1-1C10.9,3.3,11.4,2.9,12,2.9z M14.1,17.4H6.7v-2.1h7.5L14.1,17.4z M17.3,13.3H6.7v-2.1h10.7V13.3z M17.3,9.1H6.7V7
	h10.7V9.1z"/>
</svg>
