<svg xmlns="http://www.w3.org/2000/svg" id="outline-settings-24px" viewBox="0 0 20 20">
    <defs>
        <style>
            .cls-1{fill:none}.cls-2{fill:#393939}
        </style>
    </defs>
    <path id="Path_835" d="M0 0h20v20H0z" class="cls-1" data-name="Path 835"/>
    <path id="Path_836" d="M15.9 10.784a6.278 6.278 0 0 0 .057-.784 6.278 6.278 0 0 0-.056-.784L17.578 7.9a.406.406 0 0 0 .1-.512l-1.593-2.772a.4.4 0 0 0-.35-.2.369.369 0 0 0-.135.024l-1.978.8a5.794 5.794 0 0 0-1.343-.784l-.3-2.12A.388.388 0 0 0 11.588 2H8.411a.388.388 0 0 0-.389.336l-.3 2.12a6.093 6.093 0 0 0-1.343.784L4.4 4.44a.447.447 0 0 0-.143-.024.393.393 0 0 0-.342.2L2.326 7.384a.4.4 0 0 0 .1.512L4.1 9.216a6.388 6.388 0 0 0-.058.784 6.388 6.388 0 0 0 .056.784L2.421 12.1a.406.406 0 0 0-.1.512L3.91 15.38a.4.4 0 0 0 .35.2.369.369 0 0 0 .14-.02l1.978-.8a5.794 5.794 0 0 0 1.343.784l.3 2.12a.388.388 0 0 0 .39.336h3.178a.388.388 0 0 0 .389-.336l.3-2.12a6.093 6.093 0 0 0 1.343-.784l1.978.8a.447.447 0 0 0 .143.024.393.393 0 0 0 .342-.2l1.589-2.768a.406.406 0 0 0-.1-.512zm-1.571-1.368a4.3 4.3 0 0 1 .04.584c0 .168-.016.344-.04.584l-.111.9.707.56.858.672-.556.968-1.009-.408-.826-.336-.715.544a4.645 4.645 0 0 1-.993.584l-.842.344-.127.9-.159 1.08H9.443l-.151-1.08-.127-.9-.842-.344a4.5 4.5 0 0 1-.977-.568l-.723-.56-.842.344-1.009.416-.556-.968.858-.672.707-.56-.111-.9c-.024-.248-.04-.432-.04-.592s.016-.344.04-.584l.111-.9-.707-.56-.858-.684.556-.968 1.009.408.826.336.715-.544a4.645 4.645 0 0 1 .993-.584l.842-.344.127-.9.159-1.084h1.1l.157 1.08.127.9.842.344a4.5 4.5 0 0 1 .977.568l.723.56.842-.344 1.008-.408.556.968-.85.68-.707.56.111.9zM10 6.8a3.2 3.2 0 1 0 3.177 3.2A3.188 3.188 0 0 0 10 6.8zm0 4.8a1.6 1.6 0 1 1 1.588-1.6A1.6 1.6 0 0 1 10 11.6z" class="cls-2" data-name="Path 836"/>
</svg>
