<?xml version="1.0" encoding="utf-8"?>
<!-- Generator: Adobe Illustrator 22.0.0, SVG Export Plug-In . SVG Version: 6.00 Build 0)  -->
<svg version="1.1" id="Layer_1" xmlns="http://www.w3.org/2000/svg" xmlns:xlink="http://www.w3.org/1999/xlink" x="0px" y="0px"
	 viewBox="0 0 24 24" style="enable-background:new 0 0 24 24;" xml:space="preserve">
<path id="Path_695" class="st0" d="M18,16.1c-0.7,0-1.4,0.3-2,0.8l-7.1-4.2C9,12.5,9,12.2,9,12c0-0.2,0-0.5-0.1-0.7L16,7.2
	c1.2,1.1,3.1,1,4.2-0.2s1-3.1-0.2-4.2s-3.1-1-4.2,0.2C15.3,3.5,15,4.2,15,5c0,0.2,0,0.5,0.1,0.7L8,9.8C6.8,8.7,4.9,8.7,3.8,9.9
	s-1.1,3.1,0.1,4.2c1.2,1.1,2.9,1.1,4.1,0l7.1,4.2c-0.1,0.2-0.1,0.4-0.1,0.6c0,1.6,1.3,2.9,2.9,2.9s2.9-1.3,2.9-2.9
	S19.6,16.1,18,16.1L18,16.1z M18,4c0.6,0,1,0.4,1,1s-0.4,1-1,1s-1-0.4-1-1S17.4,4,18,4z M6,13c-0.6,0-1-0.4-1-1s0.4-1,1-1s1,0.4,1,1
	S6.6,13,6,13z M18,20c-0.6,0-1-0.4-1-1s0.4-1,1-1s1,0.4,1,1S18.6,20,18,20z"/>
</svg>
