<?xml version="1.0" encoding="utf-8"?>
<!-- Generator: Adobe Illustrator 22.0.0, SVG Export Plug-In . SVG Version: 6.00 Build 0)  -->
<svg version="1.1" id="Layer_1" xmlns="http://www.w3.org/2000/svg" xmlns:xlink="http://www.w3.org/1999/xlink" x="0px" y="0px"
	 viewBox="0 0 24 24" style="enable-background:new 0 0 24 24;" xml:space="preserve">
<style type="text/css">
	.st0{fill:#111111;}
</style>
<path id="twitter" class="st0" d="M22.2,5.7c-1.3,0-1.3,0-1.4,0.1l0.8-2.1c0,0-2.3,0.9-2.9,1c-1.5-1.4-3.8-1.5-5.5-0.5
	c-1.3,0.8-2,2.4-1.8,3.9C8.9,7.7,6.5,6.5,4.9,4.5L4.2,3.7L3.9,4.5c-0.5,1-0.6,2-0.5,3.1C3.5,8,3.6,8.5,3.7,8.9L3.4,8.6v0.8
	c0,0.9,0.3,1.8,0.8,2.5c0.1,0.3,0.4,0.5,0.5,0.6H4.4l0.3,1c0.4,1.1,1.1,2,2.3,2.5c-1,0.5-1.9,0.8-3.3,1.1l-1.3,0.4l1.1,0.8
	c1.1,0.6,2.4,1.1,3.6,1.3c3.5,0.5,7.4,0.1,10.1-2.3c2.1-2,3.1-4.9,2.8-7.9c0-0.4,0.1-0.9,0.4-1.3C20.8,7.6,22.2,5.7,22.2,5.7z
	 M19.5,7.6c-0.4,0.6-0.6,1.3-0.6,2c0.4,2.5-0.6,5.2-2.4,6.9c-2.1,1.9-5.4,2.5-9.2,2c-0.6-0.1-1.4-0.4-2-0.6c1.3-0.4,2.4-0.9,3.5-1.5
	l2-1H8.6c-1,0-2-0.6-2.5-1.4c0.3,0,0.6-0.1,0.9-0.1l2.1-0.6L7,12.7c-0.9-0.3-1.5-0.6-2-1.4c-0.3-0.3-0.4-0.6-0.4-0.9
	c0.3,0.1,0.6,0.1,0.9,0.1l2,0.3L5.9,9.5C4.7,8.6,4.2,7.2,4.6,5.9c2.1,2.3,5.2,3.5,8.2,3.5c0-0.4,0-0.6-0.1-1
	c-0.4-1.1,0.1-2.5,1.3-3.1c1.3-0.8,3-0.6,4.2,0.4c0.3,0.3,0.6,0.4,1,0.3c0.3-0.1,0.5-0.1,0.8-0.3L19.3,7h0.5L19.5,7.6z"/>
</svg>
