<svg xmlns="http://www.w3.org/2000/svg" width="24" height="24" viewBox="0 0 24 24">
    <defs>
        <style>
            .cls-1{fill:none}.cls-2{fill:#111}
        </style>
    </defs>
    <g id="ic_status-wordstadium_web" transform="translate(-304 -284)">
        <g id="Group_1042" data-name="Group 1042" transform="translate(0 -5)">
            <path id="Path_157" d="M0 0h24v24H0z" class="cls-1" data-name="Path 157" transform="translate(304 289)"/>
            <g id="Group_995" data-name="Group 995" transform="translate(306 291)">
                <path id="Path_1529" d="M20 2H4a2 2 0 0 0-2 2v16a2 2 0 0 0 2 2h16a2 2 0 0 0 2-2V4a2 2 0 0 0-2-2zM4 20V4h16v16z" class="cls-2" data-name="Path 1529" transform="translate(-2 -2)"/>
                <g id="Group_996" data-name="Group 996" transform="translate(4.278 5.772)">
                    <circle id="Ellipse_2" cx="2.667" cy="2.667" r="2.667" class="cls-2" data-name="Ellipse 2" transform="translate(0 2)"/>
                    <path id="Path_39" d="M16.2 4.24l-1.12 1.127a2.212 2.212 0 0 1 0 2.594l1.12 1.126a3.412 3.412 0 0 0 0-4.847zM18.407 2L17.32 3.087a5.319 5.319 0 0 1 0 7.16l1.087 1.087a6.553 6.553 0 0 0 0-9.334z" class="cls-2" data-name="Path 39" transform="translate(-8.36 -2)"/>
                </g>
            </g>
        </g>
    </g>
</svg>
