<?xml version="1.0" encoding="utf-8"?>
<!-- Generator: Adobe Illustrator 22.0.0, SVG Export Plug-In . SVG Version: 6.00 Build 0)  -->
<svg version="1.1" id="Layer_1" xmlns="http://www.w3.org/2000/svg" xmlns:xlink="http://www.w3.org/1999/xlink" x="0px" y="0px"
	 viewBox="0 0 48 48" style="enable-background:new 0 0 48 48;" xml:space="preserve">
<style type="text/css">
	.st0{fill:#1DA1F2;}
</style>
<path id="Path_1872" class="st0" d="M38.9,24l3.1-4.8l-5.1-2.6l0.3-5.7l-5.7,0.3L28.8,6L24,9.1L19.2,6l-2.6,5.1l-5.7-0.3l0.3,5.7
	L6,19.2L9.1,24L6,28.8l5.1,2.6l-0.3,5.7l5.7-0.3l2.6,5.1l4.8-3.1l4.8,3.1l2.6-5.1l5.7,0.3l-0.3-5.7l5.1-2.6L38.9,24z M21.2,31
	l-6.4-6.4l2.1-2.1l4.2,4.2L31,17l2.1,2.1L21.2,31z"/>
</svg>
