<svg xmlns="http://www.w3.org/2000/svg" width="56" height="56.002" viewBox="0 0 56 56.002">
    <defs>
        <style>
            .cls-1{fill:none}.cls-2,.cls-4{fill:#fff}.cls-3,.cls-4{stroke:none}
        </style>
    </defs>
    <g id="vs">
        <g id="Path_1529" class="cls-1" data-name="Path 1529">
            <path d="M-16.5-447.991V-476h56v28.009L11.5-420z" class="cls-3" transform="translate(16.5 476)"/>
            <path d="M11.503-421.413L38.5-448.406V-475h-54v26.594l27.003 26.993m0 1.414L-16.5-447.99V-476h56v28.009L11.503-420z" class="cls-4" transform="translate(16.5 476)"/>
        </g>
        <path id="Path_1527" d="M10.967-17.326H14.4L9.006-1.843H5.887L.551-17.326h3.525L7.505-5.572zm7.78 10.7a3.142 3.142 0 0 0 .589 1.586 3.43 3.43 0 0 0 2.754.956 5.921 5.921 0 0 0 1.9-.252 1.8 1.8 0 0 0 1.382-1.8 1.32 1.32 0 0 0-.686-1.187 7.474 7.474 0 0 0-2.154-.725l-1.672-.368a10.7 10.7 0 0 1-3.41-1.179 3.749 3.749 0 0 1-1.6-3.351A4.435 4.435 0 0 1 17.4-16.4a6.612 6.612 0 0 1 4.533-1.376 6.987 6.987 0 0 1 4.26 1.3 4.6 4.6 0 0 1 1.849 3.766h-3.177a2.217 2.217 0 0 0-1.243-1.99 4.24 4.24 0 0 0-1.918-.389 3.637 3.637 0 0 0-2.036.5 1.6 1.6 0 0 0-.761 1.408 1.329 1.329 0 0 0 .75 1.239 9.313 9.313 0 0 0 2.057.641l2.722.641a7.11 7.11 0 0 1 2.7 1.124 3.754 3.754 0 0 1 1.416 3.166A4.426 4.426 0 0 1 26.9-2.846a7.031 7.031 0 0 1-4.678 1.4 7.7 7.7 0 0 1-4.854-1.381 4.554 4.554 0 0 1-1.768-3.8z" class="cls-2" data-name="Path 1527" transform="translate(13.449 31.782)"/>
    </g>
</svg>
