<svg xmlns="http://www.w3.org/2000/svg" width="32" height="27.19" viewBox="0 0 32 27.19">
    <defs>
        <style>
            .cls-1{fill:#f5b531}.cls-2{fill:none}
        </style>
    </defs>
    <g id="Logo_Colored_" data-name="Logo (Colored)" transform="translate(-11 -84.5)">
        <path id="Path_1877" d="M37.963 559.423v5.126a.622.622 0 0 1-.841.581l-10.152-3.845-2.5 1.1v-2.043l-1.4-.531a.622.622 0 0 1-.4-.581v-5.13a.622.622 0 0 1 .841-.581l14.051 5.323a.622.622 0 0 1 .401.581z" class="cls-1" data-name="Path 1877" transform="translate(-11.288 -453.634)"/>
        <path id="Path_1878" d="M510 560.163v5.126a.622.622 0 0 0 .841.581l10.15-3.846 2.5 1.1v-2.043l1.4-.531a.622.622 0 0 0 .4-.581v-5.129a.622.622 0 0 0-.841-.581l-14.05 5.323a.622.622 0 0 0-.4.581z" class="cls-1" data-name="Path 1878" transform="translate(-482.673 -454.35)"/>
        <ellipse id="Ellipse_423" cx=".434" cy=".623" data-name="Ellipse 423" rx=".434" ry=".623" transform="rotate(-39.65 152.194 31.657)"/>
        <ellipse id="Ellipse_424" cx=".434" cy=".623" data-name="Ellipse 424" rx=".434" ry=".623" transform="rotate(-39.65 154.19 29.279)"/>
        <ellipse id="Ellipse_425" cx=".434" cy=".623" data-name="Ellipse 425" rx=".434" ry=".623" transform="rotate(-39.65 156.187 26.902)"/>
        <ellipse id="Ellipse_426" cx=".434" cy=".623" data-name="Ellipse 426" rx=".434" ry=".623" transform="rotate(-39.65 158.184 24.523)"/>
        <ellipse id="Ellipse_427" cx=".623" cy=".434" data-name="Ellipse 427" rx=".623" ry=".434" transform="rotate(-50.35 130.37 12.283)"/>
        <ellipse id="Ellipse_428" cx=".623" cy=".434" data-name="Ellipse 428" rx=".623" ry=".434" transform="rotate(-50.35 130.156 14.749)"/>
        <ellipse id="Ellipse_429" cx=".623" cy=".434" data-name="Ellipse 429" rx=".623" ry=".434" transform="rotate(-50.35 129.94 17.215)"/>
        <ellipse id="Ellipse_430" cx=".623" cy=".434" data-name="Ellipse 430" rx=".623" ry=".434" transform="rotate(-50.35 129.726 19.68)"/>
        <path id="Rectangle_2260" d="M0 0h32v27.19H0z" class="cls-2" data-name="Rectangle 2260" transform="translate(11 84.5)"/>
        <path id="Path_1879" d="M76.315 155.04v.651l-13.3 5.039v-.651z" data-name="Path 1879" transform="translate(-50.308 -68.232)"/>
        <path id="Path_1880" d="M543.674 339.62v.651l-1.48.56-.859.326-3.294 1.248-.857.324-6.814 2.582v-.651l5.956-2.255.857-.326 3.294-1.248.859-.326z" data-name="Path 1880" transform="translate(-502.376 -246.772)"/>
        <path id="Path_1881" d="M543.674 424.3v.651l-1.972.748-.857.324-10.475 3.967v-.651l9.614-3.641.857-.324z" data-name="Path 1881" transform="translate(-502.376 -328.682)"/>
        <path id="Path_1882" d="M543.674 160.079v.651l-13.3-5.039v-.651z" data-name="Path 1882" transform="translate(-502.376 -68.232)"/>
        <path id="Path_1883" d="M76.315 239.72v.651l-10.11 3.829-.857.326-2.338.885v-.651l1.48-.56.859-.326z" data-name="Path 1883" transform="translate(-50.308 -150.141)"/>
        <path id="Path_1884" d="M543.674 244.759v.651l-2.338-.885-.859-.326-10.108-3.828v-.651l10.966 4.154.857.326z" data-name="Path 1884" transform="translate(-502.376 -150.141)"/>
        <path id="Path_1885" d="M76.315 344.659v.651l-6.815-2.58-.859-.326-3.292-1.248-.859-.326-1.48-.56v-.651l2.338.885.857.326 3.3 1.248.858.326z" data-name="Path 1885" transform="translate(-50.308 -246.772)"/>
        <path id="Path_1886" d="M76.315 429.339v.651l-10.472-3.967-.859-.326-1.974-.746v-.651l2.833 1.074.859.324z" data-name="Path 1886" transform="translate(-50.308 -328.682)"/>
        <path id="Path_1887" d="M543.674 520.42v.652l-13.3 5.039v-.651z" data-name="Path 1887" transform="translate(-502.376 -421.657)"/>
        <path id="Path_1888" d="M76.315 335.89v.65l-5.956 2.26-.858.326-2.8 1.059-.859.326-2.833 1.072v-.65l1.974-.748.859-.324 2.8-1.06.859-.326z" data-name="Path 1888" transform="translate(-50.308 -243.165)"/>
        <path id="Path_1889" d="M543.674 340.929v.65l-2.831-1.072-.86-.326-2.8-1.06-.857-.324-5.956-2.256v-.65l6.814 2.58.859.326 2.8 1.06.859.326z" data-name="Path 1889" transform="translate(-502.376 -243.165)"/>
        <path id="Path_1890" d="M76.315 525.459v.651l-13.3-5.039v-.652z" data-name="Path 1890" transform="translate(-50.308 -421.657)"/>
        <path id="Path_1891" d="M14.918 266.054a.472.472 0 0 1-.292.412v7.84l-.651-.247v-7.591a.475.475 0 0 1-.294-.412.638.638 0 0 1 1.238 0z" data-name="Path 1891" transform="translate(-2.592 -175.145)"/>
        <path id="Path_1892" d="M949.717 266.054a.472.472 0 0 1-.292.412v7.592l-.652.247v-7.838a.474.474 0 0 1-.293-.412.637.637 0 0 1 1.237 0z" data-name="Path 1892" transform="translate(-906.806 -175.145)"/>
        <path id="Path_1893" d="M482.337 88.965a.474.474 0 0 1-.293.413v7.594l-.326-.124-.326.124v-7.594a.475.475 0 0 1-.293-.413.637.637 0 0 1 1.237 0z" data-name="Path 1893" transform="translate(-454.718 -3.85)"/>
        <path id="Path_1894" d="M482.337 442.713a.474.474 0 0 1-.293.413v7.591l-.326.126-.326-.124v-7.591a.475.475 0 0 1-.293-.413.637.637 0 0 1 1.237 0z" data-name="Path 1894" transform="translate(-454.718 -346.025)"/>
    </g>
</svg>
