<svg xmlns="http://www.w3.org/2000/svg" width="536" height="467" viewBox="0 0 536 467">
    <defs>
        <style>
            .cls-1,.cls-14,.cls-23,.cls-24,.cls-28,.cls-4,.cls-5{fill:none}.cls-2{clip-path:url(#clip-path)}.cls-3{fill:url(#linear-gradient)}.cls-4,.cls-5{stroke:#b0b0b0}.cls-20,.cls-23,.cls-24,.cls-28,.cls-29,.cls-4,.cls-5{stroke-linecap:round}.cls-14,.cls-20,.cls-23,.cls-24,.cls-28,.cls-29,.cls-4,.cls-5{stroke-miterlimit:10}.cls-14,.cls-23,.cls-28,.cls-29,.cls-4,.cls-5{stroke-width:3px}.cls-5{stroke-dasharray:21.9 21.9}.cls-6{fill:#e17126}.cls-7{fill:#f9d65b}.cls-8{fill:#3a3a3a}.cls-9{fill:#f49423}.cls-10{fill:#ddebed}.cls-11{fill:#f7f7f7}.cls-12{fill:#def1f0}.cls-13{fill:#8e7d7d}.cls-14{stroke:#8e7d7d}.cls-15{fill:#067f68}.cls-16{fill:#fddcb2}.cls-17{fill:#e97175}.cls-18{fill:#cdcdce}.cls-19{fill:#d9dadb}.cls-20{fill:#babdbf;stroke-width:5px}.cls-20,.cls-23,.cls-24,.cls-29{stroke:#505050}.cls-21{fill:#f07822}.cls-22{fill:#edcfaf}.cls-24{stroke-width:4px}.cls-25{fill:#cacbcc}.cls-26{fill:#fff}.cls-27{fill:#505050}.cls-28{stroke:#575756}.cls-29{fill:#6c6b6a}.cls-30{fill:#74c9bd}.cls-31{fill:#70b5a9}.cls-32{fill:#029176}.cls-33{fill:#dbe9e5}.cls-34{fill:#74cabe}.cls-35{fill:#cbcbca}.cls-36{fill:#ececec}.cls-37{fill:#cfd1d2}.cls-38{fill:rgba(255,255,255,.8)}
        </style>
        <clipPath id="clip-path">
            <path id="Rectangle_2229" d="M0 0h536v467H0z" class="cls-1" data-name="Rectangle 2229"/>
        </clipPath>
        <linearGradient id="linear-gradient" x2="1" y1=".5" y2=".5" gradientUnits="objectBoundingBox">
            <stop offset="0" stop-color="#f7f7f7"/>
            <stop offset=".96" stop-color="#f4f4f5"/>
        </linearGradient>
    </defs>
    <g id="Mask_Group_7" class="cls-2" data-name="Mask Group 7">
        <g id="_1._Challenge_dibuat_blm_ada_lawan" data-name="1. Challenge dibuat, blm ada lawan" transform="translate(154.859 138.903)">
            <path id="Path_4593" d="M116.434 199.2c14.5-8.14 38.056-10.4 57.893-32.817 21.1-23.849 51.791-53.739 108.7-37.965s41.7 125.379 3.862 170.52c-36.389 43.4-113.189 57.271-158.233 19.95S89.518 254.4 91.044 238.59c1.583-16.466 7.499-29.323 25.39-39.39z" class="cls-3" data-name="Path 4593" transform="translate(-89.937 -124.02)"/>
            <path id="Path_4594" d="M162.868 229.51q-.712 1.747-1.248 3.517" class="cls-4" data-name="Path 4594" transform="translate(-137.317 -193.733)"/>
            <path id="Path_4595" d="M156.7 261.3a40.647 40.647 0 1 0 80.981 6.759" class="cls-5" data-name="Path 4595" transform="translate(-133.903 -214.794)"/>
            <path id="Path_4596" d="M395.548 263.011q-.071-1.867-.308-3.731" class="cls-4" data-name="Path 4596" transform="translate(-291.993 -213.406)"/>
            <path id="Path_4597" d="M232.542 169.05l-3.841-2.93-1.01 2.778z" class="cls-6" data-name="Path 4597" transform="translate(-180.987 -151.842)"/>
            <path id="Path_4598" d="M159.779 166.359l16.643-15L175.6 147a8.084 8.084 0 0 0 4.726 3.151c2.875.461 3.336 3.8 3.336 3.8s-2.936 5.426-3.665 7.329c-2.034 5.325-6.509 9.544-12.476 9.544a12.881 12.881 0 0 1-8.883-3.541z" class="cls-7" data-name="Path 4598" transform="translate(-135.348 -139.206)"/>
            <ellipse id="Ellipse_1368" cx=".431" cy=".431" class="cls-8" data-name="Ellipse 1368" rx=".431" ry=".431" transform="translate(44.682 12.64)"/>
            <path id="Path_4599" d="M161.929 158.731l2.17.838.437.163 7.31 2.818a5.51 5.51 0 0 1-5.479 4.931c-.593 0-3.319.031-7.764-2.829-3.919-2.53-6.543-9.652-6.543-9.652z" class="cls-9" data-name="Path 4599" transform="translate(-130.998 -144.493)"/>
            <path id="Path_4600" d="M692.136 396.133h29.334l4.116 4.155 3.479-4.155H732a6.731 6.731 0 0 0 6.73-6.729v-17.615a6.731 6.731 0 0 0-6.73-6.729h-39.864a6.728 6.728 0 0 0-6.727 6.729V389.4a6.728 6.728 0 0 0 6.727 6.733z" class="cls-10" data-name="Path 4600" transform="translate(-484.142 -283.399)"/>
            <path id="Path_4601" d="M774.073 230.54c3.865 0 7.028 3.646 7.028 8.106v10.809c0 4.456-3.163 8.106-7.028 8.106H710.5l-5.272 6.081-5.282-6.081h-7.872c-3.865 0-7.028-3.649-7.028-8.106v-10.809c0-4.46 3.163-8.106 7.028-8.106h53.469" class="cls-10" data-name="Path 4601" transform="translate(-484.042 -194.413)"/>
            <path id="Path_4602" d="M781.3 215.9c3.865 0 7.028 3.649 7.028 8.109v10.809c0 4.456-3.163 8.106-7.028 8.106h-65.01L711.022 249l-5.282-6.078h-6.44c-3.865 0-7.028-3.649-7.028-8.106v-10.807c0-4.46 3.163-8.109 7.028-8.109h53.479" class="cls-11" data-name="Path 4602" transform="translate(-488.814 -184.738)"/>
            <rect id="Rectangle_2478" width="82.066" height="2.835" class="cls-12" data-name="Rectangle 2478" rx="1.418" transform="translate(211.749 39.671)"/>
            <rect id="Rectangle_2479" width="72.411" height="2.835" class="cls-12" data-name="Rectangle 2479" rx="1.418" transform="translate(211.749 46.759)"/>
            <path id="Path_4603" d="M699.37 386.007h27.482l4.116 4.151 3.5-4.151h4.787a6.731 6.731 0 0 0 6.726-6.732v-17.616a6.731 6.731 0 0 0-6.726-6.729H699.37a6.731 6.731 0 0 0-6.73 6.729v17.616a6.731 6.731 0 0 0 6.73 6.732z" class="cls-11" data-name="Path 4603" transform="translate(-489.059 -276.701)"/>
            <rect id="Rectangle_2480" width="41.41" height="2.835" class="cls-12" data-name="Rectangle 2480" rx="1.418" transform="translate(209.724 88.906)"/>
            <rect id="Rectangle_2481" width="33.29" height="2.835" class="cls-12" data-name="Rectangle 2481" rx="1.418" transform="translate(209.742 95.764)"/>
            <path id="Path_4604" d="M692.136 396.133h29.334l4.116 4.155 3.479-4.155H732a6.731 6.731 0 0 0 6.73-6.729v-17.615a6.731 6.731 0 0 0-6.73-6.729h-39.864a6.728 6.728 0 0 0-6.727 6.729V389.4a6.728 6.728 0 0 0 6.727 6.733z" class="cls-10" data-name="Path 4604" transform="translate(-484.142 -283.399)"/>
            <path id="Path_4605" d="M774.073 230.54c3.865 0 7.028 3.646 7.028 8.106v10.809c0 4.456-3.163 8.106-7.028 8.106H710.5l-5.272 6.081-5.282-6.081h-7.872c-3.865 0-7.028-3.649-7.028-8.106v-10.809c0-4.46 3.163-8.106 7.028-8.106h53.469" class="cls-10" data-name="Path 4605" transform="translate(-484.042 -194.413)"/>
            <path id="Path_4606" d="M781.3 215.9c3.865 0 7.028 3.649 7.028 8.109v10.809c0 4.456-3.163 8.106-7.028 8.106h-65.01L711.022 249l-5.282-6.078h-6.44c-3.865 0-7.028-3.649-7.028-8.106v-10.807c0-4.46 3.163-8.109 7.028-8.109h53.479" class="cls-11" data-name="Path 4606" transform="translate(-488.814 -184.738)"/>
            <rect id="Rectangle_2482" width="82.066" height="2.835" class="cls-12" data-name="Rectangle 2482" rx="1.418" transform="translate(211.749 39.671)"/>
            <rect id="Rectangle_2483" width="72.411" height="2.835" class="cls-12" data-name="Rectangle 2483" rx="1.418" transform="translate(211.749 46.759)"/>
            <path id="Path_4607" d="M699.37 386.007h27.482l4.116 4.151 3.5-4.151h4.787a6.731 6.731 0 0 0 6.726-6.732v-17.616a6.731 6.731 0 0 0-6.726-6.729H699.37a6.731 6.731 0 0 0-6.73 6.729v17.616a6.731 6.731 0 0 0 6.73 6.732z" class="cls-11" data-name="Path 4607" transform="translate(-489.059 -276.701)"/>
            <rect id="Rectangle_2484" width="41.41" height="2.835" class="cls-12" data-name="Rectangle 2484" rx="1.418" transform="translate(209.724 88.906)"/>
            <rect id="Rectangle_2485" width="33.29" height="2.835" class="cls-12" data-name="Rectangle 2485" rx="1.418" transform="translate(209.742 95.764)"/>
            <ellipse id="Ellipse_1369" cx="3.767" cy="3.768" class="cls-13" data-name="Ellipse 1369" rx="3.767" ry="3.768" transform="translate(201.212 6.776)"/>
            <ellipse id="Ellipse_1370" cx="3.767" cy="3.768" class="cls-13" data-name="Ellipse 1370" rx="3.767" ry="3.768" transform="translate(201.212 18.918)"/>
            <ellipse id="Ellipse_1371" cx="3.767" cy="3.768" class="cls-13" data-name="Ellipse 1371" rx="3.767" ry="3.768" transform="translate(190.618 13.227)"/>
            <path id="Path_4608" d="M675.362 166.743l-10.622-5.691 10.083-6.712" class="cls-14" data-name="Path 4608" transform="translate(-470.371 -144.057)"/>
            <path id="Path_4609" d="M622.89 359.607q.7-1.747 1.244-3.517" class="cls-4" data-name="Path 4609" transform="translate(-442.658 -277.458)"/>
            <path id="Path_4610" d="M473.121 246.693a40.647 40.647 0 1 0-80.981-6.759" class="cls-5" data-name="Path 4610" transform="translate(-290.036 -175.25)"/>
            <path id="Path_4611" d="M392 325.69q.071 1.872.312 3.731" class="cls-4" data-name="Path 4611" transform="translate(-289.849 -257.358)"/>
            <path id="Rectangle_2486" d="M0 0h9.979v20.658H0z" class="cls-15" data-name="Rectangle 2486" transform="rotate(10.15 -665.043 335.093)"/>
            <path id="Path_4612" d="M234.411 581.959L221.49 607.5s-8.252 13.02-16.823 0-11.748-20.326-11.748-20.326l17.779-5.718 10.791-6.034z" class="cls-16" data-name="Path 4612" transform="translate(-158.005 -422.494)"/>
            <path id="Rectangle_2487" d="M0 0h22.797v5.279H0z" class="cls-17" data-name="Rectangle 2487" transform="rotate(-170.4 47.362 79.662)"/>
            <path id="Path_4613" d="M533.159 510.79l-11.673 1.944s-11.429 17.9-20.02 30.958l-8.218-12.664a5.674 5.674 0 0 0-7.852-1.669l-6.638 4.311a5.682 5.682 0 0 0-1.671 7.855l14.436 22.245a5.71 5.71 0 0 0 1.061 1.211c1.7 2.126 4.746 3.812 8.011 5.888 6.913 4.409 10.625-4.453 10.625-4.453l26.34-46.234z" class="cls-16" data-name="Path 4613" transform="translate(-345.639 -379.776)"/>
            <path id="Path_4614" d="M11.38 0h.051a11.373 11.373 0 0 1 11.374 11.377V47.39H.005L0 11.379A11.38 11.38 0 0 1 11.38 0z" class="cls-18" data-name="Path 4614" transform="rotate(-19.78 415.782 -280.295)"/>
            <path id="Rectangle_2488" d="M0 0h22.797v5.274H0z" class="cls-17" data-name="Rectangle 2488" transform="rotate(-19.78 536.645 -301.29)"/>
            <path id="Path_4615" d="M628.719 427.7a36.6 36.6 0 0 1 1.617-9.266 5.276 5.276 0 1 0-8.639-4.836h-.027s-3.587 6.878-3.926 12.776a61.451 61.451 0 0 0 .088 9.659l16.013 2.571s-5.126-5.138-5.126-10.904z" class="cls-16" data-name="Path 4615" transform="translate(-439.19 -312.545)"/>
            <path id="Path_4616" d="M292.314 467.14s-15.256 1.292-19.376 10.148-7.228 31.284-7.228 31.284l28.021 5z" class="cls-18" data-name="Path 4616" transform="translate(-206.282 -350.903)"/>
            <path id="Path_4617" d="M357.278 460.441l-23.665-4.721-18.749 3.826a13.764 13.764 0 0 0-13.721 13.726l-2.8 80.9c0 3.68 4.574 3.68 7.957 3.68h56.371c3.678 0 8.252 0 8.252-3.68l-2.8-82.869a10.875 10.875 0 0 0-10.845-10.862z" class="cls-19" data-name="Path 4617" transform="translate(-227.919 -343.395)"/>
            <path id="Line_380" d="M0 0l.59 72.898" class="cls-20" data-name="Line 380" transform="translate(105.794 129.595)"/>
            <path id="Line_381" d="M0 0h12.687" class="cls-20" data-name="Line 381" transform="translate(117.259 143.794)"/>
            <rect id="Rectangle_2489" width="71.251" height="20.068" class="cls-21" data-name="Rectangle 2489" rx="10.034" transform="translate(70.423 48.107)"/>
            <ellipse id="Ellipse_1372" cx="8.998" cy="9.001" class="cls-16" data-name="Ellipse 1372" rx="8.998" ry="9.001" transform="translate(67.674 60.196)"/>
            <ellipse id="Ellipse_1373" cx="8.998" cy="9.001" class="cls-16" data-name="Ellipse 1373" rx="8.998" ry="9.001" transform="translate(127.109 60.196)"/>
            <rect id="Rectangle_2490" width="19.766" height="22.432" class="cls-16" data-name="Rectangle 2490" rx="9.883" transform="translate(95.919 99.114)"/>
            <path id="Path_4618" d="M477.365 319.322v-17.3a9 9 0 1 0 0 17.3z" class="cls-22" data-name="Path 4618" transform="translate(-338.741 -241.479)"/>
            <path id="Path_4619" d="M389.846 413.08H377.16a3.55 3.55 0 0 0-3.54 3.541v9.252a25.081 25.081 0 0 0 19.766-.132v-9.12a3.55 3.55 0 0 0-3.54-3.541z" class="cls-22" data-name="Path 4619" transform="translate(-277.701 -315.142)"/>
            <path id="Path_4620" d="M310.579 301.69a8.942 8.942 0 0 0-3.1.549v16.907a9 9 0 1 0 3.1-17.456z" class="cls-22" data-name="Path 4620" transform="translate(-233.919 -241.494)"/>
            <rect id="Rectangle_2491" width="61.955" height="73.488" class="cls-16" data-name="Rectangle 2491" rx="30.977" transform="translate(74.991 33.105)"/>
            <path id="Path_4621" d="M503.359 315.07a5.855 5.855 0 0 1-.061 8.818q-.241.2-.488.376" class="cls-23" data-name="Path 4621" transform="translate(-363.187 -250.338)"/>
            <path id="Path_4622" d="M300.084 314.83a6.352 6.352 0 0 0-.617.628 6.269 6.269 0 0 0 .678 8.838 5.924 5.924 0 0 0 .522.4" class="cls-23" data-name="Path 4622" transform="translate(-227.611 -250.179)"/>
            <path id="Path_4623" d="M400.39 342l2.207 7.058a3.029 3.029 0 0 1-1.987 3.8 3.027 3.027 0 0 1-3.79-1.984" class="cls-24" data-name="Path 4623" transform="translate(-293.043 -268.144)"/>
            <path id="Path_4624" d="M404.23 468.683v2.466s.268 4.467 5.9 3.351c4.818-.956 5.119-9.106 5.109-11.44a13.5 13.5 0 0 1-11.009 5.623z" class="cls-25" data-name="Path 4624" transform="translate(-297.952 -348.187)"/>
            <path id="Path_4625" d="M381.9 470.194a13.8 13.8 0 0 1-10.849-4.864c.071 2.981.719 9.8 5.1 10.67 5.631 1.116 5.9-3.351 5.9-3.351v-2.459z" class="cls-25" data-name="Path 4625" transform="translate(-275.992 -349.687)"/>
            <path id="Path_4626" d="M404.23 466.043v2.466s.268 4.467 5.9 3.351c4.818-.956 5.119-9.106 5.109-11.44a13.447 13.447 0 0 1-11.009 5.623z" class="cls-26" data-name="Path 4626" transform="translate(-297.952 -346.441)"/>
            <path id="Path_4627" d="M381.9 467.583a13.8 13.8 0 0 1-10.849-4.863c.071 2.981.719 9.8 5.1 10.67 5.631 1.116 5.9-3.351 5.9-3.351v-2.459z" class="cls-26" data-name="Path 4627" transform="translate(-275.992 -347.962)"/>
            <ellipse id="Ellipse_1374" cx="1.997" cy="1.998" class="cls-27" data-name="Ellipse 1374" rx="1.997" ry="1.998" transform="translate(90.363 64.625)"/>
            <ellipse id="Ellipse_1375" cx="1.997" cy="1.998" class="cls-27" data-name="Ellipse 1375" rx="1.997" ry="1.998" transform="translate(117.579 64.625)"/>
            <path id="Path_4628" d="M372.312 207.71h-11.188A25.146 25.146 0 0 0 348 211.393a38.383 38.383 0 0 0 49.7 25.545V233.1a25.463 25.463 0 0 0-25.388-25.39z" class="cls-22" data-name="Path 4628" transform="translate(-260.772 -179.326)"/>
            <path id="Path_4629" d="M350.376 166.38H326c-8.618 0-13.917 1.9-16.613 7.024a12.587 12.587 0 0 0-11.887 12.518v19.254h.539a24.239 24.239 0 0 0 20.761-11.725 53.407 53.407 0 0 0 50.37 11.192v-19.457a18.857 18.857 0 0 0-18.794-18.806z" class="cls-9" data-name="Path 4629" transform="translate(-227.362 -152.013)"/>
            <path id="Path_4630" d="M321.063 167.1c-5.764.678-9.534 2.713-11.666 6.783a12.587 12.587 0 0 0-11.9 12.5v19.254h.539a24.176 24.176 0 0 0 17.467-7.434 30.01 30.01 0 0 0 2.034-2.4 25.41 25.41 0 0 0 1.265-1.886l.031.027a28.891 28.891 0 0 0 2.221-26.861z" class="cls-6" data-name="Path 4630" transform="translate(-227.323 -152.476)"/>
            <path id="Path_4631" d="M305.31 254.671s7.716-.858 12.683-6.491" class="cls-28" data-name="Path 4631" transform="translate(-232.483 -206.071)"/>
            <path id="Path_4632" d="M373.18 240.34a39.061 39.061 0 0 0 23.9 10.626c15.046 1.18 17.111 0 17.111 0" class="cls-28" data-name="Path 4632" transform="translate(-277.431 -200.889)"/>
            <path id="Line_382" d="M0 0l6.984 12.067" class="cls-29" data-name="Line 382" transform="translate(52.693 162.091)"/>
            <path id="Path_4633" d="M192.92 594.312s.814 1.872 2.712 5.4h13.48a7.993 7.993 0 0 0 7.991-7.994 7.968 7.968 0 0 0-2.183-5.491l-4.234 2.374z" class="cls-22" data-name="Path 4633" transform="translate(-158.005 -429.626)"/>
            <path id="Path_4634" d="M204.107 536.191a3.731 3.731 0 0 0 0-7.441h-5.584v-.6h5.584a3.731 3.731 0 0 0 0-7.438h-5.845a2.57 2.57 0 0 0-2.316-1.455h-9.812a10.576 10.576 0 0 0-10.574 10.578v11.993a10.576 10.576 0 0 0 10.574 10.578h1.817a10.624 10.624 0 0 0 2.116-.21 3.881 3.881 0 0 0 .7.064h13.344a3.73 3.73 0 0 0 3.729-3.731 3.73 3.73 0 0 0-3.729-3.731h-6.021c.058-.2.108-.4.156-.6h5.854a3.73 3.73 0 0 0 3.729-3.731 3.73 3.73 0 0 0-3.729-3.731h-5.577v-.593z" class="cls-16" data-name="Path 4634" transform="translate(-146.531 -385.357)"/>
            <path id="Path_4635" d="M579.7 531.85s-3.729 3.768-8.978 9.049a6.639 6.639 0 0 0 6.5 6.6H592.4l2.736-3.052-2.373-11.684z" class="cls-22" data-name="Path 4635" transform="translate(-408.165 -393.672)"/>
            <rect id="Rectangle_2492" width="35.924" height="65.535" class="cls-30" data-name="Rectangle 2492" rx="13.99" transform="translate(145.565 89.763)"/>
            <ellipse id="Ellipse_1376" cx="1.892" cy="1.892" class="cls-19" data-name="Ellipse 1376" rx="1.892" ry="1.892" transform="translate(149.195 93.436)"/>
            <path id="Path_4636" d="M558.838 476.41H529.4a4.178 4.178 0 0 0 0 8.34 4.176 4.176 0 0 0 0 8.336 4.174 4.174 0 0 0 0 8.333 4.176 4.176 0 0 0 0 8.336h29.784a4.751 4.751 0 0 0 .536-2.188V476.41z" class="cls-31" data-name="Path 4636" transform="translate(-378.236 -357.025)"/>
            <path id="Path_4637" d="M568.486 471.41H533.4a4.178 4.178 0 0 0 0 8.34 4.176 4.176 0 0 0 0 8.336 4.174 4.174 0 0 0 0 8.333 4.176 4.176 0 0 0 0 8.336h35.083a7.355 7.355 0 0 0 7.12-7.546v-18.256a7.354 7.354 0 0 0-7.117-7.543z" class="cls-16" data-name="Path 4637" transform="translate(-380.903 -353.718)"/>
            <ellipse id="Ellipse_1377" cx="5.503" cy="5.504" class="cls-32" data-name="Ellipse 1377" rx="5.503" ry="5.504" transform="translate(14.108 109.012)"/>
            <path id="Path_4638" d="M169.475 412.373l.461.085-3.017 15.408-.461-.1a38.115 38.115 0 0 0-34.537 10.683l9.6-48.984h.02a38.131 38.131 0 0 0 27.934 22.908z" class="cls-12" data-name="Path 4638" transform="translate(-117.687 -299.546)"/>
            <path id="Path_4639" d="M136.789 460.63l31.686 6.325-1.556 7.943-.461-.1a38.116 38.116 0 0 0-34.537 10.684z" class="cls-33" data-name="Path 4639" transform="translate(-117.686 -346.586)"/>
            <rect id="Rectangle_2493" width="3.516" height="53.633" class="cls-34" data-name="Rectangle 2493" rx="1.758" transform="rotate(-168.91 14.45 69.99)"/>
            <path id="Path_4640" d="M5.848 0H13.8v17.8H5.849A5.85 5.85 0 0 1 0 11.948v-6.1A5.848 5.848 0 0 1 5.848 0z" class="cls-32" data-name="Path 4640" transform="rotate(-168.91 36.472 62.798)"/>
            <path id="Rectangle_2494" d="M0 0h85.131v9.863H0z" class="cls-35" data-name="Rectangle 2494" transform="translate(64.762 211.286)"/>
            <path id="Rectangle_2495" d="M0 0h91.193v9.863H0z" class="cls-36" data-name="Rectangle 2495" transform="translate(61.736 208.118)"/>
            <ellipse id="Ellipse_1378" cx="49.838" cy="3.252" class="cls-36" data-name="Ellipse 1378" rx="49.838" ry="3.252" transform="translate(59.797 259.937)"/>
            <path id="Path_4641" d="M336.745 758.81a1.746 1.746 0 0 0-.268.027c-2.373.437-25.478 6.9-48.387 6.63-23.241-.275-47.719-6.654-47.719-6.654a10.024 10.024 0 0 1-10.022-10.029 10.024 10.024 0 0 1 9.834-10.025 1.919 1.919 0 0 1 .368.03c2.75.532 27.072 7.322 47.536 6.919 20.386-.4 40.535-5.45 47.183-6.7a8.958 8.958 0 0 1 4.407.231 10.032 10.032 0 0 1 6.937 9.544 10.024 10.024 0 0 1-9.87 10.025z" class="cls-19" data-name="Path 4641" transform="translate(-182.941 -530.52)"/>
            <path id="Path_4642" d="M360.978 739.394a8.652 8.652 0 0 0-3.2-.383l-95.231 20.18c4.6 1.133 26.2 6.186 46.824 6.444 22.908.271 46-6.193 48.387-6.63a1.744 1.744 0 0 1 .268-.027 10.024 10.024 0 0 0 9.886-10.026 10.032 10.032 0 0 0-6.934-9.558z" class="cls-37" data-name="Path 4642" transform="translate(-204.255 -530.673)"/>
            <path id="Rectangle_2496" d="M0 0h9.979v20.658H0z" class="cls-15" data-name="Rectangle 2496" transform="rotate(10.15 -665.043 335.093)"/>
            <path id="Path_4643" d="M234.411 581.959L221.49 607.5s-8.252 13.02-16.823 0-11.748-20.326-11.748-20.326l17.779-5.718 10.791-6.034z" class="cls-16" data-name="Path 4643" transform="translate(-158.005 -422.494)"/>
            <path id="Rectangle_2497" d="M0 0h22.797v5.279H0z" class="cls-17" data-name="Rectangle 2497" transform="rotate(-170.4 47.362 79.662)"/>
            <path id="Path_4644" d="M533.159 510.79l-11.673 1.944s-11.429 17.9-20.02 30.958l-8.218-12.664a5.674 5.674 0 0 0-7.852-1.669l-6.638 4.311a5.682 5.682 0 0 0-1.671 7.855l14.436 22.245a5.71 5.71 0 0 0 1.061 1.211c1.7 2.126 4.746 3.812 8.011 5.888 6.913 4.409 10.625-4.453 10.625-4.453l26.34-46.234z" class="cls-16" data-name="Path 4644" transform="translate(-345.639 -379.776)"/>
            <path id="Path_4645" d="M11.38 0h.051a11.373 11.373 0 0 1 11.374 11.377V47.39H.005L0 11.379A11.38 11.38 0 0 1 11.38 0z" class="cls-18" data-name="Path 4645" transform="rotate(-19.78 415.782 -280.295)"/>
            <path id="Rectangle_2498" d="M0 0h22.797v5.274H0z" class="cls-17" data-name="Rectangle 2498" transform="rotate(-19.78 536.645 -301.29)"/>
            <path id="Path_4646" d="M628.719 427.7a36.6 36.6 0 0 1 1.617-9.266 5.276 5.276 0 1 0-8.639-4.836h-.027s-3.587 6.878-3.926 12.776a61.451 61.451 0 0 0 .088 9.659l16.013 2.571s-5.126-5.138-5.126-10.904z" class="cls-16" data-name="Path 4646" transform="translate(-439.19 -312.545)"/>
            <path id="Path_4647" d="M292.314 467.14s-15.256 1.292-19.376 10.148-7.228 31.284-7.228 31.284l28.021 5z" class="cls-18" data-name="Path 4647" transform="translate(-206.282 -350.903)"/>
            <path id="Path_4648" d="M357.278 460.441l-23.665-4.721-18.749 3.826a13.764 13.764 0 0 0-13.721 13.726l-2.8 80.9c0 3.68 4.574 3.68 7.957 3.68h56.371c3.678 0 8.252 0 8.252-3.68l-2.8-82.869a10.875 10.875 0 0 0-10.845-10.862z" class="cls-19" data-name="Path 4648" transform="translate(-227.919 -343.395)"/>
            <path id="Line_383" d="M0 0l.59 72.898" class="cls-20" data-name="Line 383" transform="translate(105.794 129.595)"/>
            <path id="Line_384" d="M0 0h12.687" class="cls-20" data-name="Line 384" transform="translate(117.259 143.794)"/>
            <rect id="Rectangle_2499" width="71.251" height="20.068" class="cls-21" data-name="Rectangle 2499" rx="10.034" transform="translate(70.423 48.107)"/>
            <ellipse id="Ellipse_1379" cx="8.998" cy="9.001" class="cls-16" data-name="Ellipse 1379" rx="8.998" ry="9.001" transform="translate(67.674 60.196)"/>
            <ellipse id="Ellipse_1380" cx="8.998" cy="9.001" class="cls-16" data-name="Ellipse 1380" rx="8.998" ry="9.001" transform="translate(127.109 60.196)"/>
            <rect id="Rectangle_2500" width="19.766" height="22.432" class="cls-16" data-name="Rectangle 2500" rx="9.883" transform="translate(95.919 99.114)"/>
            <path id="Path_4649" d="M477.365 319.322v-17.3a9 9 0 1 0 0 17.3z" class="cls-22" data-name="Path 4649" transform="translate(-338.741 -241.479)"/>
            <path id="Path_4650" d="M389.846 413.08H377.16a3.55 3.55 0 0 0-3.54 3.541v9.252a25.081 25.081 0 0 0 19.766-.132v-9.12a3.55 3.55 0 0 0-3.54-3.541z" class="cls-22" data-name="Path 4650" transform="translate(-277.701 -315.142)"/>
            <path id="Path_4651" d="M310.579 301.69a8.942 8.942 0 0 0-3.1.549v16.907a9 9 0 1 0 3.1-17.456z" class="cls-22" data-name="Path 4651" transform="translate(-233.919 -241.494)"/>
            <rect id="Rectangle_2501" width="61.955" height="73.488" class="cls-16" data-name="Rectangle 2501" rx="30.977" transform="translate(74.991 33.105)"/>
            <path id="Path_4652" d="M503.359 315.07a5.855 5.855 0 0 1-.061 8.818q-.241.2-.488.376" class="cls-23" data-name="Path 4652" transform="translate(-363.187 -250.338)"/>
            <path id="Path_4653" d="M300.084 314.83a6.352 6.352 0 0 0-.617.628 6.269 6.269 0 0 0 .678 8.838 5.924 5.924 0 0 0 .522.4" class="cls-23" data-name="Path 4653" transform="translate(-227.611 -250.179)"/>
            <path id="Path_4654" d="M400.39 342l2.207 7.058a3.029 3.029 0 0 1-1.987 3.8 3.027 3.027 0 0 1-3.79-1.984" class="cls-24" data-name="Path 4654" transform="translate(-293.043 -268.144)"/>
            <path id="Path_4655" d="M404.23 468.683v2.466s.268 4.467 5.9 3.351c4.818-.956 5.119-9.106 5.109-11.44a13.5 13.5 0 0 1-11.009 5.623z" class="cls-25" data-name="Path 4655" transform="translate(-297.952 -348.187)"/>
            <path id="Path_4656" d="M381.9 470.194a13.8 13.8 0 0 1-10.849-4.864c.071 2.981.719 9.8 5.1 10.67 5.631 1.116 5.9-3.351 5.9-3.351v-2.459z" class="cls-25" data-name="Path 4656" transform="translate(-275.992 -349.687)"/>
            <path id="Path_4657" d="M404.23 466.043v2.466s.268 4.467 5.9 3.351c4.818-.956 5.119-9.106 5.109-11.44a13.447 13.447 0 0 1-11.009 5.623z" class="cls-26" data-name="Path 4657" transform="translate(-297.952 -346.441)"/>
            <path id="Path_4658" d="M381.9 467.583a13.8 13.8 0 0 1-10.849-4.863c.071 2.981.719 9.8 5.1 10.67 5.631 1.116 5.9-3.351 5.9-3.351v-2.459z" class="cls-26" data-name="Path 4658" transform="translate(-275.992 -347.962)"/>
            <ellipse id="Ellipse_1381" cx="2.166" cy=".424" class="cls-27" data-name="Ellipse 1381" rx="2.166" ry=".424" transform="translate(89.034 66.32)"/>
            <ellipse id="Ellipse_1382" cx="2.166" cy=".424" class="cls-27" data-name="Ellipse 1382" rx="2.166" ry=".424" transform="translate(118.57 66.32)"/>
            <path id="Path_4659" d="M372.312 207.71h-11.188A25.146 25.146 0 0 0 348 211.393a38.383 38.383 0 0 0 49.7 25.545V233.1a25.463 25.463 0 0 0-25.388-25.39z" class="cls-22" data-name="Path 4659" transform="translate(-260.772 -179.326)"/>
            <path id="Path_4660" d="M350.376 166.38H326c-8.618 0-13.917 1.9-16.613 7.024a12.587 12.587 0 0 0-11.887 12.518v19.254h.539a24.239 24.239 0 0 0 20.761-11.725 53.407 53.407 0 0 0 50.37 11.192v-19.457a18.857 18.857 0 0 0-18.794-18.806z" class="cls-9" data-name="Path 4660" transform="translate(-227.362 -152.013)"/>
            <path id="Path_4661" d="M321.063 167.1c-5.764.678-9.534 2.713-11.666 6.783a12.587 12.587 0 0 0-11.9 12.5v19.254h.539a24.176 24.176 0 0 0 17.467-7.434 30.01 30.01 0 0 0 2.034-2.4 25.41 25.41 0 0 0 1.265-1.886l.031.027a28.891 28.891 0 0 0 2.221-26.861z" class="cls-6" data-name="Path 4661" transform="translate(-227.323 -152.476)"/>
            <path id="Path_4662" d="M305.31 254.671s7.716-.858 12.683-6.491" class="cls-28" data-name="Path 4662" transform="translate(-232.483 -206.071)"/>
            <path id="Path_4663" d="M373.18 240.34a39.061 39.061 0 0 0 23.9 10.626c15.046 1.18 17.111 0 17.111 0" class="cls-28" data-name="Path 4663" transform="translate(-277.431 -200.889)"/>
            <path id="Line_385" d="M0 0l6.984 12.067" class="cls-29" data-name="Line 385" transform="translate(52.693 162.091)"/>
            <path id="Path_4664" d="M192.92 594.312s.814 1.872 2.712 5.4h13.48a7.993 7.993 0 0 0 7.991-7.994 7.968 7.968 0 0 0-2.183-5.491l-4.234 2.374z" class="cls-22" data-name="Path 4664" transform="translate(-158.005 -429.626)"/>
            <path id="Path_4665" d="M204.107 536.191a3.731 3.731 0 0 0 0-7.441h-5.584v-.6h5.584a3.731 3.731 0 0 0 0-7.438h-5.845a2.57 2.57 0 0 0-2.316-1.455h-9.812a10.576 10.576 0 0 0-10.574 10.578v11.993a10.576 10.576 0 0 0 10.574 10.578h1.817a10.624 10.624 0 0 0 2.116-.21 3.881 3.881 0 0 0 .7.064h13.344a3.73 3.73 0 0 0 3.729-3.731 3.73 3.73 0 0 0-3.729-3.731h-6.021c.058-.2.108-.4.156-.6h5.854a3.73 3.73 0 0 0 3.729-3.731 3.73 3.73 0 0 0-3.729-3.731h-5.577v-.593z" class="cls-16" data-name="Path 4665" transform="translate(-146.531 -385.357)"/>
            <path id="Path_4666" d="M579.7 531.85s-3.729 3.768-8.978 9.049a6.639 6.639 0 0 0 6.5 6.6H592.4l2.736-3.052-2.373-11.684z" class="cls-22" data-name="Path 4666" transform="translate(-408.165 -393.672)"/>
            <rect id="Rectangle_2502" width="35.924" height="65.535" class="cls-30" data-name="Rectangle 2502" rx="13.99" transform="translate(145.565 89.763)"/>
            <ellipse id="Ellipse_1383" cx="1.892" cy="1.892" class="cls-19" data-name="Ellipse 1383" rx="1.892" ry="1.892" transform="translate(149.195 93.436)"/>
            <path id="Path_4667" d="M558.838 476.41H529.4a4.178 4.178 0 0 0 0 8.34 4.176 4.176 0 0 0 0 8.336 4.174 4.174 0 0 0 0 8.333 4.176 4.176 0 0 0 0 8.336h29.784a4.751 4.751 0 0 0 .536-2.188V476.41z" class="cls-31" data-name="Path 4667" transform="translate(-378.236 -357.025)"/>
            <path id="Path_4668" d="M568.486 471.41H533.4a4.178 4.178 0 0 0 0 8.34 4.176 4.176 0 0 0 0 8.336 4.174 4.174 0 0 0 0 8.333 4.176 4.176 0 0 0 0 8.336h35.083a7.355 7.355 0 0 0 7.12-7.546v-18.256a7.354 7.354 0 0 0-7.117-7.543z" class="cls-16" data-name="Path 4668" transform="translate(-380.903 -353.718)"/>
            <ellipse id="Ellipse_1384" cx="5.503" cy="5.504" class="cls-32" data-name="Ellipse 1384" rx="5.503" ry="5.504" transform="translate(14.108 109.012)"/>
            <path id="Path_4669" d="M169.475 412.373l.461.085-3.017 15.408-.461-.1a38.115 38.115 0 0 0-34.537 10.683l9.6-48.984h.02a38.131 38.131 0 0 0 27.934 22.908z" class="cls-12" data-name="Path 4669" transform="translate(-117.687 -299.546)"/>
            <path id="Path_4670" d="M136.789 460.63l31.686 6.325-1.556 7.943-.461-.1a38.116 38.116 0 0 0-34.537 10.684z" class="cls-33" data-name="Path 4670" transform="translate(-117.686 -346.586)"/>
            <rect id="Rectangle_2503" width="3.516" height="53.633" class="cls-34" data-name="Rectangle 2503" rx="1.758" transform="rotate(-168.91 14.45 69.99)"/>
            <path id="Path_4671" d="M5.848 0H13.8v17.8H5.849A5.85 5.85 0 0 1 0 11.948v-6.1A5.848 5.848 0 0 1 5.848 0z" class="cls-32" data-name="Path 4671" transform="rotate(-168.91 36.472 62.798)"/>
            <path id="Rectangle_2504" d="M0 0h85.131v9.863H0z" class="cls-35" data-name="Rectangle 2504" transform="translate(64.762 211.286)"/>
            <path id="Rectangle_2505" d="M0 0h91.193v9.863H0z" class="cls-36" data-name="Rectangle 2505" transform="translate(61.736 208.118)"/>
            <ellipse id="Ellipse_1385" cx="49.838" cy="3.252" class="cls-36" data-name="Ellipse 1385" rx="49.838" ry="3.252" transform="translate(59.797 259.937)"/>
            <path id="Path_4672" d="M336.745 758.81a1.746 1.746 0 0 0-.268.027c-2.373.437-25.478 6.9-48.387 6.63-23.241-.275-47.719-6.654-47.719-6.654a10.024 10.024 0 0 1-10.022-10.029 10.024 10.024 0 0 1 9.834-10.025 1.919 1.919 0 0 1 .368.03c2.75.532 27.072 7.322 47.536 6.919 20.386-.4 40.535-5.45 47.183-6.7a8.958 8.958 0 0 1 4.407.231 10.032 10.032 0 0 1 6.937 9.544 10.024 10.024 0 0 1-9.87 10.025z" class="cls-19" data-name="Path 4672" transform="translate(-182.941 -530.52)"/>
            <path id="Path_4673" d="M360.978 739.394a8.652 8.652 0 0 0-3.2-.383l-95.231 20.18c4.6 1.133 26.2 6.186 46.824 6.444 22.908.271 46-6.193 48.387-6.63a1.744 1.744 0 0 1 .268-.027 10.024 10.024 0 0 0 9.886-10.026 10.032 10.032 0 0 0-6.934-9.558z" class="cls-37" data-name="Path 4673" transform="translate(-204.255 -530.673)"/>
        </g>
        <path id="Rectangle_2506" d="M0 0h536v467H0z" class="cls-38" data-name="Rectangle 2506"/>
    </g>
</svg>
