<svg xmlns="http://www.w3.org/2000/svg" width="536" height="203" viewBox="0 0 536 203">
    <defs>
        <style>
            .cls-1,.cls-8{fill:none}.cls-2{clip-path:url(#clip-path)}.cls-3{fill:#ffb471}.cls-4{fill:#ff004a}.cls-4,.cls-6,.cls-7{opacity:.502}.cls-5{fill:#ff914a}.cls-6{fill:#ff4a4b}.cls-7{fill:#911a52}.cls-11,.cls-9{fill:#fff}.cls-10,.cls-11{stroke:none}
        </style>
        <clipPath id="clip-path">
            <path id="Rectangle_1611" d="M8 0h520a8 8 0 0 1 8 8v195H0V8a8 8 0 0 1 8-8z" class="cls-1" data-name="Rectangle 1611" transform="translate(0 5)"/>
        </clipPath>
    </defs>
    <g id="banner_challenge_vs_full" data-name="banner challenge + vs full" transform="translate(0 -5)">
        <g id="banner_challenge_full" class="cls-2" data-name="banner challenge full">
            <g id="Mask_by_Rectangle" data-name="Mask by Rectangle" transform="translate(2.926 102.049)">
                <path id="Rectangle" d="M0 0h556v220H0z" class="cls-3" transform="translate(-13.926 -101.049)"/>
                <path id="Rectangle-2" d="M1623.335 1387H1860.1v309.806l-607.089 30.694c-48.151 2.435-60.693-15.489-28.057-40.1l398.381-300.4z" class="cls-4" data-name="Rectangle" transform="translate(-655.08 -1554.167)"/>
                <path id="Rectangle-3" d="M1808.663 1577.835l-532.246-39.235c-48.007-3.539-72.7 18.765-55.235 49.9l128.966 229.91h477.271l50.85-174.967c9.515-32.743-21.6-62.069-69.606-65.608z" class="cls-5" data-name="Rectangle" transform="translate(-630.524 -1308.349)"/>
                <path id="Oval" d="M1033.289 1547.3c0-104.933 799.74-217.227 951.051-217.227s-34.9 279.552-377.8 305.571-191.591 153.692-342.9 153.692-230.351-137.101-230.351-242.036z" class="cls-6" transform="translate(-1140.177 -1646.698)"/>
                <path id="Triangle" d="M1241.154 1713.773c-190.211 171.844 37.993 68.744-218.131 228.832l797.487-12.814c-57.96-127.219-72.42-109.522-224.238-162.77s244.42-288.725 168.4-300.125-333.309 75.031-523.518 246.877z" class="cls-7" transform="translate(-1168.879 -1425.921)"/>
            </g>
        </g>
        <g id="Group_1055" data-name="Group 1055" transform="translate(-80 -875)">
            <g id="vs" transform="translate(320 960)">
                <g id="Path_1529" class="cls-8" data-name="Path 1529">
                    <path d="M-16.5-447.992V-476h56v28.008L11.5-420z" class="cls-10" transform="translate(16.5 476)"/>
                    <path d="M11.503-422.828L37.5-448.821V-474h-52v25.18l26.003 25.992m0 2.828L-16.5-447.992V-476h56v28.008L11.503-420z" class="cls-11" transform="translate(16.5 476)"/>
                </g>
                <path id="Path_1527" d="M10.966-17.326H14.4L9.005-1.843H5.887L.551-17.326h3.525L7.505-5.572zm7.78 10.7a3.142 3.142 0 0 0 .589 1.586 3.429 3.429 0 0 0 2.754.956 5.921 5.921 0 0 0 1.9-.252 1.8 1.8 0 0 0 1.382-1.8 1.32 1.32 0 0 0-.686-1.187 7.473 7.473 0 0 0-2.154-.725l-1.672-.368a10.7 10.7 0 0 1-3.408-1.187 3.749 3.749 0 0 1-1.6-3.351A4.435 4.435 0 0 1 17.4-16.4a6.612 6.612 0 0 1 4.533-1.376 6.987 6.987 0 0 1 4.259 1.3 4.6 4.6 0 0 1 1.848 3.766h-3.175a2.217 2.217 0 0 0-1.243-1.99 4.24 4.24 0 0 0-1.918-.389 3.637 3.637 0 0 0-2.036.5 1.6 1.6 0 0 0-.761 1.408 1.329 1.329 0 0 0 .75 1.239 9.312 9.312 0 0 0 2.057.641l2.722.641a7.11 7.11 0 0 1 2.7 1.124 3.754 3.754 0 0 1 1.415 3.166A4.426 4.426 0 0 1 26.9-2.846a7.031 7.031 0 0 1-4.677 1.4 7.7 7.7 0 0 1-4.854-1.381 4.554 4.554 0 0 1-1.768-3.8z" class="cls-9" data-name="Path 1527" transform="translate(13.449 31.781)"/>
            </g>
            <path id="Rectangle_1639" d="M0 0h536v2H0z" class="cls-9" data-name="Rectangle 1639" transform="translate(80 960)"/>
        </g>
    </g>
</svg>
