<svg xmlns="http://www.w3.org/2000/svg" width="36.6" height="36.601" viewBox="0 0 36.6 36.601">
    <defs>
        <style>
            .cls-1{fill:none}.cls-2{fill:#f6b42a}.cls-3,.cls-4{stroke:none}.cls-4{fill:#ececec}
        </style>
    </defs>
    <g id="Group_982" data-name="Group 982">
        <g id="Path_1529" class="cls-1" data-name="Path 1529">
            <path d="M-16.5-457.695V-476h36.6v18.305L1.8-439.4z" class="cls-3" transform="translate(16.5 476)"/>
            <path d="M1.802-440.814L19.1-458.109V-475h-34.6v16.891l17.302 17.295m0 1.414L-16.5-457.695V-476h36.6v18.305L1.802-439.4z" class="cls-4" transform="translate(16.5 476)"/>
        </g>
        <path id="Path_1527" d="M7.358-17.482H9.6L6.076-7.363H4.038L.551-17.482h2.3L5.1-9.8zm5.084 7a2.053 2.053 0 0 0 .385 1.037 2.241 2.241 0 0 0 1.8.625 3.87 3.87 0 0 0 1.24-.165 1.178 1.178 0 0 0 .9-1.174.863.863 0 0 0-.448-.776 4.884 4.884 0 0 0-1.408-.474l-1.093-.24a6.992 6.992 0 0 1-2.218-.781 2.45 2.45 0 0 1-1.044-2.19 2.9 2.9 0 0 1 1.008-2.259 4.321 4.321 0 0 1 2.962-.9 4.567 4.567 0 0 1 2.784.848 3.006 3.006 0 0 1 1.208 2.461h-2.076a1.449 1.449 0 0 0-.812-1.3 2.771 2.771 0 0 0-1.254-.254 2.377 2.377 0 0 0-1.331.33 1.044 1.044 0 0 0-.5.92.868.868 0 0 0 .49.81 6.086 6.086 0 0 0 1.345.419l1.779.419a4.647 4.647 0 0 1 1.765.735 2.453 2.453 0 0 1 .924 2.066 2.893 2.893 0 0 1-1.082 2.3 4.6 4.6 0 0 1-3.057.916 5.029 5.029 0 0 1-3.173-.9 2.976 2.976 0 0 1-1.156-2.482z" class="cls-2" data-name="Path 1527" transform="translate(8.599 26.93)"/>
    </g>
</svg>
