<svg xmlns="http://www.w3.org/2000/svg" width="24" height="24" viewBox="0 0 24 24">
    <defs>
        <style>
            .cls-1{fill:none}
        </style>
    </defs>
    <g id="outline-lawan-debate-konfirmasi-24px" transform="translate(-76 17)">
        <path id="Rectangle_165" d="M0 0h24v24H0z" class="cls-1" data-name="Rectangle 165" transform="translate(76 -17)"/>
        <path id="Path_1950" d="M8 20.8L5.46 17H2V4h16v13h-7.46zM4 15h2.54L8 17.2 9.46 15H16V6H4z" data-name="Path 1950" transform="translate(76 -17)"/>
        <path id="Path_1951" d="M22 21H12v-2h8V8h2z" data-name="Path 1951" transform="translate(76 -17)"/>
        <path id="Rectangle_166" d="M0 0h2v2H0z" data-name="Rectangle 166" transform="translate(82 -9)"/>
        <path id="Rectangle_167" d="M0 0h2v2H0z" data-name="Rectangle 167" transform="translate(85 -9)"/>
        <path id="Rectangle_168" d="M0 0h2v2H0z" data-name="Rectangle 168" transform="translate(88 -9)"/>
    </g>
</svg>
