<svg xmlns="http://www.w3.org/2000/svg" viewBox="0 0 24 24">
    <defs>
        <style>
            .cls-1{fill:none}.cls-2{fill:#4f4f4f}
        </style>
    </defs>
    <g id="baseline-event_available-24px">
        <path id="Path_21" d="M0 0h24v24H0z" class="cls-1" data-name="Path 21"/>
        <path id="Path_22" d="M16.53 11.06L15.47 10l-4.88 4.88-2.12-2.12-1.06 1.06L10.59 17l5.94-5.94zM19 3h-1V1h-2v2H8V1H6v2H5a1.991 1.991 0 0 0-1.99 2L3 19a2 2 0 0 0 2 2h14a2.006 2.006 0 0 0 2-2V5a2.006 2.006 0 0 0-2-2zm0 16H5V8h14z" class="cls-2" data-name="Path 22"/>
    </g>
</svg>
