<svg xmlns="http://www.w3.org/2000/svg" width="24" height="24" viewBox="0 0 24 24">
    <defs>
        <style>
            .cls-1{fill:#475993}
        </style>
    </defs>
    <path id="facebook" d="M20.768 0H3.236A3.234 3.234 0 0 0 0 3.234v17.532A3.234 3.234 0 0 0 3.236 24h8.647l.015-8.576H9.669a.526.526 0 0 1-.526-.524l-.011-2.765a.526.526 0 0 1 .526-.528h2.224v-2.67c0-3.1 1.893-4.788 4.659-4.788h2.269a.526.526 0 0 1 .526.526v2.331a.526.526 0 0 1-.525.526h-1.393c-1.5 0-1.8.715-1.8 1.763v2.313h3.3a.526.526 0 0 1 .522.588l-.328 2.765a.526.526 0 0 1-.522.464h-2.952L15.623 24h5.145A3.234 3.234 0 0 0 24 20.766V3.234A3.234 3.234 0 0 0 20.768 0z" class="cls-1" transform="translate(-.002)"/>
</svg>
