<?xml version="1.0" encoding="utf-8"?>
<!-- Generator: Adobe Illustrator 22.0.0, SVG Export Plug-In . SVG Version: 6.00 Build 0)  -->
<svg version="1.1" id="flat-twitter_badge-72px" xmlns="http://www.w3.org/2000/svg" xmlns:xlink="http://www.w3.org/1999/xlink"
	 x="0px" y="0px" viewBox="0 0 36 36" style="enable-background:new 0 0 36 36;" xml:space="preserve">
<style type="text/css">
	.st0{fill:#059FF5;}
	.st1{fill:#FFFFFF;}
	.st2{fill:none;}
</style>
<g id="ic_twitter_circle" transform="translate(4.5 4.5)">
	<g id="_1.4-Buzzer-_task-Detail_">
		<g id="Task-Detail">
			<g id="Task-Detail-2">
				<g id="Group-3-Copy">
					<g id="Group-7-Copy">
						<g id="ic_twitter_circle-2">
							<circle id="Oval-Copy" class="st0" cx="13.5" cy="13.5" r="17.9"/>
							<path id="Shape-Copy" class="st1" d="M20.3,9.2c0.8-0.5,1.3-1.3,1.6-2.1c-0.7,0.4-1.5,0.8-2.3,0.9c-0.7-0.8-1.7-1.2-2.7-1.2
								c-2.1,0.1-3.7,1.8-3.7,3.9c0,0,0,0,0,0c0,0.3,0,0.6,0.1,0.9c-3-0.2-5.8-1.7-7.6-4C5.5,8.1,5.3,8.8,5.3,9.4
								c0,1.3,0.6,2.5,1.6,3.2c-0.6,0-1.2-0.2-1.7-0.5v0c0,1.8,1.2,3.4,2.9,3.8c-0.3,0.1-0.6,0.1-1,0.1c-0.2,0-0.5,0-0.7-0.1
								c0.4,1.5,1.8,2.6,3.4,2.7c-1.3,1.1-2.9,1.7-4.6,1.7c-0.3,0-0.6,0-0.9-0.1c1.7,1.1,3.6,1.7,5.6,1.7c6.8,0,10.4-5.9,10.4-11
								c0-0.2,0-0.3,0-0.5c0.7-0.6,1.3-1.2,1.8-2C21.8,8.9,21.1,9.1,20.3,9.2z"/>
						</g>
					</g>
				</g>
			</g>
		</g>
	</g>
</g>
<path id="Rectangle_89" class="st2" d="M0,0h36v36H0V0z"/>
</svg>
