<svg xmlns="http://www.w3.org/2000/svg" width="23" height="23" viewBox="0 0 23 23">
    <defs>
        <style>
            .cls-1{fill:#059ff5;stroke:#fafafc}.cls-2{fill:#fff;fill-rule:evenodd}
        </style>
    </defs>
    <g id="ic_twitter_circle" transform="translate(-1.5 -1.5)">
        <g id="_1.4-Buzzer-_task-Detail_" data-name="1.4-Buzzer-(task-Detail)" transform="translate(-46 -367)">
            <g id="Task-Detail" transform="translate(0 219)">
                <g id="Task-Detail-2" transform="translate(0 107)">
                    <g id="Group-3-Copy" transform="translate(20 15)">
                        <g id="Group-7-Copy">
                            <g id="ic_twitter_circle-2" data-name="ic_twitter_circle" transform="translate(28 28)">
                                <circle id="Oval-Copy" cx="11" cy="11" r="11" class="cls-1"/>
                                <path id="Shape-Copy" d="M15.2 8.366a2.362 2.362 0 0 0 1-1.317 4.377 4.377 0 0 1-1.433.577 2.2 2.2 0 0 0-1.647-.752 2.32 2.32 0 0 0-2.256 2.38 2.49 2.49 0 0 0 .057.542A6.3 6.3 0 0 1 6.266 7.31a2.474 2.474 0 0 0-.305 1.2 2.418 2.418 0 0 0 1 1.982 2.176 2.176 0 0 1-1.023-.3v.029a2.352 2.352 0 0 0 1.811 2.334 2.1 2.1 0 0 1-.6.084 2.122 2.122 0 0 1-.424-.042 2.276 2.276 0 0 0 2.108 1.653 4.381 4.381 0 0 1-2.8 1.019 4.262 4.262 0 0 1-.538-.033A6.153 6.153 0 0 0 8.959 16.3a6.57 6.57 0 0 0 6.42-6.772c0-.1 0-.206-.006-.308A4.717 4.717 0 0 0 16.5 7.991a4.325 4.325 0 0 1-1.3.375z" class="cls-2"/>
                            </g>
                        </g>
                    </g>
                </g>
            </g>
        </g>
    </g>
</svg>
