<?xml version="1.0" encoding="utf-8"?>
<!-- Generator: Adobe Illustrator 22.0.0, SVG Export Plug-In . SVG Version: 6.00 Build 0)  -->
<svg version="1.1" id="Layer_1" xmlns="http://www.w3.org/2000/svg" xmlns:xlink="http://www.w3.org/1999/xlink" x="0px" y="0px"
	 viewBox="0 0 24 24" style="enable-background:new 0 0 24 24;" xml:space="preserve">
<style type="text/css">
	.st0{fill:#059FF5;}
	.st1{fill:#FFFFFF;}
</style>
<g id="ic_twitter_circle" transform="translate(4.5 4.5)">
	<g id="_1.4-Buzzer-_task-Detail_">
		<g id="Task-Detail">
			<g id="Task-Detail-2">
				<g id="Group-3-Copy">
					<g id="Group-7-Copy">
						<g id="ic_twitter_circle-2">
							<circle id="Oval-Copy" class="st0" cx="7.5" cy="7.5" r="12"/>
							<path id="Shape-Copy" class="st1" d="M12.1,4.6c0.5-0.3,0.9-0.8,1.1-1.4c-0.5,0.3-1,0.5-1.6,0.6C11.1,3.3,10.5,3,9.8,3
								c-1.4,0-2.5,1.2-2.5,2.6c0,0,0,0,0,0c0,0.2,0,0.4,0.1,0.6c-2-0.1-3.8-1.1-5.1-2.7C2.1,3.9,2,4.3,2,4.8c0,0.9,0.4,1.7,1.1,2.2
								C2.7,6.9,2.3,6.8,2,6.6v0c0,1.2,0.8,2.3,2,2.5C3.8,9.2,3.5,9.3,3.3,9.3c-0.2,0-0.3,0-0.5,0c0.3,1,1.2,1.8,2.3,1.8
								c-0.9,0.7-1.9,1.1-3,1.1c-0.2,0-0.4,0-0.6,0c1.1,0.8,2.4,1.2,3.8,1.2c4.5,0,7-3.9,7-7.4c0-0.1,0-0.2,0-0.3
								c0.5-0.4,0.9-0.8,1.2-1.3C13,4.4,12.6,4.6,12.1,4.6z"/>
						</g>
					</g>
				</g>
			</g>
		</g>
	</g>
</g>
</svg>
