<svg xmlns="http://www.w3.org/2000/svg" viewBox="0 0 11.022 16">
    <defs>
        <style>
            .cls-1{fill:#111}
        </style>
    </defs>
    <g id="facebook-placeholder-for-locate-places-on-maps" transform="translate(861.095 -207)">
        <path id="Facebook_Places" d="M77.667 3.982a4.985 4.985 0 0 0-.258-.64A5.481 5.481 0 0 0 66.9 4.963v.683c0 .028.01.284.024.413.2 1.593 1.456 3.285 2.395 4.878 1.01 1.706 2.058 3.385 3.1 5.063l1.9-3.271c.17-.313.368-.626.539-.925.114-.2.331-.4.43-.583 1.01-1.849 2.635-3.712 2.635-5.547v-.753a5.678 5.678 0 0 0-.256-.939zM72.386 7.41a1.956 1.956 0 0 1-1.873-1.337 1.855 1.855 0 0 1-.053-.5v-.439a1.852 1.852 0 0 1 1.987-1.82 2.014 2.014 0 0 1 2.018 2.048 2.066 2.066 0 0 1-2.079 2.048z" class="cls-1" transform="translate(-928 207)"/>
    </g>
</svg>
