<?xml version="1.0" encoding="utf-8"?>
<!-- Generator: Adobe Illustrator 22.0.0, SVG Export Plug-In . SVG Version: 6.00 Build 0)  -->
<svg version="1.1" id="Layer_1" xmlns="http://www.w3.org/2000/svg" xmlns:xlink="http://www.w3.org/1999/xlink" x="0px" y="0px"
	 viewBox="0 0 24 24" style="enable-background:new 0 0 24 24;" xml:space="preserve">
<style type="text/css">
	.st0{fill:#111111;}
</style>
<path id="Path_1522" class="st0" d="M11.9,2.8C7,2.8,3,6.8,3,11.7s4,8.9,8.9,8.9s8.9-4,8.9-8.9l0,0C20.8,6.8,16.8,2.8,11.9,2.8z
	 M11.9,18.8c-3.9,0-7.1-3.2-7.1-7.1S8,4.6,11.9,4.6S19,7.8,19,11.7l0,0C19,15.6,15.8,18.8,11.9,18.8z"/>
<path id="Path_1523" class="st0" d="M14.7,7.5l-2.9,2.9L8.8,7.5L7.6,8.8l2.9,2.9l-2.9,2.9l1.3,1.3l2.9-2.9l2.9,2.9l1.3-1.3L13,11.7
	l2.9-2.9L14.7,7.5z"/>
</svg>
