<?xml version="1.0" encoding="utf-8"?>
<!-- Generator: Adobe Illustrator 22.0.0, SVG Export Plug-In . SVG Version: 6.00 Build 0)  -->
<svg version="1.1" id="Layer_1" xmlns="http://www.w3.org/2000/svg" xmlns:xlink="http://www.w3.org/1999/xlink" x="0px" y="0px"
	 viewBox="0 0 19.1 19.6" style="enable-background:new 0 0 19.1 19.6;" xml:space="preserve">
<style type="text/css">
	.st0{fill:#7C7C7C;}
</style>
<path id="Path_119" class="st0" d="M13.3,12.1h-0.8l-0.3-0.3c2.4-2.8,2.1-7-0.7-9.4s-7-2.1-9.4,0.7s-2.1,7,0.7,9.4
	c2.5,2.1,6.2,2.1,8.7,0l0.3,0.3v0.8l5.1,5.1l1.5-1.5L13.3,12.1z M7.2,12.1c-2.5,0-4.6-2.1-4.6-4.6S4.7,3,7.2,3s4.6,2.1,4.6,4.6
	C11.8,10.1,9.7,12.1,7.2,12.1C7.2,12.1,7.2,12.1,7.2,12.1L7.2,12.1z"/>
</svg>
