<svg xmlns="http://www.w3.org/2000/svg" xmlns:xlink="http://www.w3.org/1999/xlink" viewBox="0 0 258 124.5">
    <defs>
        <style>
            .cls-1{fill:url(#linear-gradient)}.cls-2{fill:url(#linear-gradient-2)}.cls-3{fill:url(#linear-gradient-3)}.cls-4,.cls-42,.cls-53,.cls-54{opacity:.5}.cls-4{fill:url(#linear-gradient-4)}.cls-5{fill:#ffebef;opacity:.806}.cls-6{fill:url(#linear-gradient-5)}.cls-7{fill:#98bbe9}.cls-8{fill:#eb3037}.cls-9{fill:#e97175}.cls-10{fill:url(#linear-gradient-6)}.cls-11{fill:#5ace87}.cls-12{fill:#009175}.cls-13{fill:url(#linear-gradient-7)}.cls-14{fill:url(#linear-gradient-8)}.cls-15{fill:url(#linear-gradient-9)}.cls-16{fill:url(#linear-gradient-10)}.cls-17{fill:#feb957}.cls-18{fill:url(#linear-gradient-11)}.cls-19{fill:url(#linear-gradient-12)}.cls-20{fill:url(#linear-gradient-13)}.cls-21{fill:url(#linear-gradient-14)}.cls-22,.cls-35{fill:none;stroke-linecap:round;stroke-linejoin:round}.cls-22{stroke:#e97175;stroke-width:2px;stroke-dasharray:10 10}.cls-22,.cls-35,.cls-59,.cls-60{stroke-miterlimit:10}.cls-23{fill:url(#linear-gradient-17)}.cls-24{fill:url(#linear-gradient-18)}.cls-25{fill:url(#linear-gradient-19)}.cls-26{fill:url(#linear-gradient-20)}.cls-27{fill:url(#linear-gradient-21)}.cls-28{fill:url(#linear-gradient-22)}.cls-29{fill:url(#linear-gradient-23)}.cls-30{fill:url(#linear-gradient-24)}.cls-31{fill:url(#linear-gradient-25)}.cls-32{fill:url(#linear-gradient-26)}.cls-33{fill:url(#linear-gradient-27)}.cls-34{fill:url(#linear-gradient-30)}.cls-35{stroke:#eb3037;stroke-dasharray:5 10}.cls-36{fill:url(#linear-gradient-31)}.cls-37{fill:url(#linear-gradient-32)}.cls-38{fill:#f2a384}.cls-39{fill:url(#linear-gradient-34)}.cls-40{fill:url(#linear-gradient-35)}.cls-41{clip-path:url(#clip-path)}.cls-42,.cls-45{fill:#007057}.cls-43{fill:url(#linear-gradient-36)}.cls-44{clip-path:url(#clip-path-2)}.cls-46{fill:url(#linear-gradient-38)}.cls-47{clip-path:url(#clip-path-3)}.cls-48{fill:#ff8d9d}.cls-49{fill:url(#linear-gradient-39)}.cls-50{fill:url(#linear-gradient-40)}.cls-51{fill:url(#linear-gradient-41)}.cls-52{fill:url(#linear-gradient-43)}.cls-53,.cls-58{fill:#f2771d}.cls-54{fill:#eead47}.cls-55{fill:url(#linear-gradient-44)}.cls-56{fill:url(#linear-gradient-46)}.cls-57{fill:url(#linear-gradient-47)}.cls-58{opacity:.7}.cls-59,.cls-60{fill:#f2f5ff}.cls-60{stroke:#b7c8ff;stroke-width:3px}.cls-61{fill:url(#linear-gradient-48)}.cls-62{fill:url(#linear-gradient-49)}.cls-63,.cls-64{stroke:none}.cls-64{fill:#b7c8ff}
        </style>
        <linearGradient id="linear-gradient" x1=".495" x2=".67" y1=".321" y2="1.16" gradientUnits="objectBoundingBox">
            <stop offset="0" stop-color="#84f0a8"/>
            <stop offset="1" stop-color="#48b676"/>
        </linearGradient>
        <linearGradient id="linear-gradient-2" x1=".5" x2=".673" y1=".321" y2="1.16" xlink:href="#linear-gradient"/>
        <linearGradient id="linear-gradient-3" x1="-.384" x2=".324" y1="-.34" y2="1.761" gradientUnits="objectBoundingBox">
            <stop offset="0" stop-color="#f59ba9"/>
            <stop offset="1" stop-color="#f25267"/>
        </linearGradient>
        <linearGradient id="linear-gradient-4" x1=".5" x2=".5" y1=".14" y2="1" gradientUnits="objectBoundingBox">
            <stop offset="0" stop-color="#eb3037"/>
            <stop offset="1" stop-color="#ffebef"/>
        </linearGradient>
        <linearGradient id="linear-gradient-5" x1=".5" x2=".5" y1="-1.043" y2="1" gradientUnits="objectBoundingBox">
            <stop offset="0" stop-color="#fff"/>
            <stop offset="1" stop-color="#e97175"/>
        </linearGradient>
        <linearGradient id="linear-gradient-6" x1=".5" x2=".673" y1=".321" y2="1.16" gradientUnits="objectBoundingBox">
            <stop offset="0" stop-color="#ddf4f1"/>
            <stop offset="1" stop-color="#6dd0c1"/>
        </linearGradient>
        <linearGradient id="linear-gradient-7" x1=".607" x2=".5" y2="1" gradientUnits="objectBoundingBox">
            <stop offset="0" stop-color="#fff"/>
            <stop offset="1" stop-color="#ffebef"/>
        </linearGradient>
        <linearGradient id="linear-gradient-8" x1="1.574" x2="1.188" y1="-.397" y2="1.159" gradientUnits="objectBoundingBox">
            <stop offset="0" stop-color="#ffebef"/>
            <stop offset="1" stop-color="#e97175"/>
        </linearGradient>
        <linearGradient id="linear-gradient-9" x1="1.494" x2="1.574" y1="-.866" y2="2.197" xlink:href="#linear-gradient-8"/>
        <linearGradient id="linear-gradient-10" x1=".5" x2=".5" y1="-.109" y2="1" gradientUnits="objectBoundingBox">
            <stop offset="0" stop-color="#ffe579"/>
            <stop offset="1" stop-color="#feb755"/>
        </linearGradient>
        <linearGradient id="linear-gradient-11" x1=".833" x2=".599" y1=".113" y2=".973" gradientUnits="objectBoundingBox">
            <stop offset="0" stop-color="#9b0012"/>
            <stop offset="1" stop-color="#67010d"/>
        </linearGradient>
        <linearGradient id="linear-gradient-12" x1=".5" x2="-.338" y1=".197" y2="2.945" gradientUnits="objectBoundingBox">
            <stop offset="0" stop-color="#f7faff"/>
            <stop offset="1" stop-color="#e97175"/>
        </linearGradient>
        <linearGradient id="linear-gradient-13" x1=".794" x2=".5" y1="-.518" y2="1.89" xlink:href="#linear-gradient-12"/>
        <linearGradient id="linear-gradient-14" x1=".932" x2=".403" y1="-16.979" y2="11.546" xlink:href="#linear-gradient-12"/>
        <linearGradient id="linear-gradient-17" x1=".932" x2=".403" y1="-16.979" y2="11.546" gradientUnits="objectBoundingBox">
            <stop offset="0" stop-color="#f7faff"/>
            <stop offset=".774" stop-color="#ec9094"/>
            <stop offset="1" stop-color="#e97175"/>
        </linearGradient>
        <linearGradient id="linear-gradient-18" x1=".932" x2=".403" y1="-16.979" y2="11.546" gradientUnits="objectBoundingBox">
            <stop offset="0" stop-color="#f7faff"/>
            <stop offset="1" stop-color="#ef8184"/>
        </linearGradient>
        <linearGradient id="linear-gradient-19" x1=".794" x2=".5" y1="-.518" y2="1.89" gradientUnits="objectBoundingBox">
            <stop offset="0" stop-color="#f7faff"/>
            <stop offset=".562" stop-color="#f0898f"/>
            <stop offset="1" stop-color="#eb3037"/>
        </linearGradient>
        <linearGradient id="linear-gradient-20" x1=".932" x2="-.337" y1="-16.979" y2="5.489" gradientUnits="objectBoundingBox">
            <stop offset="0" stop-color="#f7faff"/>
            <stop offset="1" stop-color="#eb3037"/>
        </linearGradient>
        <linearGradient id="linear-gradient-21" x1=".932" x2="-.337" y1="-16.979" y2="5.489" xlink:href="#linear-gradient-12"/>
        <linearGradient id="linear-gradient-22" x1=".932" x2="-.337" y1="-16.979" y2="5.489" gradientUnits="objectBoundingBox">
            <stop offset="0" stop-color="#fff"/>
            <stop offset="1" stop-color="#eb3037"/>
        </linearGradient>
        <linearGradient id="linear-gradient-23" x1=".833" x2="1.11" y1=".113" y2="9.535" xlink:href="#linear-gradient-11"/>
        <linearGradient id="linear-gradient-24" x1=".606" x2=".643" y1="1.276" y2=".901" gradientUnits="objectBoundingBox">
            <stop offset="0" stop-color="#46c36f" stop-opacity="0"/>
            <stop offset="1" stop-color="#007057"/>
        </linearGradient>
        <linearGradient id="linear-gradient-25" x1="-.088" x2=".173" y1="1.097" y2=".154" gradientUnits="objectBoundingBox">
            <stop offset="0" stop-color="#fad0ba"/>
            <stop offset="1" stop-color="#f2a384"/>
        </linearGradient>
        <linearGradient id="linear-gradient-26" x1="1" x2="0" y1=".5" y2=".5" gradientUnits="objectBoundingBox">
            <stop offset="0" stop-color="#e97175"/>
            <stop offset="1" stop-color="#9b0012"/>
        </linearGradient>
        <linearGradient id="linear-gradient-27" x1=".5" x2=".552" y1=".278" y2="1.036" gradientUnits="objectBoundingBox">
            <stop offset="0" stop-color="#9b0012"/>
            <stop offset="1" stop-color="#e97175"/>
        </linearGradient>
        <linearGradient id="linear-gradient-30" x1=".607" x2=".521" xlink:href="#linear-gradient-26"/>
        <linearGradient id="linear-gradient-31" x1=".851" x2=".049" y1="1.093" y2="-.472" gradientUnits="objectBoundingBox">
            <stop offset="0" stop-color="#67010d"/>
            <stop offset="1" stop-color="#9b0012"/>
        </linearGradient>
        <linearGradient id="linear-gradient-32" x1=".5" x2=".673" y1=".321" y2="1.16" gradientUnits="objectBoundingBox">
            <stop offset="0" stop-color="#6dd0c1"/>
            <stop offset="1" stop-color="#009175"/>
        </linearGradient>
        <linearGradient id="linear-gradient-34" x1=".607" x2=".5" y2="1" gradientUnits="objectBoundingBox">
            <stop offset="0" stop-color="#fff"/>
            <stop offset="1" stop-color="#e5eeff"/>
        </linearGradient>
        <linearGradient id="linear-gradient-35" x1=".495" x2=".67" y1=".321" y2="1.16" xlink:href="#linear-gradient-32"/>
        <clipPath id="clip-path">
            <path id="Jacket" d="M2.167 3.627s-2.6 9.886-.894 15.661S.2 31.772.851 34.959C8.928 36.883 7.983 39.9 7.983 39.9s1.538-1.971 1.378-8.657-.38-7.058-.627-10.1a70.521 70.521 0 0 1 0-7.576L6.426 2S5.091 1.229 4.4.892 2.349 0 2.349 0z" class="cls-1" transform="translate(-.694)"/>
        </clipPath>
        <linearGradient id="linear-gradient-36" x2=".673" y1=".322" y2="1.162" xlink:href="#linear-gradient-32"/>
        <clipPath id="clip-path-2">
            <path id="Jacket-2" d="M18.693 4.1s-.971 3.367-1.414 4.739a7.891 7.891 0 0 0-.328 3.4c.3 2.675 1.7 3.891.979 10.289-.28 2.5-2.212 5.743-2.516 8.532-.473 4.345.291 5.781 0 6.5-.4.984-4.652.08-6.78 2.311-.685-1.328 1.919-6.009 1.919-6.724s.089-6.085 2.276-10.024S14.5 11.608 14.5 11.608 9 10.547 6.458 8.842 0 1.485 0 1.485.584 0 1.339 0s5.873 4.66 9.829 5.225c1.659.237 2.991-.746 4.244-1.03 1.995-.451 4.356-.768 4.6-.851a2.189 2.189 0 0 1-.145.369c-.398-.098-1.174.387-1.174.387z" class="cls-2" data-name="Jacket"/>
        </clipPath>
        <linearGradient id="linear-gradient-38" x1="-.384" x2=".324" y1="-.34" y2="1.761" gradientUnits="objectBoundingBox">
            <stop offset="0" stop-color="#ffebef"/>
            <stop offset="1" stop-color="#eb3037"/>
        </linearGradient>
        <clipPath id="clip-path-3">
            <path id="UI_Part" d="M22.991.05L.387 9.629a.633.633 0 0 0-.336.83l2.662 6.26a.635.635 0 0 0 .831.335l22.6-9.578a.633.633 0 0 0 .336-.83L23.822.386a.635.635 0 0 0-.831-.336z" class="cls-3" data-name="UI Part" transform="rotate(180 13.268 8.553)"/>
        </clipPath>
        <linearGradient id="linear-gradient-39" x1=".5" x2=".552" y1=".273" y2="1.036" xlink:href="#linear-gradient-31"/>
        <linearGradient id="linear-gradient-40" x1="1" x2="0" y1=".5" y2=".5" xlink:href="#linear-gradient-11"/>
        <linearGradient id="linear-gradient-41" x1=".608" x2=".522" y1="-.016" y2=".492" xlink:href="#linear-gradient-11"/>
        <linearGradient id="linear-gradient-43" x1=".503" x2=".503" y1="-.109" y2="1" gradientUnits="objectBoundingBox">
            <stop offset="0" stop-color="#f9d65c"/>
            <stop offset="1" stop-color="#f49422"/>
        </linearGradient>
        <linearGradient id="linear-gradient-44" x1=".561" x2=".637" y1=".797" y2=".5" gradientUnits="objectBoundingBox">
            <stop offset="0" stop-color="#f5b79c"/>
            <stop offset="1" stop-color="#ec906c"/>
        </linearGradient>
        <linearGradient id="linear-gradient-46" x1="-.216" x2=".862" y1="1.156" y2=".293" xlink:href="#linear-gradient-25"/>
        <linearGradient id="linear-gradient-47" x1=".5" x2=".5" y1="-.109" y2="1.002" xlink:href="#linear-gradient-43"/>
        <linearGradient id="linear-gradient-48" x1=".5" x2=".5" y1="-.109" y2="1" xlink:href="#linear-gradient-43"/>
        <linearGradient id="linear-gradient-49" x1=".458" x2=".759" y1=".152" y2=".707" gradientUnits="objectBoundingBox">
            <stop offset="0" stop-color="#e97175"/>
            <stop offset="1" stop-color="#eb3037"/>
        </linearGradient>
    </defs>
    <g id="Group_1198" data-name="Group 1198" transform="translate(-968 -234)">
        <path id="Background_base" d="M.157 4.679S30.523-.074 79.761.846s46.109 8 178.239 5.162v22.586H0z" class="cls-4" data-name="Background base" transform="translate(968 329.906)"/>
        <g id="Group_1193" data-name="Group 1193" transform="translate(3815 3262)">
            <g id="Group_1124" data-name="Group 1124" transform="translate(-2788.767 -3028)">
                <g id="Shadow" transform="translate(10.401 92.593)">
                    <ellipse id="Shadow-2" cx="43.33" cy="4.962" class="cls-5" data-name="Shadow" rx="43.33" ry="4.962" transform="translate(17.939 6.43)"/>
                    <ellipse id="Shadow-3" cx="24.011" cy="2.865" class="cls-5" data-name="Shadow" rx="24.011" ry="2.865" transform="translate(68.996 7.827)"/>
                    <ellipse id="Shadow-4" cx="8.832" cy="1.817" class="cls-5" data-name="Shadow" rx="8.832" ry="1.817"/>
                    <ellipse id="Shadow-5" cx="26.771" cy="3.914" class="cls-5" data-name="Shadow" rx="26.771" ry="3.914" transform="translate(60.717 12.458)"/>
                    <ellipse id="Shadow-6" cx="12.971" cy="2.516" class="cls-5" data-name="Shadow" rx="12.971" ry="2.516" transform="translate(15.179 15.375)"/>
                </g>
                <g id="Group_1120" data-name="Group 1120" transform="translate(0 43.45)">
                    <path id="Leaf" d="M5.069.01c-2.132.212-1.4 5.019-1.982 5.908s-2.23 1.15-2 3.073 1.813 1.857 2.006 3.455-3.379 1.388-3.075 3.91 3.055 3.286 3.236 4.805-1.182 2.115-.778 5.477 3.18 4.051 7.326 4.344 6.719-.841 6.315-4.465-4.805-3.517-5.348-5.51 2.244-3.061 1.983-5.387-4.452-2.22-4.67-4.076 3.069-2.871 2.851-4.8-1.052-2.218-2.625-2.883S7.2-.2 5.069.01z" class="cls-6" transform="rotate(16 11.444 81.428)"/>
                    <path id="leaves_base" d="M3.763 4.4a.131.131 0 0 0 .171-.127.223.223 0 0 0-.145-.224A4.367 4.367 0 0 1 .316.185.2.2 0 0 0 .138 0 .141.141 0 0 0 0 .173 4.8 4.8 0 0 0 3.763 4.4z" class="cls-7" data-name="leaves base" transform="rotate(16 -96.145 81.003)"/>
                    <path id="leaves_base-2" d="M4.031 2.972a.14.14 0 0 0 .112-.191.212.212 0 0 0-.2-.166C2.528 2.729 1.325 1.9.3.107A.183.183 0 0 0 .072.014a.16.16 0 0 0-.043.229c1.1 1.924 2.445 2.851 4.002 2.729z" class="cls-7" data-name="leaves base" transform="rotate(16 -67.484 78.836)"/>
                    <path id="leaves_base-3" d="M2.106 1.463a.1.1 0 0 0 .077-.134.133.133 0 0 0-.138-.1C1.329 1.329.722.949.2.067A.119.119 0 0 0 .049.012a.112.112 0 0 0-.03.158 2.088 2.088 0 0 0 2.087 1.293z" class="cls-8" data-name="leaves base" transform="rotate(16 -28.69 79.838)"/>
                    <path id="leaves_base-4" d="M.107 1.665A.119.119 0 0 1 0 1.539a.112.112 0 0 1 .113-.115c.732.035 1.244-.4 1.549-1.345A.106.106 0 0 1 1.8.008a.127.127 0 0 1 .067.156C1.534 1.2.942 1.706.107 1.665z" class="cls-8" data-name="leaves base" transform="rotate(16 -23.838 89.046)"/>
                    <path id="leaves_base-5" d="M.155 2.79A.184.184 0 0 1 0 2.6a.157.157 0 0 1 .165-.162C1.477 2.561 2.4 1.8 2.951.112a.149.149 0 0 1 .205-.1.2.2 0 0 1 .1.237C2.655 2.078 1.615 2.933.155 2.79z" class="cls-7" data-name="leaves base" transform="rotate(16 -60.158 93.327)"/>
                    <path id="leaves_base-6" d="M.155 2.662a.2.2 0 0 1-.155-.2.149.149 0 0 1 .165-.155c1.311.186 2.233-.531 2.786-2.2a.143.143 0 0 1 .205-.09.206.206 0 0 1 .1.242C2.655 2.064 1.615 2.872.155 2.662z" class="cls-7" data-name="leaves base" transform="rotate(16 -97.129 98.552)"/>
                    <path id="leaves_base-7" d="M4.908 32.958a.3.3 0 0 0 .24.262c.117.012.36-.071.344-.2a18.817 18.817 0 0 1-.646-3.391c-.251-2.153.468-5.682-.031-8.082S1.6 14.616.624 11.062C-.17 8.186.373 5.549.46 3.805A15.49 15.49 0 0 0 .124 0a25.312 25.312 0 0 1 .218 3.813A25.164 25.164 0 0 0 .158 10.2C.9 14.79 3.954 18.838 4.3 21.885s-.333 4.9-.159 7.565a7.817 7.817 0 0 0 .767 3.508z" class="cls-9" data-name="leaves base" transform="rotate(16 -3.05 89.477)"/>
                    <path id="Leaf-2" d="M8.01 0c2.132 0 1.963 5.024 2.647 5.9s2.348 1.049 2.348 3.086-1.586 2.037-1.586 3.715 3.533 1.368 3.533 4.07-2.661 3.5-2.661 5.1 1.438 2.277 1.438 5.854-2.717 4.1-6.863 4.1S0 30.519 0 26.942s4.427-3.357 4.744-5.362-2.594-3.1-2.594-5.417 4.194-2.321 4.194-4.218-3.38-2.757-3.38-4.692.794-2.281 2.278-3.065S5.879 0 8.01 0z" class="cls-10" data-name="Leaf" transform="rotate(-17 19.076 2.851)"/>
                    <path id="Leaves_base-8" d="M.191 4.386A.159.159 0 0 1 0 4.244a.189.189 0 0 1 .12-.222A3.619 3.619 0 0 0 3.164.186a.16.16 0 1 1 .315 0 3.972 3.972 0 0 1-3.288 4.2z" class="cls-11" data-name="Leaves base" transform="rotate(-17 117.615 -37.954)"/>
                    <path id="Leaves_base-9" d="M.208 4.381a.155.155 0 0 1-.2-.119.2.2 0 0 1 .1-.235c1.35-.517 2.02-1.782 2.02-3.841A.174.174 0 0 1 2.286 0a.174.174 0 0 1 .159.186C2.445 2.4 1.7 3.811.208 4.381z" class="cls-12" data-name="Leaves base" transform="rotate(8 -159.247 123.83)"/>
                    <path id="Leaves_base-10" d="M.7 39.9a.294.294 0 0 1-.229.3c-.119.006-.372-.11-.365-.27a26.589 26.589 0 0 0 .446-4.066c.121-2.591-.833-6.845-.474-9.719s2.84-8.434 3.607-12.794C4.313 9.8 3.6 6.682 3.4 4.6A22.207 22.207 0 0 1 3.5 0a36.117 36.117 0 0 0 .02 4.594 35.712 35.712 0 0 1 .587 7.673C3.648 17.879.791 22.886.624 26.547s.647 5.9.637 9.132S.7 39.9.7 39.9z" class="cls-12" data-name="Leaves base" transform="rotate(-17 27.93 -18.725)"/>
                    <path id="Leaf-3" d="M6.942 0C4.81 0 4.978 4.3 4.295 5.049s-2.348.9-2.348 2.641 1.586 1.743 1.586 3.178S0 12.039 0 14.35s2.661 2.99 2.661 4.362-1.438 1.948-1.438 5.008 2.717 3.512 6.863 3.512 6.866-1.12 6.866-4.18-4.427-2.872-4.744-4.587 2.592-2.65 2.592-4.636-4.194-1.986-4.194-3.609 3.38-2.359 3.38-4.014-.794-1.951-2.278-2.622S9.073 0 6.942 0z" class="cls-13" data-name="Leaf" transform="rotate(28 -11.93 67.989)"/>
                    <path id="Leaves_base-11" d="M3.288 3.752a.158.158 0 0 0 .187-.122.159.159 0 0 0-.12-.19C1.314 2.991.315 1.906.315.159A.158.158 0 0 0 .158 0 .158.158 0 0 0 0 .159c0 1.907 1.111 3.113 3.288 3.593z" class="cls-9" data-name="Leaves base" transform="rotate(28 -56.02 60.263)"/>
                    <path id="Leaves_base-12" d="M2.237 3.748a.159.159 0 0 0 .1-.3C.987 3 .317 1.921.317.159a.159.159 0 1 0-.317 0C0 2.051.749 3.26 2.237 3.748z" class="cls-9" data-name="Leaves base" transform="rotate(3 -501.727 475.497)"/>
                    <path id="Leaves_base-13" d="M1.175 1.967a.108.108 0 1 0 .067-.2A1.52 1.52 0 0 1 .216.108a.108.108 0 0 0-.216 0 1.731 1.731 0 0 0 1.175 1.859z" class="cls-9" data-name="Leaves base" transform="rotate(3 -336.567 557.06)"/>
                    <path id="Leaves_base-14" d="M.142 1.967a.108.108 0 1 1-.067-.2A1.52 1.52 0 0 0 1.1.108a.108.108 0 0 1 .216 0A1.731 1.731 0 0 1 .142 1.967z" class="cls-9" data-name="Leaves base" transform="rotate(53 -2.094 41.626)"/>
                    <path id="Leaves_base-15" d="M.206 3.467a.157.157 0 0 1-.2-.1.16.16 0 0 1 .1-.2c1.225-.4 1.833-1.392 1.833-3a.157.157 0 1 1 .315 0c.003 1.733-.684 2.85-2.048 3.3z" class="cls-9" data-name="Leaves base" transform="rotate(53 -11.454 43.644)"/>
                    <path id="Leaves_base-16" d="M.206 3.467a.157.157 0 0 1-.2-.1.16.16 0 0 1 .1-.2c1.225-.4 1.833-1.392 1.833-3a.157.157 0 1 1 .315 0c.003 1.733-.684 2.85-2.048 3.3z" class="cls-9" data-name="Leaves base" transform="rotate(53 -21.127 45.36)"/>
                    <path id="Leaves_base-17" d="M2.122 28.993a.212.212 0 0 0 .213.211c.117 0 .372-.094.372-.211a14.037 14.037 0 0 1-.257-2.949c0-1.886 1.13-5.025.906-7.108S.936 12.894.375 9.744c-.456-2.564.39-4.866.678-6.392A11.957 11.957 0 0 0 1.16 0a19.635 19.635 0 0 1-.224 3.351 20.25 20.25 0 0 0-.925 5.62c.2 4.076 2.789 7.618 2.789 10.282s-.9 4.331-1.04 6.686.362 3.054.362 3.054z" class="cls-9" data-name="Leaves base" transform="rotate(28 -20.804 74.898)"/>
                    <path id="Vase_base" d="M0 0h12.73L9.9 7.982H2.829z" class="cls-14" data-name="Vase base" transform="translate(13.274 43.059)"/>
                    <rect id="Vase_base-2" width="12.984" height="2.494" class="cls-15" data-name="Vase base" rx="1.247" transform="translate(12.989 42.81)"/>
                </g>
                <g id="UI_part-2" data-name="UI part" transform="translate(42.358 22.623)">
                    <rect id="UI_part_base" width="44.848" height="9.246" class="cls-16" data-name="UI part base" rx="4" transform="rotate(12.04 .967 9.138)"/>
                    <path id="Texture" d="M33.464 6.337l.32.068L39.8 16.927q-.133.015-.268.021zm.724 9.606L28.431 5.267l.313.067L34.5 16.009zm4.08-8.585l.318.068 4.266 7.46q-.068.123-.143.239zm-9.057 7.527L23.454 4.209l.312.066 5.757 10.676zM24.3 13.84L18.538 3.165l.313.067 5.757 10.676zm-4.929-1.048L13.609 2.117l.313.067 5.758 10.675zm-5.256-1.117L8.353 1l.312.066 5.758 10.676zm-4.7-1L3.69.073q.143 0 .288.02l5.744 10.65zm-5.194-1.1L.137 2.013q.072-.12.151-.234l4.239 7.859z" class="cls-17" transform="translate(1.436 .672)"/>
                </g>
                <path id="Smart_phone_base" d="M4.14 0h50.505a4.14 4.14 0 0 1 4.14 4.14v94.249a4.14 4.14 0 0 1-4.14 4.14H4.14A4.14 4.14 0 0 1 0 98.389V4.14A4.14 4.14 0 0 1 4.14 0z" class="cls-18" data-name="Smart phone base" transform="translate(33.17)"/>
                <rect id="UI_base" width="56.025" height="90.109" class="cls-19" data-name="UI base" rx="2" transform="translate(34.55 6.9)"/>
                <circle id="UI_base-2" cx="4.485" cy="4.485" r="4.485" class="cls-20" data-name="UI base" transform="translate(41.173 14.489)"/>
                <rect id="UI_base-3" width="10.349" height="2.346" class="cls-21" data-name="UI base" rx="1.173" transform="translate(51.109 16.283)"/>
                <rect id="UI_base-4" width="14.489" height="2.346" class="cls-21" data-name="UI base" rx="1.173" transform="translate(51.109 19.595)"/>
                <rect id="UI_base-5" width="44.848" height="9.246" class="cls-22" data-name="UI base" rx="4" transform="translate(40.207 26.771)"/>
                <rect id="UI_base-6" width="18.629" height="5.106" class="cls-22" data-name="UI base" rx="2.553" transform="translate(53.317 73.55)"/>
                <rect id="UI_base-7" width="43.468" height="1.38" class="cls-21" data-name="UI base" rx=".69" transform="translate(40.897 84.313)"/>
                <rect id="UI_base-8" width="43.468" height="1.38" class="cls-23" data-name="UI base" rx=".69" transform="translate(40.897 88.039)"/>
                <rect id="UI_base-9" width="29.668" height="1.38" class="cls-24" data-name="UI base" rx=".69" transform="translate(40.897 91.765)"/>
                <rect id="Rectangle_2_Copy_10" width="44.848" height="29.944" class="cls-25" data-name="Rectangle 2 Copy 10" rx="4" transform="translate(40.207 40.294)"/>
                <path id="Picture_base" d="M17.611 1.815l8.846 8.846H0l8.846-8.846a6.2 6.2 0 0 1 8.765 0z" class="cls-26" data-name="Picture base" transform="translate(40.207 59.613)"/>
                <circle id="Picture_base-2" cx="3.381" cy="3.381" r="3.381" class="cls-27" data-name="Picture base" transform="translate(76.223 48.573)"/>
                <path id="Picture_base-3" d="M21.174 2.183L31.81 12.818H0L10.636 2.183a7.452 7.452 0 0 1 10.538 0z" class="cls-28" data-name="Picture base" transform="translate(53.317 57.456)"/>
                <path id="Smart_phone_base-2" d="M0 0h33.946a3.614 3.614 0 0 1-3.614 3.614H3.614A3.614 3.614 0 0 1 0 0z" class="cls-29" data-name="Smart phone base" transform="translate(45.589 6.624)"/>
                <path id="Jacket-3" d="M.616 8.9c1.99 2.988 19.336 3.419 19.336 3.419l4.37.095a4.1 4.1 0 0 0 .393-1.84c.021-1.193-.274-5-.274-5L11.749 0S-1.375 5.909.616 8.9z" class="cls-30" data-name="Jacket" transform="translate(95.954 72.75)"/>
                <path id="Leg" d="M3.438 0l.37 1.849a2.477 2.477 0 0 1-1.669.738 4.506 4.506 0 0 1-1.768-.372L0 .194z" class="cls-31" transform="translate(102.729 97.984)"/>
                <path id="Shoes" d="M7.664 0c.281 0 .281.763.293 1.344a4.368 4.368 0 0 1-.143.966.443.443 0 0 1-.434.314c-4.509.131-7.226.127-7.234-.011-.361-.944-.164-1.046 1.881-1.787C2.858.525 3.621.381 4.138.134c.177-.085.547.6 1.77.6S7.383 0 7.664 0z" class="cls-32" transform="translate(98.891 99.614)"/>
                <path id="Pants" d="M-92.1 0a47.967 47.967 0 0 0-4.848 18.529c0 2.958 1.3 7.751 3.063 13.181a5.084 5.084 0 0 0 3.565-.339c.493-.461-1.19-10.575-.92-12.646s7.67-11.533 7.67-11.876-.282-2.116-.847-5.319z" class="cls-33" transform="translate(196.647 67.402)"/>
                <path id="Leg-2" d="M3.438 0l.37 1.849a2.477 2.477 0 0 1-1.669.738 4.506 4.506 0 0 1-1.768-.372L0 .194z" class="cls-31" data-name="Leg" transform="translate(113.236 99.148)"/>
                <path id="Shoes-2" d="M7.664 0c.281 0 .281.763.293 1.344a4.368 4.368 0 0 1-.143.966.443.443 0 0 1-.434.314c-4.509.131-7.226.127-7.234-.011-.361-.944-.164-1.046 1.881-1.787C2.858.525 3.621.381 4.138.134c.177-.085.547.6 1.77.6S7.383 0 7.664 0z" class="cls-32" data-name="Shoes" transform="translate(109.389 100.778)"/>
                <path id="Pants-2" d="M0 0s1.648 3.9 4.2 5.609c1.448.967-.291 5.543 1.526 13.614S8.439 31.716 8.814 32.51s3.491.862 3.757-.236-1-6.11-1.174-13.532c2.07-7.607 3.475-13.393 3.312-13.71A8.484 8.484 0 0 0 12.939 0z" class="cls-34" data-name="Pants" transform="translate(104.508 67.433)"/>
                <path id="Texture-2" d="M2.2 27.463S-.8 17.17.2 14.1 3.636 1.524 3.636 0" class="cls-35" data-name="Texture" transform="translate(113.614 70.789)"/>
                <path id="Hair" d="M.843 1.751q1.2-3.517 4.278.028C8.2 5.324 12.2 1.245 12.139 7.438s9.829-1.2 7.037 9.195c-1.6 5.943-10.209 4.644-14.889-.84C.784 11.689.809 3.625.394 3.309q-.97-.738.449-1.558z" class="cls-36" transform="translate(110.417 34.227)"/>
                <ellipse id="hairbands" cx="1.587" cy="1.725" class="cls-37" rx="1.587" ry="1.725" transform="translate(109.997 33.657)"/>
                <g id="Head" transform="translate(98.624 30.273)">
                    <path id="Face" d="M.543.122L1.428 0l5.463 1.014 1.644 1.795L9.5 5.37a3.013 3.013 0 0 0 .48 2.237 4.412 4.412 0 0 0 2.253 1.335q-3.783 4.164-5.689 4.623c-1.906.459-1.068-1.409.184-3.846.835-1.625-.112-2.318-1.193-2.7a9.59 9.59 0 0 1-1.739.93c-.343.089-1.575-1.224-2.523-2.86C1.175 4.917.5 4.4.408 4.228c-.2-.387.142-.456.037-.889C.365 3.009 0 2.6 0 2.039A6.734 6.734 0 0 1 .543.122z" class="cls-38" transform="translate(2.278 5.406)"/>
                    <path id="Hair-2" d="M2.693 9.237c-.2.381.693.8.937 1.254.35.393-3.852-.284-3.621-4.613s2.9-4.088 3.64-4.21S6.426-.642 9.494.187 13.318 3 13.281 5.869c-.045 3.466-1.281 5.467-2.018 5.557q-1.237.152-4.035-1.376 1.144-.331.634-1.651c-.51-1.32-1.762-.867-1.913.212l-.514-.779-3 .054q.507.886.258 1.351z" class="cls-36" data-name="Hair"/>
                </g>
                <path id="Body" d="M4.94.53q-1.395 1.956-.134 2.609T10.191 0q5.384 2.183 6.487 3.467t-1 11.385q-2.223 4.931-3.85 6.517C10.248 22.9 6.385 22.78 3.4 22.982c-1.66.112-2.748-.063-3.4-2.307a14.427 14.427 0 0 0 2.32-6.242A45.217 45.217 0 0 0 .73 6.628L3.065 1.46z" class="cls-39" transform="translate(102.883 44.593)"/>
                <path id="Hand" d="M0 1.15L2.109.594S3.522-.136 3.8.022c-.371.642.545.995.965 1.528-.468.1 1.429.421 1.1.634a16.794 16.794 0 0 1-3.453-.256l-2.2.8z" class="cls-38" transform="rotate(-120 56.572 -3.204)"/>
                <path id="Jacket-4" d="M2.167 3.627s-2.6 9.886-.894 15.661S.2 31.772.851 34.959C8.928 36.883 7.983 39.9 7.983 39.9s1.538-1.971 1.378-8.657-.38-7.058-.627-10.1a70.521 70.521 0 0 1 0-7.576L6.426 2S5.091 1.229 4.4.892 2.349 0 2.349 0z" class="cls-40" data-name="Jacket" transform="translate(112.293 45.266)"/>
                <g id="Jacket-5" class="cls-41" data-name="Jacket" transform="translate(112.987 45.266)">
                    <path id="Shadow-7" d="M3.7 6.381s-1.267-1.7 0-5.594c.3-.92 1.561-1.171 3.362 0 2.159 1.4 5.455 7.369 3.916 11.744C8.6 19.268 4.7 21.115 2.537 21.556c-.412.084-.5-.121-1.362.773-1.467 1.521.35-3.753.35-3.753s4.158-5.9 3.81-7.9A16.341 16.341 0 0 0 3.7 6.381z" class="cls-42" data-name="Shadow" transform="translate(-.219 3.99)"/>
                </g>
                <path id="Hand-2" d="M0 1.818A14.162 14.162 0 0 1 3.142.682c1.665-.362 2.69-.8 2.8-.65s-.918.575-.773.592C5.5.661 6.687.131 6.82.3a8.966 8.966 0 0 1-1.41.87S7.21.757 7.266.984s-1.727.554-1.723.63c.008.133 1.574.217 1.545.338-.077.319-1.951.2-2.345.291-1 .218.35.826.168 1.117S2.88 2.328 2.88 2.328l-2.756 1z" class="cls-38" data-name="Hand" transform="rotate(153 50.166 49.262)"/>
                <path id="Jacket_sleeve" d="M2.115 6.381s-1.267-1.7 0-5.594c.3-.92 1.561-1.171 3.362 0 2.159 1.4 4.839 8.114 3.3 12.489C5.953 21.3 3.4 21.467 1.815 22.475S0 21.154 0 21.154s4.453-6.475 4.105-8.473a51.04 51.04 0 0 0-1.99-6.3z" class="cls-43" data-name="Jacket sleeve" transform="translate(114.349 47.049)"/>
                <path id="Jacket-6" d="M18.693 4.1s-.971 3.367-1.414 4.739a7.891 7.891 0 0 0-.328 3.4c.3 2.675 1.7 3.891.979 10.289-.28 2.5-2.212 5.743-2.516 8.532-.473 4.345.291 5.781 0 6.5-.4.984-4.652.08-6.78 2.311-.685-1.328 1.919-6.009 1.919-6.724s.089-6.085 2.276-10.024S14.5 11.608 14.5 11.608 9 10.547 6.458 8.842 0 1.485 0 1.485.584 0 1.339 0s5.873 4.66 9.829 5.225c1.659.237 2.991-.746 4.244-1.03 1.995-.451 4.356-.768 4.6-.851a2.189 2.189 0 0 1-.145.369c-.398-.098-1.174.387-1.174.387z" class="cls-37" data-name="Jacket" transform="translate(87.792 41.519)"/>
                <g id="Jacket-7" class="cls-44" data-name="Jacket" transform="translate(87.792 41.519)">
                    <path id="Path_47" d="M9.342 3.306a6.682 6.682 0 0 1 .446-2.275C10.209.156 10.024 0 10.024 0s-4.6 2.273-7.7 1.031 1.564 3.408 1.564 3.408z" class="cls-45" data-name="Path 47" transform="translate(5.093 8.793)"/>
                </g>
                <g id="UI_part-3" data-name="UI part" transform="rotate(180 47.467 46.555)">
                    <path id="UI_Part-4" d="M22.991.05L.387 9.629a.633.633 0 0 0-.336.83l2.662 6.26a.635.635 0 0 0 .831.335l22.6-9.578a.633.633 0 0 0 .336-.83L23.822.386a.635.635 0 0 0-.831-.336z" class="cls-46" data-name="UI Part" transform="rotate(180 13.268 8.553)"/>
                    <g id="UI_part-5" class="cls-47" data-name="UI part">
                        <path id="Texture-3" d="M3.779 23.141L9.934 9.384l.145.064-6.155 13.758zm3.7-2.1l6.154-13.754.145.065-6.156 13.756zm-5.209-1.31l4.53-9.559.143.068-4.531 9.56zm8.855-.747L17.279 5.23l.145.065-6.156 13.756zM0 18.945l4.537-9.562.143.068-4.537 9.561zm14.532-1.469l6.156-13.757.145.065-6.156 13.756zm3.661-1.667l6.155-13.757.145.065-6.155 13.756zm2.836-.512L27.184 1.54l.145.064-6.155 13.757zm3.569-1.54L30.754 0l.146.065-6.157 13.756z" class="cls-48" data-name="Texture" transform="rotate(180 13.792 10.538)"/>
                    </g>
                </g>
                <path id="Leg-3" d="M6.352 1.12A1.44 1.44 0 0 0 4.166.19c-1.63.7-2.11.995-2.82 1.215A3.44 3.44 0 0 1 0 1.538l2.09 1.035 3.245.946S6.293 1.3 6.352 1.12z" class="cls-38" data-name="Leg" transform="rotate(-23 294.442 -134.01)"/>
                <path id="Pants-3" d="M18.374 8.226s-8.547.267-11.45-.718c1.03 2.029 2.105 8.721 2.255 9.85S6.5 19.145 6.332 18.812-1.852 8.395.4 3.627 16.239.163 16.239.163z" class="cls-49" data-name="Pants" transform="rotate(34 -95.844 179.469)"/>
                <path id="Shoes-3" d="M8.93.029c-.483-.238-1.09 1.057-1.975 1.057S5.519-.089 5.292.029C4.631.376 3.67.544 2.614.952.014 1.955-.238 2.1.14 3.59c0 .5 8.859.5 8.859.5a7.817 7.817 0 0 0 .386-1.941c.029-.905.029-1.882-.455-2.12z" class="cls-50" data-name="Shoes" transform="translate(73.188 104.154)"/>
                <path id="Leg-4" d="M4.24 0L1.048 2.032 0 2.065 2.094 3.4l2.662-.386z" class="cls-38" data-name="Leg" transform="rotate(-160 62.605 44.78)"/>
                <path id="Pants-4" d="M.147 9.882c2.142 6.511 22.588 5.283 23.955 4.644.78-.364-.032-3.5-.462-3.656-1-.356-14.943-1.58-12.266-.988S26.159 8.5 25.248 3.155 16.294.874 16.294.874-1.8 3.96.147 9.882z" class="cls-51" data-name="Pants" transform="translate(79.309 92.962)"/>
                <path id="Shoes-4" d="M7.619.129C7.2-.089 6.783.98 6.016.98S4.774-.1 4.578.008c-.572.319-1.4.474-2.317.849C.012 1.78-.206 1.912.121 3.284c0 .457 7.664.457 7.664.457a7.589 7.589 0 0 0 .334-1.786c.024-.83-.082-1.607-.5-1.826z" class="cls-50" data-name="Shoes" transform="rotate(-130 79.855 29.666)"/>
                <path id="Texture-4" d="M12.526 7.556S-2.4 6.416.333 4.147A34.342 34.342 0 0 1 7.56 0" class="cls-35" data-name="Texture" transform="translate(86.58 98.207)"/>
                <g id="Body-2" data-name="Body" transform="rotate(180 52.845 49.517)">
                    <g id="Texture_Shadow_Mask" data-name="Texture + Shadow Mask">
                        <path id="Body-3" d="M10.052.422C7.566-1.016 5.039 1.565 4.371 3S1.809 4.454 2.6 10.961s-.441 6.248-.441 6.248-3.233-.485-1.783 3.279 3.1 3.772 6.092 4.141a7 7 0 0 0 6.4-2.065c1.227-1.433-1.2-6.105 0-9.414.927-2.565.046-7.825 0-7.963-.712-2.138-.329-3.327-2.816-4.765z" class="cls-52" data-name="Body" transform="rotate(180 6.644 12.353)"/>
                        <path id="Texture-5" d="M4.213 23.974a.746.746 0 0 0 .41-.246l.065-.076a.7.7 0 0 1 1.064.007.678.678 0 0 0 1.048-.006l.079-.1a.734.734 0 0 1 1.107-.037.764.764 0 0 0 .066.063.754.754 0 0 0 1.058-.085l.065-.076a.69.69 0 0 1 .086-.085.7.7 0 0 1 .977.092.671.671 0 0 0 1.04-.012l.068-.086a.711.711 0 0 1 .077-.083.724.724 0 0 1 .491-.191h.053a5.61 5.61 0 0 0 .758-.684.647.647 0 0 1-.347-.131l-.434-.331a.6.6 0 0 0-.109-.066.592.592 0 0 0-.785.283.572.572 0 0 1-.879.2l-.328-.269a.629.629 0 0 0-.115-.075.627.627 0 0 0-.84.273.659.659 0 0 1-.064.1.65.65 0 0 1-.907.119l-.428-.327a.6.6 0 0 0-.91.216.587.587 0 0 1-.075.117.584.584 0 0 1-.818.078l-.328-.269a.626.626 0 0 0-.954.2.649.649 0 0 1-.971.22L3 22.375a.592.592 0 0 0-.894.217.569.569 0 0 1-.187.222 3.8 3.8 0 0 0 .967.711.728.728 0 0 1 .616.227.712.712 0 0 0 .048.047 6.528 6.528 0 0 0 .666.175zm-2.408-3.48a.667.667 0 0 0 .526-.253l.068-.086a.726.726 0 0 1 1.1-.042.754.754 0 0 0 1.124-.023l.065-.076a.7.7 0 0 1 .529-.243.694.694 0 0 1 .535.25.672.672 0 0 0 .1.095.678.678 0 0 0 .95-.1l.079-.1a.722.722 0 0 1 .074-.078.734.734 0 0 1 1.033.041.754.754 0 0 0 1.124-.023l.065-.076a.7.7 0 0 1 1.064.007.672.672 0 0 0 .1.1.671.671 0 0 0 .939-.11l.068-.086a.726.726 0 0 1 1.1-.042.755.755 0 0 0 .684.229 27.991 27.991 0 0 0-.183-1.165.654.654 0 0 1-.176.024.643.643 0 0 1-.393-.133l-.434-.331a.592.592 0 0 0-.894.217.579.579 0 0 1-.076.12.573.573 0 0 1-.8.078l-.328-.269a.627.627 0 0 0-.955.2.649.649 0 0 1-.971.22l-.428-.327a.6.6 0 0 0-.91.216.583.583 0 0 1-.894.2l-.328-.269a.626.626 0 0 0-.954.2.633.633 0 0 1-.064.1.649.649 0 0 1-.907.119L3 18.736a.6.6 0 0 0-.109-.066.592.592 0 0 0-.785.283.572.572 0 0 1-.879.2L.9 18.881a.629.629 0 0 0-.4-.142.629.629 0 0 0-.5.247 7.8 7.8 0 0 0 .352 1.146.7.7 0 0 1 .938.121.679.679 0 0 0 .1.1.664.664 0 0 0 .415.141zm0-3.639a.683.683 0 0 0 .121-.011 4.79 4.79 0 0 0-.337-.025.668.668 0 0 0 .216.037zm2.246-.141a.752.752 0 0 0 .573-.263l.065-.076a.7.7 0 0 1 .529-.243.694.694 0 0 1 .535.25.672.672 0 0 0 .1.095.678.678 0 0 0 .95-.1l.079-.1a.734.734 0 0 1 1.107-.037.74.74 0 0 0 .066.063.754.754 0 0 0 1.058-.085l.065-.076a.686.686 0 0 1 .086-.085.7.7 0 0 1 .977.092.671.671 0 0 0 1.04-.012l.068-.086a.725.725 0 0 1 .568-.274.728.728 0 0 1 .532.232.743.743 0 0 0 .066.063.604.604 0 0 0 .052.04 11.803 11.803 0 0 1-.053-1.07.646.646 0 0 1-.132-.078l-.434-.331a.592.592 0 0 0-.894.217.572.572 0 0 1-.879.2l-.328-.269a.627.627 0 0 0-.955.2.649.649 0 0 1-.971.22l-.428-.327a.6.6 0 0 0-.91.216.593.593 0 0 1-.083.11.584.584 0 0 1-.818.078l-.328-.269a.628.628 0 0 0-.115-.075.626.626 0 0 0-.839.273.634.634 0 0 1-.064.1.649.649 0 0 1-.907.119L3 15.1a.583.583 0 0 0-.109-.066 5.589 5.589 0 0 1-.144 1.246.728.728 0 0 1 .756.2.743.743 0 0 0 .066.063.754.754 0 0 0 .482.171zm0-3.639a.752.752 0 0 0 .573-.263l.065-.076a.7.7 0 0 1 1.064.007.677.677 0 0 0 .52.243.675.675 0 0 0 .527-.25l.079-.1a.758.758 0 0 1 .074-.078.734.734 0 0 1 1.033.041.8.8 0 0 0 .066.063.754.754 0 0 0 1.058-.085l.065-.076a.7.7 0 0 1 1.064.007.669.669 0 0 0 .515.241.667.667 0 0 0 .526-.253l.068-.086a.71.71 0 0 1 .077-.083.727.727 0 0 1 1.023.041.808.808 0 0 0 .066.063.749.749 0 0 0 .41.174 7.462 7.462 0 0 0 .259-1.293.651.651 0 0 1-.409.144.643.643 0 0 1-.393-.133l-.434-.331a.594.594 0 0 0-.359-.121.594.594 0 0 0-.535.338.572.572 0 0 1-.879.2l-.328-.269a.627.627 0 0 0-.955.2.664.664 0 0 1-.064.1.65.65 0 0 1-.907.119l-.428-.327a.609.609 0 0 0-.106-.065.6.6 0 0 0-.261-.059.606.606 0 0 0-.543.34.581.581 0 0 1-.524.327.584.584 0 0 1-.369-.132l-.328-.269a.639.639 0 0 0-.115-.075.626.626 0 0 0-.839.273.649.649 0 0 1-.971.22L3 11.459a.594.594 0 0 0-.331-.121c.049.446.092.879.126 1.287a.728.728 0 0 1 .707.21.735.735 0 0 0 .066.063.754.754 0 0 0 .483.177zm0-3.639a.752.752 0 0 0 .573-.263l.064-.073a.7.7 0 0 1 .529-.243.694.694 0 0 1 .535.25.677.677 0 0 0 .52.244A.674.674 0 0 0 6.8 9.1l.077-.1a.741.741 0 0 1 .074-.078.734.734 0 0 1 1.033.041.741.741 0 0 0 .066.063.754.754 0 0 0 1.058-.086l.065-.076a.687.687 0 0 1 .086-.085.7.7 0 0 1 .977.092.671.671 0 0 0 1.04-.012l.068-.086a.71.71 0 0 1 .077-.083.727.727 0 0 1 1.023.041.755.755 0 0 0 .819.192c-.012-.4-.034-.829-.067-1.263a.65.65 0 0 1-.82.026l-.434-.331a.578.578 0 0 0-.109-.066.592.592 0 0 0-.785.282.572.572 0 0 1-.879.2L9.842 7.5a.627.627 0 0 0-.955.2.7.7 0 0 1-.064.1.649.649 0 0 1-.907.119l-.428-.329a.6.6 0 0 0-.91.216.593.593 0 0 1-.075.117.584.584 0 0 1-.819.077l-.328-.269a.633.633 0 0 0-.115-.075.626.626 0 0 0-.839.273.634.634 0 0 1-.064.1.649.649 0 0 1-.907.119L3 7.82a.578.578 0 0 0-.109-.066.592.592 0 0 0-.25-.056.6.6 0 0 0-.241.052c0 .439.013.922.049 1.437l.032-.032A.727.727 0 0 1 3.5 9.2a.734.734 0 0 0 .066.062.755.755 0 0 0 .485.175zm0-3.639a.752.752 0 0 0 .573-.263l.065-.076a.7.7 0 0 1 1.064.007.677.677 0 0 0 .52.244.675.675 0 0 0 .527-.25l.079-.1a.734.734 0 0 1 1.107-.037.815.815 0 0 0 .066.063.754.754 0 0 0 1.056-.085l.065-.076a.682.682 0 0 1 .086-.085.7.7 0 0 1 .977.092.671.671 0 0 0 1.04-.012l.068-.086a.715.715 0 0 1 .077-.083.727.727 0 0 1 1.023.041.822.822 0 0 0 .066.063.749.749 0 0 0 .423.175 7.376 7.376 0 0 0-.083-.478 9.63 9.63 0 0 1-.2-.683.641.641 0 0 1-.271-.121l-.434-.331a.573.573 0 0 0-.109-.066.587.587 0 0 0-.25-.056.593.593 0 0 0-.535.338.572.572 0 0 1-.879.2l-.33-.272a.627.627 0 0 0-.4-.142.623.623 0 0 0-.558.341.68.68 0 0 1-.064.1.65.65 0 0 1-.907.119l-.428-.327a.6.6 0 0 0-.91.216.593.593 0 0 1-.075.117.583.583 0 0 1-.818.078l-.328-.269a.626.626 0 0 0-.115-.075.626.626 0 0 0-.839.273.649.649 0 0 1-.971.22l-.27-.211a4.351 4.351 0 0 0-.472 1.077.727.727 0 0 1 .812.176.752.752 0 0 0 .551.24zm2.221-3.806a.674.674 0 0 0 .527-.25l.079-.1a.744.744 0 0 1 .074-.078.734.734 0 0 1 1.033.041.781.781 0 0 0 .066.063.754.754 0 0 0 1.058-.085l.065-.076a.7.7 0 0 1 1.064.007.671.671 0 0 0 1.04-.012l.068-.086a.711.711 0 0 1 .077-.083.729.729 0 0 1 .107-.081 4.661 4.661 0 0 0-.83-.738.568.568 0 0 1-.172.026.573.573 0 0 1-.358-.129L9.842.142A.627.627 0 0 0 9.445 0a.623.623 0 0 0-.558.341.68.68 0 0 1-.064.1.644.644 0 0 1-.513.252.644.644 0 0 1-.394-.133L7.488.233a.6.6 0 0 0-.91.216.6.6 0 0 1-.078.117.581.581 0 0 1-.449.211.584.584 0 0 1-.159-.023 6.528 6.528 0 0 0-.757.748.656.656 0 0 1 .082 0 .694.694 0 0 1 .535.25.677.677 0 0 0 .52.244z" class="cls-53" data-name="Texture" transform="rotate(180 6.632 12.185)"/>
                        <path id="Combined_Shape" d="M2.092 10.428l.032.27q.789 6.507-.441 6.248A2.526 2.526 0 0 0 0 17.124q5.553.533 7.677-.874c3.082-2.041 4.921-8.046 4.446-11.5S10.1.3 9.07.07 4.554.022 4.228 3.151A25.59 25.59 0 0 1 2.746 9.4a3.445 3.445 0 0 1-.653 1.028z" class="cls-54" data-name="Combined Shape" transform="rotate(180 6.407 12.222)"/>
                    </g>
                </g>
                <g id="Head-2" data-name="Head" transform="translate(95.213 60.322)">
                    <path id="Neck" d="M4.988 8.658C2 11.192-.079 9.376.476 8.658c.386-.5.113-3.091-.476-5.37C2.969.751 4.517-.6 4.3.26c-.321 1.292-.062.14-.127 2.01a4.081 4.081 0 0 1-.691 2.586c-.749 1.261 1.3 2.648 1.506 3.7z" class="cls-55" transform="translate(3.996 6.721)"/>
                    <path id="Hair-3" d="M2.164 7.283A6.929 6.929 0 0 1 .351 5.028C-.15 3.824-.569.95 2.481.294a14.127 14.127 0 0 1 5.781 0c2.881 1.126 3.576 2.84 3.576 9.574s6.731 6.165 6.321 9.65-3 5.216-6.321 3.769S6.867 13.2 7.425 10.518 2.164 7.283 2.164 7.283z" class="cls-36" data-name="Hair"/>
                    <path id="Face-2" d="M.548 3.638L.507 2.612C.493 2.27.354 1.162.38.968.457.382.629-.2.808.065a4.387 4.387 0 0 0 3.313 2.2c.11.009 1.027.815 1.147.82.155.007.045-.678.219-.678.344-1.077 1.683-1.077 1.738.419.015.391-.351.946-.46 1.574-.076.44.166.924 0 1.448a5.1 5.1 0 0 1-2.907 2.247q-1.248.393-1.651.051a3.635 3.635 0 0 1-1.4-2.428C.537 5.644 0 5.663 0 5.327c0-.127.393-1.18.548-1.689z" class="cls-56" data-name="Face" transform="translate(.606 3.884)"/>
                </g>
                <path id="Hand-3" d="M6.326 1.835L3.9 2.476a9.659 9.659 0 0 1-2.886.934 1.522 1.522 0 0 1-.869-.323C-.12 2.714.051 1.7.078 1.59.149 1.3.744 1.2 1.1 1.122c.288-.06.817-.047.658-.292C1.625.618.8.149.973.035c.379-.246 2.589.9 2.589.9L6.09.015z" class="cls-38" data-name="Hand" transform="rotate(60 -25.09 112.917)"/>
                <path id="Sleeve" d="M15.491.043a3.839 3.839 0 0 0-4.249 3.577c-.325 3.147-.224 6.216-1.356 7.389s-2.014.157-8.334-2.31A1.4 1.4 0 0 0 .108 9.853c-.243 1.226 0 1.156 0 1.156s7.928 7.481 11.409 6.275 7.489-9.06 7.016-12.539S16.513.277 15.491.043z" class="cls-57" transform="translate(85.861 73.922)"/>
                <path id="Texture-6" d="M10.626 16.674l.126-.047a.573.573 0 0 1 0-.152l.055-.422a.625.625 0 0 0-.673-.7.64.64 0 0 1-.119 0 .647.647 0 0 1-.58-.706l.052-.538a.6.6 0 0 0-.664-.657.574.574 0 0 1-.139 0 .581.581 0 0 1-.5-.652l.055-.422a.624.624 0 0 0-.673-.7.639.639 0 0 1-.119 0 .647.647 0 0 1-.58-.706l.03-.311c-.543-.188-1.236-.486-2.164-.884v.012a.67.67 0 0 0 .56.876l.109.012a.723.723 0 0 1 .617.911.78.78 0 0 0-.019.08.751.751 0 0 0 .632.852l.1.015a.683.683 0 0 1 .117.028.7.7 0 0 1 .438.878.683.683 0 0 0-.03.133.675.675 0 0 0 .588.751l.125.015a.743.743 0 0 1 .105.021.732.732 0 0 1 .511.9.752.752 0 0 0 .613.941l.1.015a.692.692 0 0 1 .584.589 2.512 2.512 0 0 0 .743-.132zM4.467 13.95a.6.6 0 0 0-.184-.917.582.582 0 0 1-.165-.9l.281-.318a.626.626 0 0 0-.166-.961.648.648 0 0 1-.186-.979l.243-.3q-.5-.213-1.081-.458a.726.726 0 0 1-.209.79.745.745 0 0 0-.065.063.753.753 0 0 0 .049 1.061l.074.067a.7.7 0 0 1-.044 1.063.667.667 0 0 0-.1.093.677.677 0 0 0 .069.953l.1.083a.747.747 0 0 1 .076.076.729.729 0 0 1 .174.414c.265.192.536.384.81.571zm11.217-2.819a.643.643 0 0 1-.9-.1l-.342-.417a.6.6 0 0 0-.932.007.589.589 0 0 1-.1.1.578.578 0 0 1-.812-.107l-.258-.337a.621.621 0 0 0-.971-.02.644.644 0 0 1-.992 0l-.347-.422a.587.587 0 0 0-.552-.207 2.513 2.513 0 0 1-.487.774 1.343 1.343 0 0 1-.987.486l.027.05a.678.678 0 0 0 .076.119.665.665 0 0 0 .937.1l.086-.069a.732.732 0 0 1 .094-.064.72.72 0 0 1 .984.27.731.731 0 0 0 .05.076.747.747 0 0 0 1.047.154l.08-.06a.691.691 0 0 1 1.031.246.672.672 0 0 0 1.018.229l.1-.078a.742.742 0 0 1 .089-.06.727.727 0 0 1 .994.273.712.712 0 0 0 .05.076.746.746 0 0 0 .293.237c.254-.407.497-.828.724-1.256zm-14.808.343l.454-.29a.6.6 0 0 0 .107-.929.582.582 0 0 1 .12-.907l.365-.216a.623.623 0 0 0 .3-.42Q1.617 8.466.932 8.2a.7.7 0 0 1-.432.831.676.676 0 0 0-.35.986l.065.108a.72.72 0 0 1 .049.1.733.733 0 0 1-.26.885c.194.171.419.366.67.579a.644.644 0 0 1 .202-.215zm10.693-2.735l.064-.076a.691.691 0 0 1 1.06.007.687.687 0 0 0 .1.1.672.672 0 0 0 .947-.1l.079-.1a.744.744 0 0 1 .073-.079.727.727 0 0 1 1.03.041.763.763 0 0 0 .065.063.746.746 0 0 0 1.052-.095l.065-.076a.691.691 0 0 1 .85-.165q.153-.434.277-.856a.568.568 0 0 1-.133-.082l-.327-.27a.622.622 0 0 0-.951.2.654.654 0 0 1-.064.1.643.643 0 0 1-.9.119l-.427-.329a.591.591 0 0 0-.105-.065.6.6 0 0 0-.8.282.589.589 0 0 1-.075.118.578.578 0 0 1-.816.079L12.3 7.29a.621.621 0 0 0-.951.2.644.644 0 0 1-.968.221l-.4-.309c-.048.4-.1.785-.177 1.136a.719.719 0 0 1 .646.224.763.763 0 0 0 .065.063.746.746 0 0 0 1.055-.086zm-.159-3.5l.064-.076a.7.7 0 0 1 .086-.085.69.69 0 0 1 .974.092.672.672 0 0 0 1.043-.007l.079-.1a.745.745 0 0 1 .073-.079.727.727 0 0 1 1.03.041.76.76 0 0 0 .065.063A.746.746 0 0 0 15.88 5l.064-.076a.7.7 0 0 1 .086-.085.69.69 0 0 1 .97.095.666.666 0 0 0 .66.226 5.092 5.092 0 0 0-.023-1.025 10.14 10.14 0 0 0-.039-.268.567.567 0 0 1-.664-.042l-.327-.27a.622.622 0 0 0-.951.2.651.651 0 0 1-.064.1.643.643 0 0 1-.9.119l-.427-.329a.607.607 0 0 0-.105-.065.6.6 0 0 0-.8.282.584.584 0 0 1-.075.118.578.578 0 0 1-.816.079l-.327-.27a.628.628 0 0 0-.115-.075.621.621 0 0 0-.836.275.644.644 0 0 1-.948.236c-.025.315-.047.627-.069.934a.725.725 0 0 1 .118.1.764.764 0 0 0 .065.063.746.746 0 0 0 1.055-.086zm.262-3.522l.065-.076a.691.691 0 0 1 1.06.007.686.686 0 0 0 .1.1.672.672 0 0 0 .947-.1l.079-.1a.727.727 0 0 1 1.1-.037.727.727 0 0 0 .065.063.746.746 0 0 0 1.055-.086l.065-.076a.7.7 0 0 1 .086-.085.688.688 0 0 1 .437-.159 4.155 4.155 0 0 0-.772-.99.632.632 0 0 0-.036.062.649.649 0 0 1-.064.1.643.643 0 0 1-.9.12l-.431-.335a.591.591 0 0 0-.106-.065.6.6 0 0 0-.8.282.58.58 0 0 1-.075.118.578.578 0 0 1-.816.079L12.4.268a.622.622 0 0 0-.459-.139 3.682 3.682 0 0 0-1.312 1.686.746.746 0 0 0 1.04-.1z" class="cls-58" data-name="Texture" transform="translate(86.752 74.531)"/>
                <g id="Group_12" data-name="Group 12" transform="translate(27.788 89.005)">
                    <g id="Group_14" data-name="Group 14">
                        <g id="Rectangle_12" class="cls-59" data-name="Rectangle 12">
                            <path d="M16.266 19.114H4.709L1.771 1.5h17.433l-2.938 17.614z" class="cls-63" transform="translate(0 1.022)"/>
                            <path d="M3.542 3L5.98 17.614h9.015L17.433 3H3.542M0 0h20.975l-3.439 20.614H3.438L0 0z" class="cls-64" transform="translate(0 1.022)"/>
                        </g>
                        <ellipse id="Oval_2" cx="6.877" cy="1.107" class="cls-60" data-name="Oval 2" rx="6.877" ry="1.107" transform="translate(3.61 20.103)"/>
                        <ellipse id="Oval_2_Copy" cx="10.23" cy="1.107" class="cls-60" data-name="Oval 2 Copy" rx="10.23" ry="1.107" transform="translate(.172)"/>
                    </g>
                </g>
                <rect id="UI_part-6" width="21.665" height="6.762" class="cls-61" data-name="UI part" rx="3.381" transform="rotate(74.99 -33.632 58.828)"/>
                <rect id="UI_part-7" width="33.118" height="6.762" class="cls-62" data-name="UI part" rx="3.381" transform="rotate(-85 73.269 35.227)"/>
                <rect id="UI_part-8" width="21.665" height="6.762" class="cls-61" data-name="UI part" rx="3.381" transform="rotate(95 -15.277 61.717)"/>
                <rect id="UI_part-9" width="28.288" height="6.762" class="cls-37" data-name="UI part" rx="3.381" transform="rotate(-74 87.466 28.002)"/>
                <path id="Bucket" d="M4.137 20.662h-.7L0 0h.2a.148.148 0 0 0-.03.085c0 .15.27.3.8.432A16.6 16.6 0 0 0 3.168.87a70.8 70.8 0 0 0 7.232.33 70.794 70.794 0 0 0 7.235-.33 16.592 16.592 0 0 0 2.192-.353c.533-.137.8-.282.8-.432A.149.149 0 0 0 20.6 0h.374l-3.438 20.662h-.7a22.024 22.024 0 0 1-6.35.683 22.023 22.023 0 0 1-6.349-.683z" class="cls-18" transform="translate(27.788 89.971)"/>
            </g>
        </g>
    </g>
</svg>
