<svg xmlns="http://www.w3.org/2000/svg" id="done" width="244" height="64" viewBox="0 0 244 64">
    <defs>
        <style>
            .cls-1{fill:none}.cls-2{clip-path:url(#clip-path)}.cls-3{fill:url(#linear-gradient)}.cls-4{fill:#d8d8d8;opacity:.055}.cls-5{opacity:.102}.cls-5,.cls-6,.cls-7{fill:url(#linear-gradient-2)}.cls-6{opacity:.302}
        </style>
        <clipPath id="clip-path">
            <path id="vectorMask" d="M8 0h228a8 8 0 0 1 8 8v56H0V8a8 8 0 0 1 8-8z" class="cls-1"/>
        </clipPath>
        <linearGradient id="linear-gradient" x1=".5" x2=".5" y2="1" gradientUnits="objectBoundingBox">
            <stop offset="0" stop-color="#412c8d"/>
            <stop offset="1" stop-color="#995be3"/>
        </linearGradient>
        <linearGradient id="linear-gradient-2" x1=".5" x2=".5" y2="1" gradientUnits="objectBoundingBox">
            <stop offset="0" stop-color="#fd5cb7"/>
            <stop offset="1" stop-color="#ac5fb5"/>
        </linearGradient>
    </defs>
    <g id="Mask_by_Rectangle" class="cls-2" data-name="Mask by Rectangle">
        <g id="done_banner" data-name="done banner" transform="translate(-19.825 -66.302)">
            <path id="Rectangle" d="M0 0h263.546v133.773H0z" class="cls-3" transform="translate(8.784 36.302)"/>
            <path id="Oval_Copy" d="M626.274 1804.852c0 30-6.191 67.483 36.97 67.483s246.425-23.687 246.425-53.686c0-11.4 7.856-28.368-24.731-30.762-14.171-1.04-25.416-35.852-48.134-34.223-9.649.691-32.974 39.945-39.9 39.239-23.032-2.35-40.058-13.08-58.749-13.178-12.106-.063-52.04 25.126-58.566 25.126-43.159.001-53.315-29.997-53.315.001z" class="cls-4" data-name="Oval Copy" transform="translate(-625.966 -1753.609)"/>
            <path id="Oval_Copy_4" d="M625.967 1856.7c0-35.073 37.752-2.5 77.234-23.9 43.01-23.308 66.662-10.843 86.2-4.13 22.328 7.67 36.792-23.656 40.447-27.881 23.609-27.29 32.292 18.6 45.023 19.472 27.356 1.875 36.055-20.214 36.055-5.163 0 13.582 34.079 41.1 3.111 59.006-49 28.327-174.691 45.73-201.137 45.73-43.16-.001-86.933-28.065-86.933-63.134z" class="cls-5" data-name="Oval Copy 4" transform="translate(-625.966 -1767.475)"/>
            <path id="Oval_Copy_2" d="M625.967 1883.2c0-35.073 37.752-2.5 77.234-23.9 43.01-23.308 66.662-10.843 86.2-4.131 22.328 7.671 36.792-23.656 40.447-27.88 23.609-27.29 32.292 18.6 45.023 19.472 27.356 1.875 36.055-20.214 36.055-5.163 0 13.582 34.079 41.1 3.111 59.006-49 28.326-174.691 45.729-201.137 45.729-43.16.003-86.933-28.061-86.933-63.133z" class="cls-6" data-name="Oval Copy 2" transform="translate(-625.966 -1777.015)"/>
            <path id="Oval_Copy_3" d="M625.967 1927.014c0-35.073 37.752-2.5 77.234-23.9 43.01-23.308 66.662-10.843 86.2-4.131 22.328 7.671 36.792-23.656 40.447-27.88 23.609-27.29 32.292 18.6 45.023 19.472 27.356 1.875 36.055-20.213 36.055-5.163 0 13.582 34.079 41.1 3.111 59.006-49 28.326-174.691 45.729-201.137 45.729-43.16.003-86.933-28.061-86.933-63.133z" class="cls-7" data-name="Oval Copy 3" transform="translate(-625.966 -1792.785)"/>
        </g>
    </g>
</svg>
