<svg xmlns="http://www.w3.org/2000/svg" width="187" height="99" viewBox="0 0 187 99">
    <defs>
        <style>
            .cls-1{fill:#f5b531}.cls-2{fill:none}
        </style>
    </defs>
    <g id="Group_2148" data-name="Group 2148" transform="translate(1 1)">
        <g id="Logo_Colored_" data-name="Logo (Colored)" transform="translate(50 -1)">
            <path id="Path_2256" d="M63.769 569.654V583.6a1.7 1.7 0 0 1-.722 1.39 1.652 1.652 0 0 1-1.539.19l-27.283-10.461-6.712 2.981v-5.56l-3.766-1.44a1.692 1.692 0 0 1-1.077-1.581v-13.95a1.7 1.7 0 0 1 .721-1.39 1.654 1.654 0 0 1 1.539-.191l37.761 14.486a1.692 1.692 0 0 1 1.078 1.58z" class="cls-1" data-name="Path 2256" transform="translate(-21.644 -511.717)"/>
            <path id="Path_2257" d="M510 570.4v13.95a1.7 1.7 0 0 0 .722 1.39 1.653 1.653 0 0 0 1.539.19l27.279-10.467 6.711 2.986v-5.56l3.767-1.445a1.691 1.691 0 0 0 1.077-1.581v-13.954a1.7 1.7 0 0 0-.722-1.39 1.653 1.653 0 0 0-1.538-.191l-37.761 14.485A1.693 1.693 0 0 0 510 570.4z" class="cls-1" data-name="Path 2257" transform="translate(-466.121 -512.391)"/>
            <path id="Path_4757" d="M1.18 0c.648 0 1.168.748 1.162 1.68s-.536 1.691-1.183 1.7S-.009 2.625 0 1.693.532 0 1.18 0z" data-name="Path 4757" transform="rotate(-39.65 80.22 12.882)"/>
            <path id="Path_4758" d="M1.18 0c.648 0 1.168.748 1.162 1.68s-.536 1.691-1.183 1.7S-.009 2.625 0 1.693.532 0 1.18 0z" data-name="Path 4758" transform="rotate(-39.65 85.621 6.505)"/>
            <path id="Path_4759" d="M1.18 0c.648 0 1.168.748 1.162 1.68s-.536 1.691-1.183 1.7S-.009 2.625 0 1.693.532 0 1.18 0z" data-name="Path 4759" transform="rotate(-39.65 91.022 .127)"/>
            <path id="Path_4760" d="M1.18 0c.648 0 1.168.748 1.162 1.68s-.536 1.691-1.183 1.7S-.009 2.625 0 1.693.532 0 1.18 0z" data-name="Path 4760" transform="rotate(-39.65 96.421 -6.251)"/>
            <path id="Path_4761" d="M1.693 0c.932-.006 1.684.515 1.68 1.162s-.763 1.178-1.7 1.183S-.006 1.828 0 1.18.761 0 1.693 0z" data-name="Path 4761" transform="rotate(-50.35 94.749 -48.733)"/>
            <path id="Path_4762" d="M1.693 0c.932-.006 1.684.515 1.68 1.162s-.763 1.178-1.7 1.183S-.006 1.828 0 1.18.761 0 1.693 0z" data-name="Path 4762" transform="rotate(-50.35 94.197 -42.094)"/>
            <path id="Path_4763" d="M1.693 0c.932-.006 1.684.515 1.68 1.162s-.763 1.178-1.7 1.183S-.006 1.828 0 1.18.761 0 1.693 0z" data-name="Path 4763" transform="rotate(-50.35 93.647 -35.454)"/>
            <path id="Path_4764" d="M1.693 0c.932-.006 1.684.515 1.68 1.162s-.763 1.178-1.7 1.183S-.006 1.828 0 1.18.761 0 1.693 0z" data-name="Path 4764" transform="rotate(-50.35 93.095 -28.815)"/>
            <path id="Rectangle_2422" d="M0 0h86v74H0z" class="cls-2" data-name="Rectangle 2422"/>
            <path id="Path_2258" d="M98.766 155.04v1.773L63.01 170.527v-1.773z" data-name="Path 2258" transform="translate(-58.437 -148.758)"/>
            <path id="Path_2259" d="M566.126 339.62v1.772l-3.977 1.523-2.307.887-8.851 3.4-2.3.882-18.314 7.028v-1.773l16.007-6.137 2.3-.887 8.851-3.4 2.307-.886z" data-name="Path 2259" transform="translate(-484.699 -316.902)"/>
            <path id="Path_2260" d="M566.126 424.3v1.773l-5.3 2.036-2.3.882-28.148 10.8v-1.773l25.836-9.909 2.3-.882z" data-name="Path 2260" transform="translate(-484.699 -394.041)"/>
            <path id="Path_2261" d="M566.126 168.754v1.773l-35.756-13.714v-1.773z" data-name="Path 2261" transform="translate(-484.699 -148.758)"/>
            <path id="Path_2262" d="M98.766 239.72v1.773L71.6 251.911l-2.3.887-6.284 2.409v-1.772l3.976-1.524 2.307-.886z" data-name="Path 2262" transform="translate(-58.437 -225.898)"/>
            <path id="Path_2263" d="M566.126 253.434v1.772l-6.284-2.409-2.307-.887-27.165-10.417v-1.773l29.472 11.3 2.3.886z" data-name="Path 2263" transform="translate(-484.699 -225.898)"/>
            <path id="Path_2264" d="M98.766 353.334v1.773l-18.313-7.023-2.307-.886-8.847-3.4-2.307-.887-3.976-1.523v-1.768l6.284 2.409 2.3.886 8.856 3.4 2.307.887z" data-name="Path 2264" transform="translate(-58.437 -316.902)"/>
            <path id="Path_2265" d="M98.766 438.013v1.773l-28.143-10.8-2.307-.887-5.305-2.031V424.3l7.612 2.923 2.307.882z" data-name="Path 2265" transform="translate(-58.437 -394.041)"/>
            <path id="Path_2266" d="M566.126 520.42v1.773l-35.756 13.714v-1.773z" data-name="Path 2266" transform="translate(-484.699 -481.601)"/>
            <path id="Path_2267" d="M98.766 335.89v1.768L82.759 343.8l-2.307.886-7.523 2.882-2.307.887-7.612 2.918V349.6l5.305-2.036 2.307-.882 7.518-2.886 2.307-.887z" data-name="Path 2267" transform="translate(-58.437 -313.504)"/>
            <path id="Path_2268" d="M566.126 349.6v1.769l-7.608-2.918-2.312-.887-7.518-2.886-2.3-.882-16.007-6.141v-1.765l18.314 7.022 2.307.887 7.518 2.886 2.308.886z" data-name="Path 2268" transform="translate(-484.699 -313.504)"/>
            <path id="Path_2269" d="M98.766 534.134v1.773L63.01 522.193v-1.773z" data-name="Path 2269" transform="translate(-58.437 -481.601)"/>
            <path id="Path_2270" d="M17.007 266.888a1.285 1.285 0 0 1-.785 1.121v21.336l-1.751-.673v-20.659a1.291 1.291 0 0 1-.791-1.122 1.521 1.521 0 0 1 1.662-1.321 1.523 1.523 0 0 1 1.665 1.318z" data-name="Path 2270" transform="translate(-13.444 -249.446)"/>
            <path id="Path_2271" d="M951.8 266.888a1.285 1.285 0 0 1-.786 1.121v20.663l-1.751.672v-21.331a1.289 1.289 0 0 1-.787-1.122 1.706 1.706 0 0 1 3.324 0z" data-name="Path 2271" transform="translate(-866.043 -249.446)"/>
            <path id="Path_2272" d="M484.424 89.8a1.29 1.29 0 0 1-.787 1.123v20.667l-.875-.337-.875.337V90.923a1.291 1.291 0 0 1-.787-1.123 1.706 1.706 0 0 1 3.324 0z" data-name="Path 2272" transform="translate(-439.762 -88.126)"/>
            <path id="Path_2273" d="M484.424 443.545a1.291 1.291 0 0 1-.787 1.123v20.659l-.875.342-.875-.336v-20.66a1.292 1.292 0 0 1-.787-1.123 1.707 1.707 0 0 1 3.324-.005z" data-name="Path 2273" transform="translate(-439.762 -410.374)"/>
        </g>
        <g id="Font_Colored_" data-name="Font (Colored)" transform="translate(-1 82)">
            <path id="Path_2227" d="M32.6 455.2l-4.424 14.6H24l-2.779-9.368a6.932 6.932 0 0 1-.267-1.639h-.047a9 9 0 0 1-.3 1.639l-2.852 9.368H13.4L9 455.2h4.114l2.358 9.723a10.236 10.236 0 0 1 .223 1.67h.069a7.177 7.177 0 0 1 .342-1.71l3.035-9.684h4.039l2.743 9.805a10.692 10.692 0 0 1 .269 1.569h.047a9.086 9.086 0 0 1 .245-1.631L28.8 455.2z" class="cls-1" data-name="Path 2227" transform="translate(-7.317 -454.508)"/>
            <path id="Path_2228" d="M149.775 468.811a8.416 8.416 0 0 1-5.861-2.042 6.827 6.827 0 0 1-2.265-5.319 7.293 7.293 0 0 1 2.3-5.6 8.59 8.59 0 0 1 6.093-2.139 8.2 8.2 0 0 1 5.8 2.047 7.006 7.006 0 0 1 2.212 5.4 7.174 7.174 0 0 1-2.293 5.546 8.517 8.517 0 0 1-5.986 2.107zm.163-12.269a4.019 4.019 0 0 0-3.151 1.3 4.955 4.955 0 0 0-1.169 3.435 4.827 4.827 0 0 0 1.169 3.425 3.972 3.972 0 0 0 3.058 1.262 4.025 4.025 0 0 0 3.093-1.227 4.8 4.8 0 0 0 1.144-3.406 5.179 5.179 0 0 0-1.109-3.533 3.825 3.825 0 0 0-3.029-1.262z" class="cls-1" data-name="Path 2228" transform="translate(-115.161 -453.262)"/>
            <path id="Path_2229" d="M256.252 469.812h-4.331l-2.6-3.752q-.292-.427-.561-.763a4.5 4.5 0 0 0-.544-.576 2.155 2.155 0 0 0-.57-.365 1.645 1.645 0 0 0-.649-.127h-1.016v5.59h-3.771V455.21h5.984q6.093 0 6.092 3.972a3.658 3.658 0 0 1-.267 1.409 3.8 3.8 0 0 1-.759 1.166 4.692 4.692 0 0 1-1.186.9 6.545 6.545 0 0 1-1.546.59v.041a2.594 2.594 0 0 1 .724.326 4.956 4.956 0 0 1 .677.535 7.618 7.618 0 0 1 .625.653c.2.233.374.463.544.687zm-10.272-12.137v4.062h1.634a2.949 2.949 0 0 0 1.949-.61 1.92 1.92 0 0 0 .748-1.538q0-1.913-2.618-1.913z" class="cls-1" data-name="Path 2229" transform="translate(-196.917 -454.517)"/>
            <path id="Path_2230" d="M327.22 469.812v-14.6h5.93q8.918 0 8.918 7.118a6.741 6.741 0 0 1-2.431 5.446 9.777 9.777 0 0 1-6.483 2.037zm3.77-11.924v9.255h1.87a5.462 5.462 0 0 0 3.845-1.282 4.518 4.518 0 0 0 1.4-3.492 4.111 4.111 0 0 0-1.382-3.283 5.764 5.764 0 0 0-3.882-1.2z" class="cls-1" data-name="Path 2230" transform="translate(-266.03 -454.517)"/>
            <path id="Path_2231" d="M421.474 467.985v-3.262a7.513 7.513 0 0 0 2.206 1.114 8.012 8.012 0 0 0 2.4.372 6.037 6.037 0 0 0 1.242-.112 3.132 3.132 0 0 0 .888-.31 1.47 1.47 0 0 0 .531-.468 1.063 1.063 0 0 0 .174-.585 1.165 1.165 0 0 0-.279-.764 2.917 2.917 0 0 0-.765-.622 8.5 8.5 0 0 0-1.15-.55q-.665-.264-1.436-.54a7.412 7.412 0 0 1-2.924-1.74 3.505 3.505 0 0 1-.963-2.484 3.555 3.555 0 0 1 .525-1.957 4.183 4.183 0 0 1 1.43-1.349 6.979 6.979 0 0 1 2.1-.78 12.389 12.389 0 0 1 2.521-.25 17.39 17.39 0 0 1 2.317.139 10.052 10.052 0 0 1 1.86.422v3.041a5.8 5.8 0 0 0-.916-.447 8 8 0 0 0-1.021-.326 8.783 8.783 0 0 0-1.043-.189 8.488 8.488 0 0 0-.987-.06 5.826 5.826 0 0 0-1.167.108 3.2 3.2 0 0 0-.886.3 1.651 1.651 0 0 0-.561.463.992.992 0 0 0-.2.605 1.055 1.055 0 0 0 .221.653 2.437 2.437 0 0 0 .63.549 7.084 7.084 0 0 0 .993.509q.583.249 1.318.514a15.573 15.573 0 0 1 1.8.78 6.363 6.363 0 0 1 1.371.931 3.615 3.615 0 0 1 .875 1.186 4.181 4.181 0 0 1-.227 3.6 4.042 4.042 0 0 1-1.442 1.344 6.777 6.777 0 0 1-2.111.748 13.894 13.894 0 0 1-2.551.225 16.23 16.23 0 0 1-2.618-.2 8.685 8.685 0 0 1-2.155-.608z" data-name="Path 2231" transform="translate(-342.599 -453.251)"/>
            <path id="Path_2232" d="M507.427 457.888h-4.774v11.924h-3.781v-11.924h-4.752v-2.678h13.307z" data-name="Path 2232" transform="translate(-401.72 -454.517)"/>
            <path id="Path_2233" d="M580.172 469.812h-4.114l-1.189-3.249h-5.954l-1.178 3.249h-4.087l6.092-14.6h4.471zM574 464.038l-1.8-4.908a5.623 5.623 0 0 1-.28-1.313h-.094a5 5 0 0 1-.292 1.274l-1.821 4.947z" data-name="Path 2233" transform="translate(-458.247 -454.517)"/>
            <path id="Path_2234" d="M664.09 469.812v-14.6h5.93q8.918 0 8.918 7.118a6.742 6.742 0 0 1-2.431 5.446 9.783 9.783 0 0 1-6.487 2.037zm3.77-11.924v9.255h1.87a5.468 5.468 0 0 0 3.846-1.282 4.5 4.5 0 0 0 1.393-3.492 4.11 4.11 0 0 0-1.382-3.283 5.766 5.766 0 0 0-3.882-1.2z" data-name="Path 2234" transform="translate(-539.905 -454.517)"/>
            <path id="Path_2235" d="M762.98 469.812h-3.77v-14.6h3.77z" data-name="Path 2235" transform="translate(-617.237 -454.517)"/>
            <path id="Path_2236" d="M810.483 463.495q0 6.577-7.025 6.579-6.82 0-6.818-6.425v-8.439h3.783v8.472q0 3.543 3.18 3.543 3.117 0 3.117-3.426v-8.59h3.77z" data-name="Path 2236" transform="translate(-647.668 -454.517)"/>
            <path id="Path_2237" d="M908.074 469.812h-3.724v-8.736q0-1.418.14-3.127h-.09a13.894 13.894 0 0 1-.525 1.936l-3.927 9.927h-3.076l-3.992-9.826a16.611 16.611 0 0 1-.526-2.037h-.105q.152 2.161.151 3.788v8.076H889v-14.6h5.522l3.42 8.655a10.966 10.966 0 0 1 .595 2.088h.071a19.187 19.187 0 0 1 .664-2.108l3.421-8.635h5.382z" data-name="Path 2237" transform="translate(-722.757 -454.517)"/>
            <path id="Rectangle_2418" d="M0 0h187v16H0z" class="cls-2" data-name="Rectangle 2418"/>
        </g>
    </g>
</svg>
