<?xml version="1.0" encoding="utf-8"?>
<!-- Generator: Adobe Illustrator 22.0.0, SVG Export Plug-In . SVG Version: 6.00 Build 0)  -->
<svg version="1.1" id="outline-notifications-24px" xmlns="http://www.w3.org/2000/svg" xmlns:xlink="http://www.w3.org/1999/xlink"
	 x="0px" y="0px" viewBox="0 0 28 28" style="enable-background:new 0 0 28 28;" xml:space="preserve">
<style type="text/css">
	.st0{fill:#111111;}
</style>
<path id="Path_966" class="st0" d="M14,26.6c1.5,0.1,2.7-1.1,2.8-2.6h-5.6C11.3,25.5,12.5,26.7,14,26.6z M22.4,18.9v-6.4
	c0.2-3.9-2.5-7.3-6.3-8.1V3.7c-0.1-1.1-1-2-2.1-1.9c-1.1-0.1-2,0.8-2.1,1.9v0.9c-3.8,0.8-6.5,4.2-6.3,8.1v6.4l-2.8,2.6v1.3h22.4
	v-1.3L22.4,18.9z M19.6,20.2H8.4v-7.6c-0.2-3,2.1-5.6,5.1-5.7c0.2,0,0.3,0,0.5,0c3-0.1,5.5,2.3,5.6,5.3c0,0.2,0,0.3,0,0.5V20.2z"/>
</svg>
