<svg xmlns="http://www.w3.org/2000/svg" width="36" height="36" viewBox="0 0 36 36">
    <defs>
        <style>
            .cls-1{fill:#50abf1}.cls-2{fill:#fff}
        </style>
    </defs>
    <g id="Group_2181" data-name="Group 2181" transform="translate(-241 -442)">
        <rect id="Rectangle_2425" width="36" height="36" class="cls-1" data-name="Rectangle 2425" rx="8" transform="translate(241 442)"/>
        <path id="Path_2230" d="M60.359 115.14a15.5 15.5 0 0 0 23.782-13.1q0-.321-.013-.637a12.178 12.178 0 0 0 2.694-2.765 12.57 12.57 0 0 1-3.077.8h-.01l.008-.005c.14-.094 2.1-1.428 2.366-3.018a18.878 18.878 0 0 1-2.64 1.1 16.22 16.22 0 0 1-.8.245 5.438 5.438 0 0 0-9.267 4.946 16.375 16.375 0 0 1-11.161-5.642s-2.6 3.548 1.549 7.2a5.587 5.587 0 0 1-2.349-.7 5.168 5.168 0 0 0 4.3 5.4 4.976 4.976 0 0 1-2.4.1 5.36 5.36 0 0 0 5 3.8 10.444 10.444 0 0 1-7.985 2.282z" class="cls-2" data-name="Path 2230" transform="translate(185.41 353.546)"/>
    </g>
</svg>
