<?xml version="1.0" encoding="utf-8"?>
<!-- Generator: Adobe Illustrator 22.0.0, SVG Export Plug-In . SVG Version: 6.00 Build 0)  -->
<svg version="1.1" id="Layer_1" xmlns="http://www.w3.org/2000/svg" xmlns:xlink="http://www.w3.org/1999/xlink" x="0px" y="0px"
	 viewBox="0 0 108.8 59.5" style="enable-background:new 0 0 108.8 59.5;" xml:space="preserve">
<style type="text/css">
	.st0{fill:#FFEBEF;}
	.st1{fill:url(#Path_3491_1_);}
	.st2{fill:#6ECCBC;}
	.st3{fill:url(#Path_3493_1_);}
	.st4{fill:#F3F3F3;}
	.st5{fill:#E6E6E5;}
	.st6{opacity:0.4;fill:#FFEBEF;enable-background:new    ;}
	.st7{fill:#EA4249;}
	.st8{fill:url(#Path_3498_1_);}
	.st9{fill:url(#Path_3501_1_);}
	.st10{fill:url(#Path_3502_1_);}
	.st11{fill:#F2A384;}
	.st12{fill:url(#Path_3504_1_);}
	.st13{fill:#46C0BB;}
	.st14{fill:#1A1A1A;}
	.st15{fill:#2F1D40;}
	.st16{fill:url(#Path_3509_1_);}
	.st17{fill:url(#Path_3510_1_);}
	.st18{fill:url(#Path_3511_1_);}
	.st19{fill:url(#Path_3513_1_);}
	.st20{opacity:0.2;fill:#010101;enable-background:new    ;}
	.st21{fill:url(#Path_3515_1_);}
	.st22{fill:#010101;}
	.st23{opacity:0.15;fill:#010101;enable-background:new    ;}
	.st24{fill:url(#Path_3523_1_);}
	.st25{fill:#FEF8E3;}
	.st26{fill:url(#Path_3525_1_);}
	.st27{fill:url(#Rectangle_2563_1_);}
	.st28{fill:url(#Rectangle_2564_1_);}
	.st29{fill:url(#Rectangle_2565_1_);}
	.st30{fill:url(#Path_3529_1_);}
	.st31{fill:url(#Rectangle_2566_1_);}
	.st32{fill:url(#Rectangle_2567_1_);}
	.st33{fill:url(#Rectangle_2568_1_);}
	.st34{fill:url(#Path_3533_1_);}
	.st35{fill:url(#Rectangle_2569_1_);}
	.st36{fill:url(#Rectangle_2570_1_);}
	.st37{fill:url(#Rectangle_2571_1_);}
	.st38{opacity:0.15;fill:#EB3037;enable-background:new    ;}
	.st39{fill:url(#Rectangle_2573_1_);}
	.st40{fill:url(#Rectangle_2574_1_);}
	.st41{opacity:0.1;fill:#EF5E63;enable-background:new    ;}
	.st42{fill:url(#Path_3549_1_);}
	.st43{fill:url(#Path_3557_1_);}
	.st44{fill:url(#Path_3558_1_);}
	.st45{fill:#301D41;}
	.st46{fill:url(#Path_3562_1_);}
	.st47{fill:#2F1D49;}
	.st48{fill:url(#Rectangle_2540_1_);}
	.st49{fill:url(#Rectangle_2540-2_1_);}
	.st50{fill:#7D000F;}
</style>
<g id="Layer_1_1_" transform="translate(.001)">
	<path id="Path_3489" class="st0" d="M73.1,46.7c0,0-7.4,2.5-4.1,3.6s7.5,2.7,8.8,4.8s7,5.6,11.8,3.9s9.7-0.6,12.8,0.4
		s10-4.9,3.7-6.6c-8.7-2.4-9.6-1.7-11.9-4S75.3,45.8,73.1,46.7L73.1,46.7z"/>
	<path id="Path_3490" class="st0" d="M7.2,51c0,0-4.1,1.5-2.4,2.7c3.6,2.6,6.9,0,11.1,1.3c7.5,2.4,8.6,1.1,18.1-2.2
		c6-2.1-11.3-5.6-13.6-5.6S9.3,50.1,7.2,51L7.2,51z"/>
	
		<linearGradient id="Path_3491_1_" gradientUnits="userSpaceOnUse" x1="11.0704" y1="85.412" x2="11.0704" y2="84.412" gradientTransform="matrix(25.6637 0 0 -27.7265 -217.5428 2393.592)">
		<stop  offset="0" style="stop-color:#DDF4F1"/>
		<stop  offset="1" style="stop-color:#91DBD0"/>
	</linearGradient>
	<path id="Path_3491" class="st1" d="M55.4,32.8c4.1,0.5,8.3,2.9,7.7,5.3s-2.9,1.8-3.5-1.3c-0.7-3.2-7.8-2-5.3-0.3
		c2.6,1.7,5.2,4.8,3.4,8.2c-1.8,3.5,1.8,7.8,1.8,7.8c0.2,0.1,0.4,0.3,0.7,0.4c0.4,0.3,0.8,0.3,1.2,0c1.2-0.9,0.6-4.9,3.9-6
		c4.5-1.5,7.3,0.6,7.4-1.8c0.1-2-4.9-3.6,2.8-3.8c8.5-0.2-4.5-3-3.6-5.8c0.4-1.2,1.7-1.1,5.7-0.7c4,0.4-0.2-3.5-1.7-3.5
		c-1.5-0.1-3.1-1-3.3-2.3c-0.3-1.7-1.5-3.1-3-3.7c-0.3-0.2,2.4,4.8-0.9,2.3c-3.3-2.4-7.5-0.2-7.1,0.6c0.4,0.8,7.2,0.7,6.1,3.3
		c-1.1,2.6-4.4,0.7-6.2-1.4C59.8,28.1,51.3,32.3,55.4,32.8L55.4,32.8z"/>
	<path id="Path_3492" class="st2" d="M58.2,38.6c0.9,1.5,1.9,2.9,3,4.3c0.2,0.2,0.4,0.5,0.6,0.7c0,0,0.1-0.1,0.1-0.1
		c0.4-0.7,1-1.3,1.5-1.8c0.6-0.7,1.2-1.4,1.8-2.1c0.1-0.1,0.2-0.2,0.3-0.4c0.4-0.5,0.8-1,1.2-1.5c-1.2-1.7-2.3-3.5-3.3-5.3
		c1.1,1.8,2.2,3.4,3.5,5.1c0.4-0.5,0.7-1,1.1-1.4c0.8-1.1,1.5-2.1,2.1-3.3l0.1-0.2c0.2-0.3,0.3-0.6,0.5-0.9
		c-0.1-0.1-0.1-0.1-0.1-0.2c-0.6-0.9-1.2-1.9-1.7-2.8c0.6,0.9,1.2,1.8,1.8,2.7c0,0.1,0.1,0.1,0.1,0.2c0.3-0.6,0.6-1.2,0.8-1.8
		c-0.3,1-0.6,2-1.1,2.9c1.1,0,2.1,0,3.2,0c-1.1,0.1-2.2,0.2-3.3,0.2c-0.6,1.2-1.2,2.5-2,3.6c-0.4,0.6-0.7,1.2-1.1,1.7
		c0,0.1-0.1,0.2-0.2,0.3c-0.2,0.3-0.4,0.6-0.6,0.9c0,0,0,0,0.1,0c2.4,0.2,4.9,0.3,7.3,0.2c-2.4,0.2-4.9,0.3-7.4,0.2
		c-0.1,0-0.2,0-0.3,0c-0.7,0.9-1.4,1.8-2.1,2.7c-0.3,0.4-0.7,0.8-1,1.3c1.7,0.1,3.5,0.1,5.2,0c-1.8,0.2-3.6,0.2-5.4,0.2
		c-0.3,0.4-0.6,0.9-0.9,1.4c-0.5,1-0.9,2.1-1,3.3c-0.2,1.5,0,3,0.4,4.5c-0.4,0.2-0.9,0.2-1.2,0c-0.4-1.5-0.6-3.1-0.4-4.6
		c0.2-1.3,0.6-2.5,1.2-3.6c0.2-0.3,0.3-0.5,0.5-0.8c-0.2-0.2-0.3-0.4-0.5-0.7C60,41.7,59,40.2,58.2,38.6L58.2,38.6z"/>
	
		<linearGradient id="Path_3493_1_" gradientUnits="userSpaceOnUse" x1="7.7041" y1="83.5893" x2="8.7311" y2="83.5893" gradientTransform="matrix(11.605 0 0 -11.7568 -52.2839 1027.8904)">
		<stop  offset="0" style="stop-color:#30296D"/>
		<stop  offset="0.2" style="stop-color:#4C5685"/>
		<stop  offset="0.47" style="stop-color:#6F8DA3"/>
		<stop  offset="0.7" style="stop-color:#88B5B9"/>
		<stop  offset="0.89" style="stop-color:#97CEC6"/>
		<stop  offset="1" style="stop-color:#9DD7CB"/>
	</linearGradient>
	<path id="Path_3493" class="st3" d="M66.2,49.9c0.7-1.8,2.2-3.4,3.2-2.9s0.5,1.5-1,1.5s-1.7,3.3-0.7,2.4s2.7-1.9,4.1-0.7
		s3.7,0,3.7,0c0.1-0.1,0.2-0.2,0.2-0.3c0.2-0.1,0.2-0.4,0.1-0.6c-0.3-0.6-2.1-0.8-2.3-2.4c-0.2-2.2,1.1-3.2,0-3.5
		c-0.9-0.3-2.1,1.8-1.4-1.7c0.8-3.8-1.8,1.7-3,1c-0.5-0.3-0.3-0.9,0.3-2.7s-1.6-0.3-1.8,0.4s-0.8,1.3-1.4,1.3c-0.8,0-1.5,0.3-2,1
		c-0.1,0.1,2.4-0.6,1,0.6s-0.9,3.3-0.5,3.3s1.1-3.2,2.1-2.4s-0.1,2.1-1.3,2.7S65.5,51.7,66.2,49.9L66.2,49.9z"/>
	<path id="Path_3494" class="st4" d="M69.1,49.3c0.8-0.3,1.5-0.6,2.3-0.9c0.1-0.1,0.3-0.1,0.4-0.2c0,0,0,0,0-0.1
		c-0.3-0.3-0.5-0.6-0.7-0.9c-0.3-0.4-0.5-0.7-0.8-1.1c0-0.1-0.1-0.1-0.1-0.2c-0.2-0.2-0.4-0.5-0.5-0.7c-0.9,0.4-1.8,0.7-2.7,0.9
		c0.9-0.3,1.8-0.6,2.7-1c-0.2-0.2-0.4-0.4-0.5-0.6c-0.4-0.5-0.8-0.9-1.2-1.3l-0.1-0.1c-0.1-0.1-0.2-0.2-0.4-0.3l-0.1,0
		c-0.5,0.2-1,0.3-1.5,0.5c0.5-0.2,0.9-0.3,1.4-0.5c0,0,0.1,0,0.1,0c-0.2-0.2-0.5-0.4-0.7-0.6c0.4,0.2,0.8,0.5,1.2,0.8
		c0.1-0.5,0.2-1,0.3-1.5c-0.1,0.5-0.2,1-0.3,1.5c0.5,0.4,1,0.8,1.4,1.3c0.2,0.2,0.4,0.5,0.6,0.7c0,0,0.1,0.1,0.1,0.1
		c0.1,0.1,0.2,0.3,0.3,0.4c0,0,0,0,0,0c0.4-1.1,0.6-2.2,0.9-3.3c-0.2,1.1-0.4,2.2-0.7,3.3c0,0,0,0.1,0,0.1c0.4,0.4,0.7,0.8,1,1.2
		c0.2,0.2,0.3,0.4,0.5,0.6c0.2-0.8,0.4-1.6,0.6-2.3c-0.1,0.8-0.3,1.7-0.5,2.5c0.2,0.2,0.3,0.4,0.5,0.5c0.4,0.3,0.9,0.6,1.4,0.8
		c0.7,0.2,1.4,0.3,2.1,0.3c0.1,0.2,0,0.4-0.1,0.6c-0.7,0-1.4-0.1-2.1-0.3c-0.6-0.2-1.1-0.5-1.5-0.9c-0.1-0.1-0.2-0.2-0.3-0.3
		c-0.1,0-0.2,0.1-0.4,0.1C70.7,48.8,69.9,49.1,69.1,49.3L69.1,49.3z"/>
	<path id="Path_3495" class="st5" d="M0,40v2.6c0,0.3,0.2,0.6,0.5,0.6c0,0,0,0,0,0h1.5c0.1,0.4,0.2,0.7,0.3,1.1l-1.3,0.8
		c-0.3,0.1-0.4,0.5-0.2,0.7c0,0,0,0,0,0l1.3,2.3c0.2,0.3,0.5,0.4,0.8,0.2c0,0,0,0,0,0l1.3-0.7c0.3,0.3,0.5,0.5,0.8,0.8l-0.8,1.3
		c-0.1,0.3,0,0.6,0.2,0.8l2.3,1.3c0.3,0.2,0.6,0.1,0.8-0.2c0,0,0,0,0,0l0.8-1.3c0.4,0.1,0.7,0.2,1.1,0.3V52c0,0.3,0.2,0.6,0.5,0.6
		c0,0,0,0,0,0h2.6c0.3,0,0.6-0.2,0.6-0.5c0,0,0,0,0,0v-1.5c0.4-0.1,0.7-0.2,1.1-0.3l0.8,1.3c0.2,0.3,0.5,0.4,0.8,0.2c0,0,0,0,0,0
		l2.3-1.3c0.3-0.2,0.4-0.5,0.2-0.8c0,0,0,0,0,0l-0.7-1.3c0.3-0.3,0.5-0.5,0.8-0.8l1.3,0.8c0.3,0.2,0.6,0.1,0.8-0.2c0,0,0,0,0,0
		l0.5-0.8l-1.9-1.1c-0.4-0.2-0.5-0.7-0.3-1.1l1.1-1.9c-0.4-0.4-0.8-0.8-1.2-1.2l-0.2,0.1c-0.4,3.9-3.9,6.7-7.8,6.3
		c-3.9-0.4-6.7-3.9-6.3-7.8c0.4-3.6,3.5-6.4,7.1-6.4c0.4,0,0.7,0,1.1,0.1V31c0-0.4,0.2-0.7,0.6-0.8c-0.1-0.1-0.2-0.1-0.3-0.1H10
		c-0.3,0-0.6,0.2-0.6,0.5c0,0,0,0,0,0v1.5c-0.4,0.1-0.7,0.2-1.1,0.3l-0.8-1.3c-0.2-0.3-0.5-0.4-0.8-0.2c0,0,0,0,0,0l-2.3,1.3
		c-0.3,0.2-0.4,0.5-0.2,0.8L5,34.3c-0.3,0.2-0.6,0.5-0.8,0.8l-1.3-0.8c-0.3-0.1-0.6-0.1-0.8,0.2c0,0,0,0,0,0l-1.3,2.3
		c-0.2,0.3-0.1,0.6,0.2,0.8c0,0,0,0,0,0l1.3,0.8c-0.1,0.4-0.2,0.7-0.3,1.1H0.6C0.3,39.5,0,39.7,0,40C0,40,0,40,0,40L0,40z"/>
	<path id="Path_3496" class="st6" d="M44.9,30.3c-0.1-0.1-0.3-0.1-0.4-0.1h-2.2c0-0.2-0.1-0.4-0.1-0.5c-0.1-0.4-0.2-0.7-0.3-1
		l1.5-0.9l0.4-0.2c0.3-0.2,0.4-0.4,0.4-0.7c0-0.1,0-0.1,0-0.2c0-0.1,0-0.1-0.1-0.2l-0.7-1.2L42.1,23c-0.2-0.4-0.7-0.5-1.1-0.3
		l-0.4,0.2l-1.5,0.9c-0.4-0.4-0.8-0.8-1.2-1.2l1.1-1.9c0.2-0.4,0.1-0.9-0.3-1.1l-3.3-1.9c-0.3-0.2-0.7-0.1-0.9,0.1c0,0,0,0-0.1,0.1
		c0,0-0.1,0.1-0.1,0.2L34,18.4l-0.6,0.9l-0.3,0.5c-0.1,0-0.2-0.1-0.2-0.1c-0.4-0.1-0.9-0.3-1.4-0.3v-2.2c0-0.4-0.3-0.7-0.6-0.8
		c-0.1,0-0.1,0-0.2,0h-3.8c-0.4,0-0.8,0.4-0.8,0.8c0,0,0,0,0,0v2.2c-0.1,0-0.3,0.1-0.4,0.1c-0.4,0.1-0.8,0.2-1.2,0.3L23.4,18
		c-0.2-0.4-0.7-0.5-1.1-0.3c0,0,0,0,0,0l-0.4,0.2L21.6,18l-2.7,1.6c-0.4,0.2-0.5,0.7-0.3,1.1l1.1,1.9c-0.4,0.4-0.8,0.8-1.2,1.2
		l-0.1-0.1l-1.8-1c-0.3-0.2-0.8-0.1-1,0.2c0,0-0.1,0.1-0.1,0.1l-1.1,1.9l-0.8,1.4c-0.2,0.4-0.1,0.9,0.3,1.1c0,0,0,0,0,0l0.4,0.2
		l0.8,0.4l0.7,0.4c-0.2,0.5-0.3,1.1-0.5,1.6h-2.2c-0.1,0-0.2,0-0.3,0c0,0-0.1,0-0.1,0c0,0,0,0,0,0c0,0,0,0-0.1,0c0,0,0,0-0.1,0.1
		l0,0c0,0,0,0-0.1,0.1c0,0,0,0,0,0.1l0,0.1l0,0.1c0,0,0,0,0,0.1l0,0.1c0,0.1,0,0.1,0,0.2v3.9c0,0.4,0.3,0.8,0.8,0.8c0,0,0,0,0,0h2.2
		c0.1,0.5,0.3,1.1,0.4,1.6L14.4,38l-0.5,0.3c-0.4,0.2-0.5,0.7-0.3,1.1c0,0,0,0,0,0l1.3,2.3l0.1,0.1l0.5,0.9c0.2,0.4,0.6,0.5,1,0.4h0
		c0,0,0.1,0,0.1,0l0.2-0.1l1.2-0.7l0.2-0.1l0.2-0.1c0.4,0.4,0.8,0.8,1.2,1.2l-0.5,0.9l-0.1,0.2L18.6,45c-0.2,0.4-0.1,0.9,0.3,1.1
		l0.9,0.5l0.9,0.5l0.1,0.1l0.2,0.1l0.6,0.3l0.6,0.3c0.2,0.1,0.4,0.1,0.6,0.1c0.2,0,0.4-0.2,0.5-0.4l0.1-0.2l0.8-1.4l0.2-0.3
		c0.5,0.2,1.1,0.3,1.6,0.4v2.2c0,0.4,0.4,0.8,0.8,0.8c0,0,0,0,0,0h3.8c0.1,0,0.1,0,0.2,0c0.4-0.1,0.6-0.4,0.6-0.7v-2.3
		c0.5-0.1,1.1-0.2,1.6-0.4l0.8,1.5l0.3,0.5c0.2,0.4,0.7,0.5,1.1,0.3c0,0,0,0,0,0l1.4-0.8l0.2-0.1l1.4-0.8l0.4-0.2
		c0.4-0.2,0.5-0.7,0.3-1c0,0,0-0.1,0-0.1l-0.7-1.2l-0.4-0.7c0.3-0.3,0.6-0.6,0.9-0.9c0.1-0.1,0.2-0.2,0.3-0.3l1.2,0.7l0.7,0.4
		c0.2,0.1,0.4,0.1,0.6,0.1c0.2,0,0.4-0.2,0.6-0.4l0.1-0.1l1.8-3.2l0-0.1c0.1-0.2,0.1-0.3,0.1-0.5c0-0.2-0.2-0.5-0.4-0.6l-1.9-1.1
		c0.1-0.4,0.3-0.9,0.4-1.3c0,0,0,0,0,0c0-0.1,0-0.2,0.1-0.2h2.2c0.5,0,0.8-0.4,0.8-0.8c0,0,0,0,0,0V31
		C45.3,30.7,45.1,30.4,44.9,30.3L44.9,30.3z M39.2,33.4c0,0.7-0.1,1.3-0.3,2c-0.1,0.3-0.2,0.7-0.3,1c-0.1,0.3-0.2,0.6-0.4,0.9
		c-0.2,0.3-0.4,0.7-0.6,1c-0.9,1.5-2.2,2.7-3.8,3.6c-0.1,0-0.1,0.1-0.2,0.1s-0.1,0.1-0.2,0.1c-0.9,0.5-1.9,0.8-3,1
		c-0.1,0-0.1,0-0.2,0c-0.5,0.1-1,0.1-1.5,0.1c-2.3,0-4.5-0.7-6.3-2.1c-0.3-0.2-0.6-0.5-0.9-0.8c-0.3-0.3-0.6-0.6-0.8-0.9
		c-0.2-0.2-0.3-0.4-0.5-0.7c-0.8-1.2-1.4-2.5-1.7-3.9c-0.1-0.6-0.2-1.2-0.2-1.8c0-0.1,0-0.2,0-0.3c0-0.8,0.1-1.5,0.2-2.3
		c0,0,0-0.1,0-0.1c0-0.1,0.1-0.3,0.1-0.4c0.1-0.2,0.1-0.5,0.2-0.7c0.5-1.3,1.2-2.6,2.2-3.6c0.1-0.1,0.2-0.2,0.4-0.4
		c3.5-3.4,8.9-3.9,13-1.1c0.5,0.3,0.9,0.6,1.3,1c0.3,0.3,0.6,0.6,0.9,1c0.5,0.6,0.9,1.3,1.3,2c0.2,0.3,0.3,0.7,0.5,1
		c0.4,1.2,0.7,2.4,0.7,3.7C39.2,33.1,39.2,33.2,39.2,33.4L39.2,33.4z"/>
	<path id="Path_3497" class="st7" d="M98.1,44.5c0,0.8-0.1,1.6-0.4,2.4c-1.2,3.6-5.4,6.2-12.8,6.2c-9,0-17.4-5.7-17.4-15.2
		c0-4.2,2-8.1,5.4-10.4c2.9-2,6.2-2.2,7.7-0.1C89.7,40.1,98.1,37.1,98.1,44.5L98.1,44.5z"/>
	
		<linearGradient id="Path_3498_1_" gradientUnits="userSpaceOnUse" x1="11.468" y1="84.121" x2="10.564" y2="85.164" gradientTransform="matrix(26.7964 0 0 -22.9027 -212.4299 1977.4347)">
		<stop  offset="0" style="stop-color:#EA4249"/>
		<stop  offset="1" style="stop-color:#D8121B"/>
	</linearGradient>
	<path id="Path_3498" class="st8" d="M98.1,44.5c0,0.8-0.1,1.6-0.4,2.4c-2.8,1.4-5.8,2-8.9,1.9c-9,0-17.4-5.6-17.4-15.1
		c0-2.1,0.5-4.3,1.6-6.1c2.9-2,6.2-2.2,7.7-0.1C89.7,40.1,98.1,37.1,98.1,44.5L98.1,44.5z"/>
	
		<linearGradient id="Path_3501_1_" gradientUnits="userSpaceOnUse" x1="10.7031" y1="84.7121" x2="11.2881" y2="83.8631" gradientTransform="matrix(21.881 0 0 -17.561 -147.961 1529.2972)">
		<stop  offset="0" style="stop-color:#9B0012"/>
		<stop  offset="1" style="stop-color:#67010D"/>
	</linearGradient>
	<path id="Path_3501" class="st9" d="M83.8,39.3l8,5.2l-0.3-0.1c0.8,0.3,1.5,0.8,2.1,1.5l1.4,1.4l2.8,2.7l5.7,5.4l-1.3,1.5l-6.1-4.9
		l-3.1-2.5c-1-0.7-2.2-1.9-2.7-2h0l-0.2-0.1l-8.5-4.4L83.8,39.3z"/>
	
		<linearGradient id="Path_3502_1_" gradientUnits="userSpaceOnUse" x1="11.0422" y1="84.7522" x2="10.1412" y2="83.9672" gradientTransform="matrix(13.8116 0 0 -15.9059 -56.3243 1383.9402)">
		<stop  offset="0" style="stop-color:#9B0012"/>
		<stop  offset="1" style="stop-color:#67010D"/>
	</linearGradient>
	<path id="Path_3502" class="st10" d="M85.8,36.9l6.7,1.4l3.4,0.7l0.2,0c0.2,0,0.3,0.1,0.5,0.1c1,0.4,1.8,1.4,1.8,2.5
		c0.1,0.7-0.2,1.4-0.6,2c-0.1,0.1-0.2,0.3-0.4,0.4l-0.2,0.1l-0.3,0.3l-11,8.3l-1.3-1.5L94.7,42l0.3-0.3l0.2-0.1c0,0,0,0-0.1,0.1
		C95,41.7,95,41.9,95,42c0,0.1,0.1,0.3,0.2,0.4c0.1,0.1,0.1,0.1,0.2,0.1c0,0,0.1,0,0.1,0l-0.2,0L91.8,42L85,41L85.8,36.9z"/>
	<path id="Path_3503" class="st11" d="M84.3,23.3c-0.1,0.4-0.3,0.8-0.5,1.2l-0.5,0.9l-0.4,0.7l-1.6-1.7l0-0.1l0.5-0.9
		c0.1-0.2,0.3-0.4,0.4-0.7c0.1-0.2,0-0.5-0.1-0.7l-6.5-1.4l0.3-1.4l6.8,1.1l0.2,0l0.2,0.1C84.2,21.1,84.6,22.2,84.3,23.3L84.3,23.3z
		"/>
	
		<linearGradient id="Path_3504_1_" gradientUnits="userSpaceOnUse" x1="10.4014" y1="84.5784" x2="10.9514" y2="83.6494" gradientTransform="matrix(13.7576 0 0 -16.67 -66.2443 1437.2242)">
		<stop  offset="0" style="stop-color:#6DD0C1"/>
		<stop  offset="1" style="stop-color:#28A891"/>
	</linearGradient>
	<path id="Path_3504" class="st12" d="M85.8,40.8c-2.2-0.6-4.5-1-6.7-1.5l-1.1-0.2c-0.3-0.1-0.2-0.1-0.3-0.1c-0.1-0.1,0,0-0.1-0.3
		l-0.2-1.1c-0.1-0.6-0.1-1.1-0.3-1.7c-0.4,0.1-0.9,0.2-1.6,0.3c-0.2,0-0.5,0.1-0.8,0.1c-0.1,0-0.2,0-0.3,0.1
		c-0.5-2.2-0.6-4.4-0.1-6.6c0.1-0.3,0.2-0.7,0.3-1c0,0,0-0.1,0-0.1c0.3-0.8,0.9-1.4,1.5-1.9c0.7-0.3,1.6-0.5,2.4-0.4
		c0.1,0,0.1,0,0.2,0h0c0.5,0.1,2.4-2.2,2.4-2.2l0.2,0.2l1.6,1.7l0.2,0.3c-0.3,0.7-0.6,1.4-1,2c-0.3,0.4-0.4,0.9-0.4,1.4v0
		c1.5,2.7,3.5,5.1,5.8,7.2C88.3,37.6,87.2,39.3,85.8,40.8z"/>
	<path id="Path_3505" class="st13" d="M84.5,42.3c-1.1,1.2-2.1,2-2.1,2c-1.1-0.8-2.1-1.7-3-2.7C81.1,41.8,82.8,42.1,84.5,42.3
		L84.5,42.3z"/>
	<path id="Path_3506" class="st11" d="M79,22.6l-0.2,1.8c-0.1,0.7-0.5,1.2-1,1.5c0,0,0,0,0,0c0,0,0,0.2,0.4,0.4l-0.4,1l-0.6-0.1H77
		l-1.4-0.1c0.1-0.1,0.1-0.3,0.2-0.4c0,0,0-0.1,0-0.1c0.1-0.2,0.1-0.4,0.1-0.6L75.6,26c-0.9-0.1-1.8-0.7-2.2-1.5
		c0.5-0.3,0.9-0.8,1-1.4c0-0.2,0.1-0.5,0.3-0.6l3.8-0.7l0.3-0.1C79,22,79,22.3,79,22.6L79,22.6z"/>
	<path id="Path_3507" class="st14" d="M78.9,21.7l-0.3,0.1l-3.8,0.7c-0.1,0.2-0.2,0.4-0.3,0.6c-0.2,0.6-0.5,1.1-1,1.4v0
		c-0.2-0.3-0.3-0.6-0.3-1V23l0-0.2l0.1-0.7c0-0.1,0.1-0.3,0.1-0.4c0.3-0.9,1.2-1.5,2.2-1.4l0.4,0.1h0l1.4,0.2
		C78.1,20.5,78.7,21,78.9,21.7L78.9,21.7z"/>
	<path id="Path_3508" class="st15" d="M79,21.6c0,0.1,0,0.1-0.1,0.1l-0.3,0.1c-0.8,0-1.5-0.1-2.2-0.2c-0.7,0-1.3,0.4-1.6,0.9
		c-0.1,0.2-0.2,0.4-0.3,0.6c-0.2,0.6-0.5,1.1-1,1.4v0c-0.2-0.3-0.3-0.6-0.3-1v-0.5c0-0.1,0-0.1,0-0.2v-0.7c0-0.2,0.1-0.3,0.2-0.5
		c0.7-0.6,1.6-1.1,2.6-1.4h0c0.5-0.2,0.9-0.3,1.4-0.3C77.8,19.9,79.1,21.2,79,21.6L79,21.6z"/>
	
		<linearGradient id="Path_3509_1_" gradientUnits="userSpaceOnUse" x1="9.767" y1="79.5492" x2="10.767" y2="79.7012" gradientTransform="matrix(8.8741 0 0 -4.2948 -16.4339 362.939)">
		<stop  offset="0" style="stop-color:#850000"/>
		<stop  offset="1" style="stop-color:#EB3037"/>
	</linearGradient>
	<path id="Path_3509" class="st16" d="M79,21.6c0-0.1,0-0.1,0-0.2c-0.1-0.6-0.4-1.1-0.9-1.6c-0.1-0.1-0.2-0.2-0.4-0.3
		C77,19,76.2,18.8,75.4,19c-1.5,0.3-2.7,1.6-2.6,3.2l-2.3,0.4c-0.2,0-0.3,0.2-0.3,0.3c0,0,0,0,0,0.1c0,0.2,0.2,0.3,0.3,0.3
		c0,0,0,0,0,0l2.6-0.4l0,0l1.6-0.3l1.8-0.3l2-0.4l0.3-0.1H79L79,21.6z M78.7,21.5c0,0.1-0.1,0.2-0.2,0.2l-0.5,0.1
		c-0.1,0-0.2-0.1-0.2-0.2v-0.1c0-0.1,0.1-0.2,0.2-0.2l0.5-0.1c0,0,0,0,0,0c0,0,0,0,0.1,0C78.6,21.3,78.7,21.4,78.7,21.5L78.7,21.5z"
		/>
	
		<linearGradient id="Path_3510_1_" gradientUnits="userSpaceOnUse" x1="10.2052" y1="81.9486" x2="10.5612" y2="81.0966" gradientTransform="matrix(9.1539 0 0 -6.42 -4.754 565.5222)">
		<stop  offset="0" style="stop-color:#F9D65C"/>
		<stop  offset="1" style="stop-color:#F2771D"/>
	</linearGradient>
	<path id="Path_3510" class="st17" d="M94.1,37.9l-3.9,6.4l-5.3-0.6l5.9-5.8H94.1z"/>
	
		<linearGradient id="Path_3511_1_" gradientUnits="userSpaceOnUse" x1="9.7906" y1="83.5905" x2="9.9096" y2="83.1485" gradientTransform="matrix(6.4811 0 0 -11.554 29.9216 1003.8896)">
		<stop  offset="0" style="stop-color:#F9D65C"/>
		<stop  offset="1" style="stop-color:#F49422"/>
	</linearGradient>
	<path id="Path_3511" class="st18" d="M95.9,38.5l-5.7,5.8l1.1-6.3l5.4-5.2L95.9,38.5z"/>
	<path id="Path_3512" class="st11" d="M89.1,42.3c-0.4,0.4-0.9,0.6-1.5,0.6c-0.3-0.1-0.6-0.2-0.9-0.3c-0.7-0.1-1.5-0.2-2.2-0.3
		c-1.7-0.2-3.4-0.4-5.1-0.7c-0.2,0-0.4-0.1-0.6-0.1l-1.1-0.1c-0.6-0.1-1.2-0.3-1.6-0.8c-0.4-0.4-0.7-1-0.8-1.6l-0.2-1.1
		c-0.1-0.5-0.2-1-0.2-1.6c0.3,0,0.6-0.1,0.8-0.1c0.7-0.1,1.2-0.2,1.6-0.3c0.1,0.6,0.2,1.1,0.3,1.7l0.2,1.1c0,0.3,0,0.2,0.1,0.3
		c0.1,0.1,0,0.1,0.3,0.1l1.1,0.2c2.2,0.5,4.5,0.9,6.7,1.5c0.4,0.1,0.7,0.2,1.1,0.3c0.1-0.1,0.2-0.1,0.4-0.1c0.1-0.2,0.2-0.3,0.4-0.4
		c0.3-0.2,0.6-0.2,0.7,0c0.1,0.1,0,0.3-0.2,0.4c0.1,0,0.2,0,0.3,0.1C89.3,41.2,89.7,41.6,89.1,42.3z"/>
	
		<linearGradient id="Path_3513_1_" gradientUnits="userSpaceOnUse" x1="11.2288" y1="85.5094" x2="11.2288" y2="84.8784" gradientTransform="matrix(40.714 0 0 -53.211 -415.1735 4569.6763)">
		<stop  offset="0" style="stop-color:#F7FAFF"/>
		<stop  offset="1" style="stop-color:#F3D6DB"/>
	</linearGradient>
	<path id="Path_3513" class="st19" d="M22.1,0h39.9c0.2,0,0.4,0.2,0.4,0.4c0,0,0,0,0,0v52.8H21.6V0.4C21.6,0.2,21.8,0,22.1,0
		C22.1,0,22.1,0,22.1,0z"/>
	<path id="Path_3514" class="st20" d="M22,2.2h40c0.2,0,0.4,0.2,0.4,0.4v6H21.6v-6C21.6,2.4,21.8,2.2,22,2.2z"/>
	
		<linearGradient id="Path_3515_1_" gradientUnits="userSpaceOnUse" x1="11.2288" y1="82.0493" x2="11.2288" y2="83.1513" gradientTransform="matrix(40.714 0 0 -8.423 -415.1735 700.6279)">
		<stop  offset="0" style="stop-color:#EB3037"/>
		<stop  offset="1" style="stop-color:#9B0012"/>
	</linearGradient>
	<path id="Path_3515" class="st21" d="M22.1,0h39.9c0.2,0,0.4,0.2,0.4,0.4c0,0,0,0,0,0v8H21.6v-8C21.6,0.2,21.8,0,22.1,0
		C22.1,0,22.1,0,22.1,0z"/>
	<path id="Path_3516" class="st22" d="M25.3,4.3c0,0.4-0.3,0.7-0.7,0.7c-0.4,0-0.7-0.3-0.7-0.7c0-0.4,0.3-0.7,0.7-0.7c0,0,0,0,0,0
		C25,3.6,25.3,3.9,25.3,4.3z"/>
	<path id="Path_3517" class="st22" d="M28.1,4.3c0,0.4-0.3,0.7-0.7,0.7s-0.7-0.3-0.7-0.7s0.3-0.7,0.7-0.7h0
		C27.8,3.6,28.1,3.9,28.1,4.3z"/>
	<path id="Path_3518" class="st22" d="M30.9,4.3c0,0.4-0.3,0.7-0.7,0.7s-0.7-0.3-0.7-0.7s0.3-0.7,0.7-0.7h0
		C30.6,3.6,30.9,3.9,30.9,4.3z"/>
	<path id="Path_3519" class="st4" d="M25.2,4.2c0,0.4-0.3,0.7-0.7,0.7c-0.4,0-0.7-0.3-0.7-0.7c0-0.4,0.3-0.7,0.7-0.7
		c0.2,0,0.4,0.1,0.5,0.2C25.1,3.8,25.2,4,25.2,4.2z"/>
	<path id="Path_3520" class="st4" d="M28,4.2c0,0.4-0.3,0.7-0.7,0.7c-0.4,0-0.7-0.3-0.7-0.7c0-0.4,0.3-0.7,0.7-0.7
		c0.2,0,0.4,0.1,0.5,0.2C27.9,3.8,28,4,28,4.2z"/>
	<path id="Path_3521" class="st4" d="M30.8,4.2c0,0.4-0.3,0.7-0.7,0.7c-0.4,0-0.7-0.3-0.7-0.7c0-0.4,0.3-0.7,0.7-0.7
		c0.2,0,0.4,0.1,0.5,0.2C30.7,3.8,30.8,4,30.8,4.2z"/>
	<path id="Rectangle_2562" class="st4" d="M48.9,1.6h17.3c1.4,0,2.6,1.2,2.6,2.6l0,0c0,1.4-1.2,2.6-2.6,2.6H48.9
		c-1.4,0-2.6-1.2-2.6-2.6l0,0C46.3,2.8,47.5,1.6,48.9,1.6z"/>
	<path id="Path_3522" class="st23" d="M63.4,1.6h2.8c0.2,0,0.3,0.1,0.3,0.3v4.5c0,0.2-0.1,0.3-0.3,0.3h-2.8V1.6z"/>
	
		<linearGradient id="Path_3523_1_" gradientUnits="userSpaceOnUse" x1="9.3623" y1="81.1151" x2="9.3623" y2="80.1411" gradientTransform="matrix(5.148 0 0 -5.148 18.041 419.3521)">
		<stop  offset="0" style="stop-color:#F9D65C"/>
		<stop  offset="1" style="stop-color:#F2771D"/>
	</linearGradient>
	<path id="Path_3523" class="st24" d="M63.7,1.6h4.7c0.2,0,0.4,0.2,0.4,0.4c0,0,0,0,0,0v4.3c0,0.2-0.2,0.4-0.4,0.4l0,0h-4.7V1.6z"/>
	<path id="Path_3524" class="st25" d="M67.6,5.3l-0.6-0.6c0,0-0.1,0-0.1,0l-0.2-0.2c0.3-0.4,0.2-0.9-0.1-1.3l0,0
		c-0.4-0.4-1-0.4-1.4,0.1c-0.4,0.4-0.4,1,0.1,1.4c0.4,0.3,0.9,0.4,1.3,0.1l0.1,0.1l0.1,0.1c0,0,0,0.1,0,0.1l0.6,0.6c0,0,0.1,0,0.1,0
		l0.2-0.2C67.6,5.3,67.6,5.3,67.6,5.3C67.6,5.3,67.6,5.3,67.6,5.3L67.6,5.3z M66.6,4c-0.1,0.4-0.4,0.6-0.8,0.5s-0.6-0.4-0.5-0.8
		s0.4-0.6,0.8-0.5c0.3,0.1,0.5,0.3,0.5,0.5C66.6,3.8,66.6,3.9,66.6,4z"/>
	
		<linearGradient id="Path_3525_1_" gradientUnits="userSpaceOnUse" x1="9.8778" y1="82.0511" x2="9.8778" y2="82.6001" gradientTransform="matrix(6.785 0 0 -6.7861 -36.3746 572.3224)">
		<stop  offset="0" style="stop-color:#EB3037"/>
		<stop  offset="1" style="stop-color:#76181C"/>
	</linearGradient>
	<path id="Path_3525" class="st26" d="M34,13.5v6c0,0.2-0.2,0.4-0.3,0.4c0,0,0,0,0,0h-6c-0.2,0-0.4-0.2-0.4-0.4v-6
		c0-0.2,0.2-0.4,0.4-0.4h6C33.9,13.1,34,13.3,34,13.5L34,13.5z"/>
	<path id="Path_3526" class="st23" d="M34,16.5v3c0,0.2-0.2,0.4-0.3,0.4c0,0,0,0,0,0h-2.9c-0.1-0.1-0.1-0.2-0.1-0.2v-2.8
		c0-0.2,0.2-0.4,0.4-0.4h2.8C33.9,16.4,34,16.4,34,16.5L34,16.5z"/>
	
		<linearGradient id="Rectangle_2563_1_" gradientUnits="userSpaceOnUse" x1="10.0679" y1="58.4464" x2="10.0729" y2="60.5463" gradientTransform="matrix(7.698 0 0 -1.018 -30.3123 74.0458)">
		<stop  offset="0" style="stop-color:#EB3037"/>
		<stop  offset="1" style="stop-color:#76181C"/>
	</linearGradient>
	<path id="Rectangle_2563" class="st27" d="M43.4,13.1h7.7v1h-7.7V13.1z"/>
	
		<linearGradient id="Rectangle_2564_1_" gradientUnits="userSpaceOnUse" x1="10.5049" y1="58.4464" x2="10.5099" y2="60.5463" gradientTransform="matrix(11.09 0 0 -1.018 -67.6209 76.0108)">
		<stop  offset="0" style="stop-color:#EB3037"/>
		<stop  offset="1" style="stop-color:#76181C"/>
	</linearGradient>
	<path id="Rectangle_2564" class="st28" d="M43.4,15.1h11.1v1H43.4V15.1z"/>
	
		<linearGradient id="Rectangle_2565_1_" gradientUnits="userSpaceOnUse" x1="10.5087" y1="58.3472" x2="10.5057" y2="60.2632" gradientTransform="matrix(11.09 0 0 -1.018 -67.6209 77.9768)">
		<stop  offset="0" style="stop-color:#F9D65C"/>
		<stop  offset="1" style="stop-color:#F2771D"/>
	</linearGradient>
	<path id="Rectangle_2565" class="st29" d="M43.4,17h11.1v1H43.4V17z"/>
	
		<linearGradient id="Path_3529_1_" gradientUnits="userSpaceOnUse" x1="10.5078" y1="80.4722" x2="10.5078" y2="81.1652" gradientTransform="matrix(11.0974 0 0 -4.9874 -67.6998 427.3446)">
		<stop  offset="0" style="stop-color:#DDF4F1"/>
		<stop  offset="1" style="stop-color:#6DD0C1"/>
	</linearGradient>
	<path id="Path_3529" class="st30" d="M54.5,23.9v4.2c0,0.2-0.2,0.4-0.4,0.4H43.7c-0.2,0-0.4-0.2-0.4-0.4c0,0,0,0,0,0v-4.2
		c0-0.2,0.1-0.4,0.3-0.4c0,0,0,0,0,0h10.3C54.3,23.5,54.5,23.7,54.5,23.9C54.5,23.9,54.5,23.9,54.5,23.9z"/>
	<path id="Path_3530" class="st23" d="M45.3,26.9v1.6h-1.6c-0.2,0-0.4-0.2-0.4-0.4c0,0,0,0,0,0v-1.6H45
		C45.2,26.5,45.3,26.7,45.3,26.9z"/>
	
		<linearGradient id="Rectangle_2566_1_" gradientUnits="userSpaceOnUse" x1="12.8286" y1="113.1135" x2="12.8226" y2="110.3705" gradientTransform="matrix(-8.283 0 0 1.018 141.3207 -89.7048)">
		<stop  offset="0" style="stop-color:#EB3037"/>
		<stop  offset="1" style="stop-color:#76181C"/>
	</linearGradient>
	<path id="Rectangle_2566" class="st31" d="M39.2,25.2h-8.3v-1h8.3V25.2z"/>
	
		<linearGradient id="Rectangle_2567_1_" gradientUnits="userSpaceOnUse" x1="12.4223" y1="113.1135" x2="12.4163" y2="110.3705" gradientTransform="matrix(-11.934 0 0 1.018 181.4781 -87.7408)">
		<stop  offset="0" style="stop-color:#EB3037"/>
		<stop  offset="1" style="stop-color:#76181C"/>
	</linearGradient>
	<path id="Rectangle_2567" class="st32" d="M39.2,27.2H27.3v-1h11.9V27.2z"/>
	
		<linearGradient id="Rectangle_2568_1_" gradientUnits="userSpaceOnUse" x1="12.423" y1="114.0013" x2="12.419" y2="111.2343" gradientTransform="matrix(-11.934 0 0 1.018 181.4781 -85.7728)">
		<stop  offset="0" style="stop-color:#F9D65C"/>
		<stop  offset="1" style="stop-color:#F2771D"/>
	</linearGradient>
	<path id="Rectangle_2568" class="st33" d="M39.2,29.2H27.3v-1h11.9V29.2z"/>
	
		<linearGradient id="Path_3533_1_" gradientUnits="userSpaceOnUse" x1="10.5078" y1="80.6151" x2="10.5078" y2="81.1641" gradientTransform="matrix(11.0973 0 0 -4.9864 -67.6984 436.4644)">
		<stop  offset="0" style="stop-color:#EB3037"/>
		<stop  offset="1" style="stop-color:#76181C"/>
	</linearGradient>
	<path id="Path_3533" class="st34" d="M54.5,33.1v4.2c0,0.2-0.2,0.4-0.4,0.4c0,0,0,0,0,0H43.7c-0.2,0-0.4-0.1-0.4-0.3c0,0,0,0,0,0
		v-4.2c0-0.2,0.2-0.4,0.4-0.4c0,0,0,0,0,0h10.3C54.3,32.7,54.5,32.9,54.5,33.1z"/>
	<path id="Path_3534" class="st23" d="M45.3,36.1v1.6h-1.6c-0.2,0-0.4-0.1-0.4-0.3c0,0,0,0,0,0v-1.6H45
		C45.2,35.7,45.3,35.9,45.3,36.1C45.3,36.1,45.3,36.1,45.3,36.1L45.3,36.1z"/>
	
		<linearGradient id="Rectangle_2569_1_" gradientUnits="userSpaceOnUse" x1="12.8277" y1="112.5527" x2="12.8177" y2="110.3037" gradientTransform="matrix(-8.283 0 0 1.018 141.3207 -80.4828)">
		<stop  offset="0" style="stop-color:#EB3037"/>
		<stop  offset="1" style="stop-color:#76181C"/>
	</linearGradient>
	<path id="Rectangle_2569" class="st35" d="M39.2,34.5h-8.3v-1h8.3V34.5z"/>
	
		<linearGradient id="Rectangle_2570_1_" gradientUnits="userSpaceOnUse" x1="12.4214" y1="112.5527" x2="12.4114" y2="110.3037" gradientTransform="matrix(-11.934 0 0 1.018 181.4781 -78.5168)">
		<stop  offset="0" style="stop-color:#EB3037"/>
		<stop  offset="1" style="stop-color:#76181C"/>
	</linearGradient>
	<path id="Rectangle_2570" class="st36" d="M39.2,36.4H27.3v-1h11.9V36.4z"/>
	
		<linearGradient id="Rectangle_2571_1_" gradientUnits="userSpaceOnUse" x1="12.4207" y1="113.7004" x2="12.4207" y2="111.3444" gradientTransform="matrix(-11.934 0 0 1.018 181.4781 -76.5508)">
		<stop  offset="0" style="stop-color:#F9D65C"/>
		<stop  offset="1" style="stop-color:#F2771D"/>
	</linearGradient>
	<path id="Rectangle_2571" class="st37" d="M39.2,38.4H27.3v-1h11.9V38.4z"/>
	<path id="Rectangle_2572" class="st38" d="M32.3,42.7h2.8c1,0,1.8,0.8,1.8,1.8v2.8c0,1-0.8,1.8-1.8,1.8h-2.8c-1,0-1.8-0.8-1.8-1.8
		v-2.8C30.5,43.5,31.3,42.7,32.3,42.7z"/>
	
		<linearGradient id="Rectangle_2573_1_" gradientUnits="userSpaceOnUse" x1="9.2968" y1="80.6244" x2="9.2968" y2="81.1734" gradientTransform="matrix(4.995 0 0 -4.995 -5.62 447.1532)">
		<stop  offset="0" style="stop-color:#EB3037"/>
		<stop  offset="1" style="stop-color:#76181C"/>
	</linearGradient>
	<path id="Rectangle_2573" class="st39" d="M40,42.7h1.7c0.9,0,1.7,0.7,1.7,1.7V46c0,0.9-0.7,1.7-1.7,1.7H40c-0.9,0-1.7-0.7-1.7-1.7
		v-1.7C38.3,43.4,39.1,42.7,40,42.7z"/>
	
		<linearGradient id="Rectangle_2574_1_" gradientUnits="userSpaceOnUse" x1="9.2968" y1="80.6244" x2="9.2968" y2="81.1734" gradientTransform="matrix(4.995 0 0 -4.995 0.778 447.1532)">
		<stop  offset="0" style="stop-color:#EB3037"/>
		<stop  offset="1" style="stop-color:#76181C"/>
	</linearGradient>
	<path id="Rectangle_2574" class="st40" d="M46.4,42.7h1.7c0.9,0,1.7,0.7,1.7,1.7V46c0,0.9-0.7,1.7-1.7,1.7h-1.7
		c-0.9,0-1.7-0.7-1.7-1.7v-1.7C44.7,43.4,45.5,42.7,46.4,42.7z"/>
	<path id="Path_3548" class="st41" d="M62.4,39.9v3.4h-9.3c-0.9,0-1.7-0.8-1.7-1.7c0-0.9,0.8-1.7,1.7-1.7L62.4,39.9z"/>
	
		<linearGradient id="Path_3549_1_" gradientUnits="userSpaceOnUse" x1="10.7593" y1="78.8482" x2="10.7593" y2="78.2172" gradientTransform="matrix(14.87 0 0 -3.437 -101.199 309.4021)">
		<stop  offset="0" style="stop-color:#9B0012"/>
		<stop  offset="1" style="stop-color:#EB3037"/>
	</linearGradient>
	<path id="Path_3549" class="st42" d="M64.5,42.9H53.1c-0.9,0-1.7-0.8-1.7-1.7c0,0,0,0,0,0c0-0.9,0.8-1.7,1.7-1.7l0,0h11.4
		c0.9,0,1.7,0.8,1.7,1.7c0,0,0,0,0,0C66.2,42.2,65.5,42.9,64.5,42.9C64.5,42.9,64.5,42.9,64.5,42.9z"/>
	<path id="Path_3550" class="st4" d="M54.2,40.4l0.2,0.6H55l-0.5,0.4l0.2,0.6l-0.5-0.4L53.7,42l0.2-0.6L53.4,41H54L54.2,40.4z"/>
	<path id="Path_3551" class="st4" d="M56.5,40.4l0.2,0.6h0.6l-0.5,0.4L57,42l-0.5-0.4L56,42l0.2-0.6L55.7,41h0.6L56.5,40.4z"/>
	<path id="Path_3552" class="st4" d="M58.8,40.4L59,41h0.6l-0.5,0.4l0.2,0.6l-0.5-0.4L58.3,42l0.2-0.6L58,41h0.6L58.8,40.4z"/>
	<path id="Path_3553" class="st4" d="M61.1,40.4l0.2,0.6h0.6l-0.5,0.4l0.2,0.6l-0.5-0.4L60.6,42l0.2-0.6L60.3,41h0.6L61.1,40.4z"/>
	<path id="Path_3554" class="st4" d="M63.4,40.4l0.2,0.6h0.6l-0.5,0.4l0.2,0.6l-0.5-0.4L62.9,42l0.2-0.6L62.6,41h0.6L63.4,40.4z"/>
	
		<linearGradient id="Path_3557_1_" gradientUnits="userSpaceOnUse" x1="10.5758" y1="84.9212" x2="9.3568" y2="83.7022" gradientTransform="matrix(10.687 0 0 -23.527 -97.3873 2033.7574)">
		<stop  offset="0" style="stop-color:#9B0012"/>
		<stop  offset="1" style="stop-color:#67010D"/>
	</linearGradient>
	<path id="Path_3557" class="st43" d="M9.2,51.2l7.1-22.9l3.6,1.3l-8.8,22.3L9.2,51.2z"/>
	
		<linearGradient id="Path_3558_1_" gradientUnits="userSpaceOnUse" x1="9.6246" y1="84.6892" x2="11.8946" y2="83.7372" gradientTransform="matrix(10.2969 0 0 -16.879 -91.7139 1458.9238)">
		<stop  offset="0" style="stop-color:#9B0012"/>
		<stop  offset="1" style="stop-color:#67010D"/>
	</linearGradient>
	<path id="Path_3558" class="st44" d="M19,30.2l-3,4.2l-1.5,2.1l-0.8,1c0,0,0-0.1-0.1-0.1c0,0,0,0,0,0l0,0c0,0,0.1,0.1,0.2,0.2
		l1,0.8l2,1.6l4,3.2l-1.1,1.5L15.4,42l-2.2-1.3L12.1,40l-0.3-0.2c-0.2-0.1-0.3-0.3-0.5-0.4c-0.3-0.3-0.5-0.7-0.7-1.1
		c-0.3-0.9-0.2-1.8,0.3-2.5l0.6-1.1l1.2-2.3l2.5-4.5L19,30.2z"/>
	<path id="Path_3559" class="st11" d="M16.4,14.1c-0.2-0.5-0.4-0.9-0.7-1.3l-0.5,0.3c-0.3,0.2-0.8,0.1-1-0.2c0,0,0-0.1,0-0.1
		L14,12.1l-0.4-0.1l0-0.9l-0.4-1c0-0.1-0.1-0.2-0.1-0.2c0.4,0,0.7,0,1-0.1c0.5-0.3,1.2,0.5,1.3,0.9S15.3,8.9,16,9.2
		c0.7,0.3,1.4,2.1,1.7,1.8c-0.1,0.3-0.3,0.6-0.6,0.9l0,0l0.8,0.7L16.4,14.1z"/>
	<path id="Path_3560" class="st4" d="M17.8,10.6c0,0.1,0,0.3-0.1,0.4c0,0,0,0.1,0,0.1c-0.2,0.2-0.9-1.5-1.7-1.8
		c-0.7-0.3-0.4,1.7-0.6,1.4s-0.8-1.2-1.3-0.9c-0.3,0.1-0.7,0.2-1,0.1c-0.1-0.6,0.2-1.2,0.8-1.4l2.8-1.1l1,2.5c0,0.1,0.1,0.2,0.1,0.3
		C17.8,10.3,17.8,10.5,17.8,10.6L17.8,10.6z"/>
	<path id="Path_3561" class="st45" d="M17.8,10.6c0,0.1,0,0.3-0.1,0.4c0,0,0,0.1,0,0.1c-0.2,0.2-0.9-1.5-1.7-1.8
		c-0.7-0.3-0.4,1.7-0.6,1.4s-0.8-1.2-1.3-0.9c-0.3,0.1-0.7,0.2-1,0.1c-0.1,0-0.2,0-0.2,0c-0.3-0.1-1-1.3-0.5-1.2
		c0.5,0.1,4.2-2.3,4.7-1c0.3,0.8,0.6,1.7,0.7,2.6C17.8,10.3,17.8,10.5,17.8,10.6L17.8,10.6z"/>
	
		<linearGradient id="Path_3562_1_" gradientUnits="userSpaceOnUse" x1="11.0247" y1="84.1293" x2="9.1197" y2="84.7923" gradientTransform="matrix(7.6005 0 0 -18.9804 -58.5462 1624.9338)">
		<stop  offset="0" style="stop-color:#F49422"/>
		<stop  offset="1" style="stop-color:#F9D65C"/>
	</linearGradient>
	<path id="Path_3562" class="st46" d="M14.1,29.3c0,0,5,0.7,5.8,2c1.2-1.1,2-9,1.8-14.3c-0.3-5.2-2.9-5.1-4.2-4.4
		c-1.3,1.3-2.3,2.9-2.9,4.6C14.2,18.8,14.9,26.7,14.1,29.3z"/>
	<path id="Path_3563" class="st47" d="M4.6,15.9c-0.1,0-0.3,0-0.3-0.2c0,0,0,0,0,0l-1-3.8c0-0.1,0-0.3,0.2-0.3c0.1,0,0.3,0,0.3,0.2
		l1,3.8C4.8,15.7,4.7,15.8,4.6,15.9L4.6,15.9z"/>
	<path id="Path_3564" class="st11" d="M17.4,18.3l-2.8,2c-0.7,0.5-1.5,0.8-2.4,0.7c-0.4-0.1-0.8-0.2-1.1-0.4l-0.8-0.4l-5.1-2.5
		c-0.3,0.1-0.7,0.1-1-0.1l-0.4-0.2c-0.5-0.3-0.6-0.9-0.3-1.3c0.1-0.1,0.2-0.3,0.3-0.5c0,0,0.2,0,0.3,0c-0.1-0.1-0.3-0.3-0.4-0.4
		c-0.2-0.1-0.4-0.3-0.2-0.6c0.1-0.1,0.3-0.3,0.6-0.1l1.4,0.9C5.8,15.7,6,15.9,6,16.2l5.1,2.3l0.8,0.3c0.1,0.1,0.3,0.1,0.5,0.1
		c0.3,0,0.6-0.1,0.8-0.3l2.2-2.5L17.4,18.3z"/>
	
		<linearGradient id="Rectangle_2540_1_" gradientUnits="userSpaceOnUse" x1="9.4274" y1="81.0181" x2="9.4274" y2="80.3011" gradientTransform="matrix(5.31 0 0 -5.31 13.7983 448.2787)">
		<stop  offset="0" style="stop-color:#F9D65C"/>
		<stop  offset="1" style="stop-color:#F2771D"/>
	</linearGradient>
	<path id="Rectangle_2540" class="st48" d="M63.3,16.6h1.1c1.2,0,2.1,0.9,2.1,2.1v1.1c0,1.2-0.9,2.1-2.1,2.1h-1.1
		c-1.2,0-2.1-0.9-2.1-2.1v-1.1C61.2,17.5,62.1,16.6,63.3,16.6z"/>
	<path id="Path_3414" class="st25" d="M65.3,20.6c0,0.2,0,0.4-0.1,0.5h-2.6c-0.1-0.2-0.1-0.3-0.1-0.5c0-0.6,0.4-1.1,1-1.3
		c-0.4-0.2-0.7-0.5-0.7-1c0.1-0.6,0.6-1,1.2-1c0.5,0,0.9,0.5,1,1c0,0.4-0.3,0.8-0.6,1C64.9,19.5,65.3,20,65.3,20.6L65.3,20.6z"/>
	
		<linearGradient id="Rectangle_2540-2_1_" gradientUnits="userSpaceOnUse" x1="9.4274" y1="81.0181" x2="9.4274" y2="80.3011" gradientTransform="matrix(5.31 0 0 -5.31 -30.1967 433.0197)">
		<stop  offset="0" style="stop-color:#F9D65C"/>
		<stop  offset="1" style="stop-color:#F2771D"/>
	</linearGradient>
	<path id="Rectangle_2540-2" class="st49" d="M19.3,1.3h1.1c1.2,0,2.1,0.9,2.1,2.1v1.1c0,1.2-0.9,2.1-2.1,2.1h-1.1
		c-1.2,0-2.1-0.9-2.1-2.1V3.4C17.2,2.3,18.2,1.3,19.3,1.3z"/>
	<path id="Path_3414-2" class="st25" d="M21.3,5.4c0,0.2,0,0.4-0.1,0.5h-2.6c-0.1-0.2-0.1-0.3-0.1-0.5c0-0.6,0.4-1.1,1-1.3
		c-0.4-0.2-0.7-0.5-0.7-1c0.1-0.6,0.6-1,1.2-1c0.5,0,0.9,0.5,1,1c0,0.4-0.3,0.8-0.6,1C20.9,4.3,21.3,4.8,21.3,5.4L21.3,5.4z"/>
	<path id="Path_3500" class="st50" d="M83.8,52.2L87,56c0.2,0.2,0.5,0.3,0.7,0.2c0.1-0.1,0.2-0.4,0.1-0.5l-1.3-3.2l-1.2-1.5
		c-0.1-0.2-0.3-0.2-0.5-0.1l-1.1,0.9C83.6,51.8,83.6,52.1,83.8,52.2L83.8,52.2z"/>
	<path id="Path_3499" class="st50" d="M103.2,57.9l3.8-3.1c0.2-0.2,0.3-0.5,0.2-0.7c-0.1-0.1-0.4-0.2-0.5-0.1l-3.3,1.3l-1.5,1.1
		c-0.2,0.1-0.2,0.3-0.1,0.5l0.9,1.1C102.8,58.1,103,58,103.2,57.9L103.2,57.9z"/>
	<path id="Path_3555" class="st50" d="M10.7,53.2L6.6,53c-0.3,0-0.5-0.2-0.5-0.5c0-0.2,0.1-0.4,0.3-0.4l2.8-1.1l1.6,0
		c0.2,0,0.3,0.2,0.3,0.3c0,0,0,0,0,0l-0.1,1.6C11.1,53.1,10.9,53.2,10.7,53.2L10.7,53.2z"/>
	<path id="Path_3556" class="st50" d="M22,43.6l-1,4c-0.1,0.3-0.3,0.4-0.6,0.4c-0.2,0-0.3-0.2-0.4-0.4l-0.5-3l0.3-1.5
		c0-0.2,0.2-0.3,0.4-0.3c0,0,0,0,0,0l1.5,0.4C21.9,43.2,22,43.4,22,43.6C22,43.6,22,43.6,22,43.6L22,43.6z"/>
</g>
</svg>
