<?xml version="1.0" encoding="utf-8"?>
<!-- Generator: Adobe Illustrator 22.0.0, SVG Export Plug-In . SVG Version: 6.00 Build 0)  -->
<svg version="1.1" id="Layer_1" xmlns="http://www.w3.org/2000/svg" xmlns:xlink="http://www.w3.org/1999/xlink" x="0px" y="0px"
	 viewBox="0 0 258 145.1" style="enable-background:new 0 0 258 145.1;" xml:space="preserve">
<style type="text/css">
	.st0{opacity:0.5;fill:url(#Background_base_1_);enable-background:new    ;}
	.st1{fill:none;}
	.st2{fill:#FFEBEF;}
	.st3{fill:url(#Path_3386_1_);}
	.st4{fill:#6ECCBC;}
	.st5{fill:url(#Path_3388_1_);}
	.st6{fill:url(#Path_3390_1_);}
	.st7{opacity:0.1;}
	.st8{fill:#F6B747;}
	.st9{fill:#F2F2F2;}
	.st10{fill:#F49B35;}
	.st11{fill:url(#Path_3398_1_);}
	.st12{fill:#FEF8E3;}
	.st13{fill:#6DD0C1;}
	.st14{fill:url(#Path_3401_1_);}
	.st15{fill:url(#Path_3402_1_);}
	.st16{fill:url(#Rectangle_2529_1_);}
	.st17{fill:url(#Path_3404_1_);}
	.st18{fill:url(#Path_3405_1_);}
	.st19{fill:url(#Path_3406_1_);}
	.st20{fill:url(#Path_3407_1_);}
	.st21{fill:url(#Path_3408_1_);}
	.st22{opacity:0.1;enable-background:new    ;}
	.st23{fill:url(#Rectangle_2531_1_);}
	.st24{fill:url(#Rectangle_2532_1_);}
	.st25{fill:url(#Rectangle_2536_1_);}
	.st26{fill:#F5AD40;}
	.st27{fill:#FBD6B2;}
	.st28{fill:url(#Rectangle_2540_1_);}
	.st29{fill:url(#Path_3415_1_);}
	.st30{fill:url(#Path_3418_1_);}
	.st31{fill:url(#Path_3421_1_);}
	.st32{fill:#7C000F;}
	.st33{fill:url(#Rectangle_2545_1_);}
	.st34{fill:url(#Rectangle_2546_1_);}
	.st35{fill:url(#Rectangle_2547_1_);}
	.st36{fill:url(#Rectangle_2548_1_);}
	.st37{fill:url(#Rectangle_2553_1_);}
	.st38{fill:url(#Rectangle_2554_1_);}
	.st39{fill:url(#Rectangle_2555_1_);}
	.st40{fill:url(#Rectangle_2556_1_);}
	.st41{opacity:0.1;fill:#EF5E63;enable-background:new    ;}
	.st42{fill:url(#Path_3423_1_);}
	.st43{fill:url(#Path_3425_1_);}
	.st44{fill:#9B0012;}
	.st45{fill:url(#Path_3429_1_);}
	.st46{fill:url(#Path_3430_1_);}
	.st47{fill:#C7B299;}
	.st48{fill:#F2A384;}
	.st49{fill:#CCCCCC;}
	.st50{fill:url(#Path_3436_1_);}
	.st51{fill:url(#Path_3438_1_);}
	.st52{fill:url(#Path_3439_1_);}
	.st53{fill:#EA4249;}
	.st54{fill:#7D000F;}
	.st55{fill:#E97175;}
	.st56{fill:url(#Path_3444_1_);}
	.st57{fill:#92262F;}
	.st58{fill:url(#Path_3447_1_);}
	.st59{fill:url(#Path_3448_1_);}
	.st60{fill:url(#Rectangle_2559_1_);}
	.st61{fill:url(#Rectangle_2560_1_);}
	.st62{fill:url(#Rectangle_2561_1_);}
	.st63{fill:url(#Path_3451_1_);}
	.st64{fill:#67010D;}
</style>
<g id="Group_3495" transform="translate(-963 -154.406)">
	<g id="Group_1188" transform="translate(-5 -59)">
		
			<linearGradient id="Background_base_1_" gradientUnits="userSpaceOnUse" x1="1054.1666" y1="342.1901" x2="1054.1666" y2="341.3301" gradientTransform="matrix(258 0 0 -27.8662 -270878 9870.0703)">
			<stop  offset="0" style="stop-color:#EB3037"/>
			<stop  offset="1" style="stop-color:#FFEBEF"/>
		</linearGradient>
		<path id="Background_base" class="st0" d="M968.2,334.6c0,0,30.4-4.8,79.6-3.8c49.2,0.9,46.1,8,178.2,5.2v22.6H968L968.2,334.6z"
			/>
	</g>
	<g id="Group_2421" transform="translate(994 154.406)">
		<path id="Rectangle_2434" class="st1" d="M0,0h187.5v140.6H0V0z"/>
		<path id="Path_3384" class="st2" d="M174.8,111.8c-1.6-0.1-3.1,0-4.7,0.2c-6.4,1-25.1,4.1-14.2,6.5c8.2,1.8,13.2,2.1,7.6,3.3
			s-8.4,2.4-2.9,2.6c12.7,0.3,11.8-3.6,18.7-3c5.8,0.5,9.2-3.1,5.6-4.3s-6.5-2-3-2.5C186.6,113.8,180.9,112.2,174.8,111.8
			L174.8,111.8z"/>
		<path id="Path_3385" class="st2" d="M36.8,119c-14.1,1-32.8,6.3-22.3,7.4c6.6,0.7,12.9,3.9,5.5,5s4.9,3.7,11.5,4
			c24,1.2,33.2-3.9,28.4-0.8c-8.1,5.2,18.1-2.1,26.6-2c28.3,0.4,2.7-8.9-6.5-8.9c-20.3,0,5.9-2.4-15.5-4.3
			C41.2,117.4,64.3,117.1,36.8,119z"/>
		
			<linearGradient id="Path_3386_1_" gradientUnits="userSpaceOnUse" x1="54.0075" y1="128.5927" x2="54.0075" y2="127.5927" gradientTransform="matrix(57.6227 0 0 -72.5066 -3050.4131 9328.0352)">
			<stop  offset="0" style="stop-color:#DDF4F1"/>
			<stop  offset="1" style="stop-color:#8DDACE"/>
		</linearGradient>
		<path id="Path_3386" class="st3" d="M87.5,37.2c-8.8-3.6-19.6-3.2-21,2.9s3.8,7.4,8.5,1.2c4.6-6.3,17.8,4.7,10.9,5.6
			c-7,0.9-15.5,4.5-15.4,14.4c0.1,9.9-11.7,15.4-11.7,15.4c-0.6,0.1-1.1,0.1-1.7,0c-1,0.1-2-0.4-2.5-1.3c-1.4-3.3,3.9-11.6-1.7-17.9
			c-7.4-8.5-15.3-7.1-13-12.6c1.8-4.5,13.5-2.3-1.7-11.8c-16.7-10.4,12.1-1.6,13.2-8.7c0.5-3-2.4-4.4-10.8-8.2c-8.4-3.8,4-7.5,7.1-6
			c3.1,1.6,7.3,1.5,9.1-1.2c1.8-2.7,5.1-4.8,10-4.8c0.7,0-9.8,7.8-0.7,6.2c9.2-1.5,15.2,8.2,13.6,9.6c-1.6,1.4-15.2-6.9-15.7,0.1
			c-0.6,7,8,6.8,13.9,4.2C83.6,21.8,96.2,40.8,87.5,37.2L87.5,37.2z"/>
		<path id="Path_3387" class="st4" d="M75.9,47c-3.4,2.2-6.8,4.3-10.4,6.1c-0.6,0.3-1.2,0.7-1.9,1l-0.1-0.4c-0.2-2-0.6-4-1.1-5.9
			c-0.5-2.3-1-4.6-1.4-6.9c-0.1-0.4-0.2-0.8-0.3-1.1c-0.3-1.5-0.6-3.1-0.8-4.7c4.2-2.4,8.3-5.1,12.1-8c-3.9,2.7-8,5.1-12.3,7.2
			c-0.3-1.5-0.5-3-0.7-4.5c-0.4-3.2-0.7-6.5-0.9-9.8v-0.5c0-0.9,0-1.8,0-2.7c0.2-0.1,0.3-0.2,0.5-0.3c2.2-1.4,4.3-2.8,6.3-4.4
			c-2.1,1.4-4.2,2.7-6.4,3.9c-0.2,0.1-0.3,0.2-0.5,0.3c0-1.6,0.1-3.3,0.2-4.9c-0.5,2.5-0.8,5.1-0.9,7.7c-2.2-1.2-4.3-2.4-6.5-3.8
			c2,1.5,4.2,2.9,6.4,4.3c-0.1,3.5-0.1,6.9,0.2,10.4c0.1,1.7,0.3,3.4,0.5,5.1c0,0.3,0,0.6,0.1,0.9c0.1,0.9,0.2,1.9,0.3,2.8
			c0,0-0.1-0.1-0.1-0.1c-5.1-2.4-10.1-5.1-14.8-8.1c4.6,3.3,9.5,6.3,14.6,8.9c0.2,0.1,0.3,0.2,0.5,0.3c0.4,2.9,0.9,5.7,1.4,8.6
			c0.3,1.4,0.5,2.7,0.7,4c-3.6-1.8-7.1-3.8-10.5-6c3.4,2.5,7,4.7,10.6,6.8c0.2,1.4,0.3,2.7,0.3,4.1c0,2.9-0.5,5.8-1.4,8.5
			c-1.2,3.5-3,6.8-5.5,9.5c0.5,0.9,1.5,1.5,2.5,1.3c2.5-2.9,4.4-6.2,5.6-9.9c1-3.1,1.4-6.3,1.3-9.6c-0.1-0.8-0.1-1.6-0.2-2.4
			c0.5-0.3,1.1-0.6,1.6-0.9C69,51.8,72.5,49.5,75.9,47L75.9,47z"/>
		
			<linearGradient id="Path_3388_1_" gradientUnits="userSpaceOnUse" x1="53.8594" y1="128.661" x2="53.8594" y2="127.661" gradientTransform="matrix(52.421 0 0 -54.5109 -2795.874 7058.3408)">
			<stop  offset="0" style="stop-color:#DDF4F1"/>
			<stop  offset="1" style="stop-color:#91DBD0"/>
		</linearGradient>
		<path id="Path_3388" class="st5" d="M8.2,93.4c3.7-8.1,11.3-15.2,15.9-12.5s2,7.1-5,6.5s-9.1,14.9-3.9,10.8s13.2-7.8,19.2-1.8
			s17.3,1.3,17.3,1.3c0.4-0.4,0.8-0.7,1.2-1.2c0.8-0.6,1.1-1.6,0.9-2.5c-1-3-9.7-4.3-9.8-11.9c-0.2-10.2,5.9-14.6,1.1-16.4
			c-4-1.5-10.5,7.7-6-8.3c4.9-17.6-9.1,7.3-14.2,3.7c-2.1-1.5-1.1-4.3,2.3-12.3s-7.3-1.8-8.4,1.2s-4,5.8-6.9,5.4s-6.4,0.6-9.7,3.8
			c-0.5,0.5,11.4-2,4.3,3.3s-5.3,15.2-3.3,15S9,63.1,13.7,67s-1.3,9.5-6.8,12S4.5,101.5,8.2,93.4L8.2,93.4z"/>
		<path id="Path_3389" class="st4" d="M21.9,91.5c3.6-0.9,7.2-2,10.7-3.3c0.6-0.2,1.2-0.4,1.9-0.7c-0.1-0.1-0.1-0.2-0.2-0.3
			c-1.1-1.3-2-2.8-2.8-4.3c-1.1-1.7-2.1-3.5-3.3-5.1c-0.2-0.3-0.3-0.6-0.5-0.9c-0.7-1.1-1.5-2.3-2.3-3.4c-4.3,1.4-8.6,2.5-13.1,3.4
			c4.3-1.1,8.5-2.4,12.7-3.9c-0.7-1.1-1.5-2.1-2.3-3.2c-1.7-2.2-3.5-4.4-5.3-6.5L17.1,63c-0.5-0.6-1.1-1.1-1.6-1.7
			c-0.2,0.1-0.4,0.1-0.5,0.2c-2.3,0.7-4.6,1.2-6.9,1.7c2.3-0.6,4.5-1.2,6.7-2c0.2,0,0.3-0.1,0.5-0.2c-1-1-2-1.9-3.1-2.8
			c1.9,1.2,3.6,2.6,5.3,4.1c0.8-2.2,1.4-4.4,2-6.7c-0.4,2.3-1,4.6-1.7,6.9c2.2,2,4.3,4.1,6.2,6.4c1,1.1,1.9,2.3,2.8,3.5
			c0.2,0.2,0.3,0.4,0.5,0.6c0.5,0.6,1,1.2,1.5,1.9c0,0,0-0.1,0.1-0.1c2-4.9,3.7-9.9,5-15C32.5,64.9,31.1,70,29.3,75
			c-0.1,0.2-0.1,0.3-0.2,0.5c1.5,2,2.9,4,4.3,6.1c0.7,1,1.3,2,2,2.9c1.3-3.5,2.5-7.1,3.4-10.7c-0.8,3.8-1.8,7.6-3.1,11.3
			c0.7,0.9,1.5,1.8,2.3,2.7c1.8,1.7,3.9,3.2,6.1,4.2c3,1.3,6.2,2,9.5,2c0.2,0.9-0.1,1.9-0.9,2.5c-3.4,0-6.7-0.8-9.8-2.2
			c-2.5-1.2-4.8-2.8-6.7-4.9L34.9,88c-0.6,0.2-1.1,0.4-1.7,0.5C29.5,89.7,25.8,90.7,21.9,91.5L21.9,91.5z"/>
		
			<linearGradient id="Path_3390_1_" gradientUnits="userSpaceOnUse" x1="53.9366" y1="128.5675" x2="53.9366" y2="127.5675" gradientTransform="matrix(55.0081 0 0 -82.561 -2837.0073 10631.7627)">
			<stop  offset="0" style="stop-color:#DDF4F1"/>
			<stop  offset="1" style="stop-color:#6DD0C1"/>
		</linearGradient>
		<path id="Path_3390" class="st6" d="M103.8,17.1h52.2c0.8,0,1.4,0.6,1.4,1.4v79.8c0,0.8-0.6,1.4-1.4,1.4h-53.6V18.5
			C102.4,17.7,103,17.1,103.8,17.1z"/>
		<g id="Group_3250" transform="translate(109.292 20.167)" class="st7">
			<path id="Path_3391" d="M11,5c-0.3-3-3-5.2-6-5c-3,0.3-5.2,3-5,6s3,5.2,6,5c2.2-0.2,4.1-1.7,4.7-3.9C11,6.6,11,6.1,11,5.5
				C11,5.4,11,5.2,11,5z M1.5,3.8c1-2.2,3.5-3.2,5.8-2.3c1.6,0.7,2.6,2.3,2.6,4c0,0.4-0.1,0.8-0.2,1.2c-0.5,1.8-2.2,3-4,3.1H5.5
				c-2.4,0-4.4-2-4.4-4.4C1.1,4.9,1.3,4.3,1.5,3.8L1.5,3.8z"/>
			<path id="Path_3392" d="M20.5,0c-3,0-5.5,2.5-5.5,5.5s2.5,5.5,5.5,5.5V9.9c-2.4,0-4.4-2-4.3-4.4s2-4.4,4.4-4.3
				c2.4,0,4.3,2,4.3,4.4c0,2.4-2,4.4-4.4,4.4V11c3,0,5.5-2.5,5.5-5.5c0,0,0,0,0,0C26.1,2.5,23.6,0,20.5,0C20.5,0,20.5,0,20.5,0
				L20.5,0z"/>
			<path id="Path_3393" d="M41.1,5c-0.3-3-3-5.2-6-4.9c-3,0.3-5.2,3-4.9,6s3,5.2,6,4.9c2.2-0.2,4-1.7,4.7-3.8
				c0.2-0.5,0.3-1.1,0.3-1.6C41.1,5.4,41.1,5.2,41.1,5z M31.6,3.8c0.7-1.5,2.2-2.6,3.8-2.6h0.2c2.4,0,4.4,1.9,4.4,4.4
				c0,0.4-0.1,0.8-0.2,1.2c-0.5,1.8-2.2,3-4,3.1h-0.2c-2.4,0-4.4-2-4.4-4.4C31.2,4.9,31.3,4.3,31.6,3.8L31.6,3.8z"/>
		</g>
		<path id="Path_3394" class="st8" d="M115,19.7c-3,0-5.5,2.5-5.5,5.5c0,3,2.5,5.5,5.5,5.5c0,0,0,0,0,0v-1.1c-2.4,0-4.4-2-4.3-4.4
			c0-2.4,2-4.4,4.4-4.3c2.4,0,4.3,2,4.3,4.4h1.1C120.5,22.1,118,19.7,115,19.7L115,19.7L115,19.7z"/>
		<path id="Path_3395" class="st9" d="M120.5,25.2c0,3-2.5,5.5-5.5,5.5c0,0,0,0,0,0v-1.1c2.4,0,4.4-2,4.4-4.4H120.5z"/>
		<path id="Path_3396" class="st10" d="M130,19.7c-3,0-5.5,2.5-5.5,5.6c0,2.9,2.3,5.3,5.3,5.5h0.2v-1.1c-2.4,0-4.4-2-4.3-4.4
			c0-2.4,2-4.4,4.4-4.3c2.4,0,4.3,2,4.3,4.4h1.1C135.5,22.1,133.1,19.7,130,19.7C130,19.7,130,19.7,130,19.7L130,19.7z"/>
		<path id="Path_3397" class="st9" d="M135.6,25.2c0,3-2.5,5.5-5.5,5.5c0,0,0,0,0,0v-1.1c2.4,0,4.4-2,4.4-4.4H135.6z"/>
		
			<linearGradient id="Path_3398_1_" gradientUnits="userSpaceOnUse" x1="47.7045" y1="129.747" x2="47.7045" y2="128.747" gradientTransform="matrix(11.032 0 0 -11.0201 -381.2119 1449.484)">
			<stop  offset="0" style="stop-color:#F9D65C"/>
			<stop  offset="1" style="stop-color:#F2771D"/>
		</linearGradient>
		<path id="Path_3398" class="st11" d="M149.2,21.6c-2-2.3-5.5-2.6-7.8-0.6s-2.6,5.5-0.6,7.8c1,1.2,2.6,1.9,4.2,1.9v-1.1
			c-2.4,0-4.4-1.9-4.4-4.3c0-2.3,1.8-4.2,4-4.4c0.1,0,0.2,0,0.3,0c2.4,0,4.4,2,4.4,4.4h1.1C150.6,23.8,150.1,22.6,149.2,21.6z"/>
		<path id="Path_3399" class="st12" d="M150.6,25.2c0,3-2.5,5.5-5.5,5.5c0,0,0,0,0,0v-1.1c2.4,0,4.4-2,4.4-4.4H150.6z"/>
		<path id="Path_3400" class="st13" d="M144.7,25.2h0.8v-3.7h15.7v-0.8h-16.5L144.7,25.2z"/>
		
			<linearGradient id="Path_3401_1_" gradientUnits="userSpaceOnUse" x1="8.4573" y1="136.5915" x2="8.4573" y2="135.5915" gradientTransform="matrix(1.8281 0 0 -1.828 129.651 273.9957)">
			<stop  offset="0" style="stop-color:#F9D65C"/>
			<stop  offset="1" style="stop-color:#F2771D"/>
		</linearGradient>
		<path id="Path_3401" class="st14" d="M144.2,25.2c0,0.5,0.4,0.9,0.9,0.9c0.5,0,0.9-0.4,0.9-0.9s-0.4-0.9-0.9-0.9c0,0,0,0,0,0
			C144.6,24.3,144.2,24.7,144.2,25.2z"/>
		
			<linearGradient id="Path_3402_1_" gradientUnits="userSpaceOnUse" x1="36.2558" y1="131.7439" x2="36.2558" y2="130.7438" gradientTransform="matrix(4.4689 0 0 -4.4669 -16.9154 611.4753)">
			<stop  offset="0" style="stop-color:#F9D65C"/>
			<stop  offset="1" style="stop-color:#F2771D"/>
		</linearGradient>
		<path id="Path_3402" class="st15" d="M145.5,23c-0.3,0-0.5,0-0.8,0c-1.2,0.2-2,1.4-1.8,2.6s1.4,2,2.6,1.8c1.2-0.2,2-1.4,1.8-2.6
			C147.1,23.9,146.4,23.2,145.5,23z M145.1,26.6c-0.8,0-1.4-0.6-1.4-1.4s0.6-1.4,1.4-1.4c0.1,0,0.3,0,0.4,0.1c0.8,0.2,1.2,1,0.9,1.8
			C146.3,26.2,145.7,26.6,145.1,26.6L145.1,26.6z"/>
		
			<linearGradient id="Rectangle_2529_1_" gradientUnits="userSpaceOnUse" x1="65.3533" y1="126.6672" x2="65.3533" y2="125.6672" gradientTransform="matrix(-8.728 0 0 8.728 735.388 -1079.9714)">
			<stop  offset="0" style="stop-color:#F9D65C"/>
			<stop  offset="1" style="stop-color:#F2771D"/>
		</linearGradient>
		<path id="Rectangle_2529" class="st16" d="M167.2,25.6h-4.5c-1.2,0-2.1-0.9-2.1-2.1V19c0-1.2,0.9-2.1,2.1-2.1h4.5
			c1.2,0,2.1,0.9,2.1,2.1v4.5C169.3,24.6,168.4,25.6,167.2,25.6z"/>
		<path id="Path_3403" class="st12" d="M162.7,23.5c0,0.3,0.1,0.6,0.2,0.9h4.2c0.1-0.3,0.2-0.6,0.2-0.9c0-1-0.6-1.9-1.6-2.2
			c0.7-0.3,1.1-0.9,1.1-1.6c-0.1-1-1-1.7-1.9-1.6c-0.9,0.1-1.5,0.8-1.6,1.6c0,0.7,0.4,1.3,1,1.6C163.3,21.7,162.7,22.6,162.7,23.5
			L162.7,23.5z"/>
		
			<linearGradient id="Path_3404_1_" gradientUnits="userSpaceOnUse" x1="54.6719" y1="128.5857" x2="54.6719" y2="127.5857" gradientTransform="matrix(103.856 0 0 -75.0446 -5584.1523 9683.8926)">
			<stop  offset="0" style="stop-color:#F7FAFF"/>
			<stop  offset="1" style="stop-color:#F3D6DB"/>
		</linearGradient>
		<path id="Path_3404" class="st17" d="M145.8,35v73.5c0,0.4-0.4,0.8-0.8,0.8c0,0,0,0,0,0H42.7c-0.4,0-0.8-0.3-0.8-0.8c0,0,0,0,0,0
			V35c0-0.4,0.4-0.8,0.8-0.8c0,0,0,0,0,0H145C145.4,34.2,145.8,34.6,145.8,35C145.8,35,145.8,35,145.8,35z"/>
		
			<radialGradient id="Path_3405_1_" cx="54.6719" cy="128.6501" r="0.5" gradientTransform="matrix(103.856 0 0 -19.627 -5584.1523 2624.4814)" gradientUnits="userSpaceOnUse">
			<stop  offset="0" style="stop-color:#9B0012"/>
			<stop  offset="6.500000e-02" style="stop-color:#980012"/>
			<stop  offset="1" style="stop-color:#67010D"/>
		</radialGradient>
		<path id="Path_3405" class="st18" d="M145.8,102.9v5.6c0,0.4-0.4,0.8-0.8,0.8c0,0,0,0,0,0H42.7c-0.4,0-0.8-0.3-0.8-0.8
			c0,0,0,0,0,0V94.1c2.5-1.8,6.7-3.7,11.3-1.6c7.5,3.4,11.2,10,21.8,5.4s17.8-10.5,22.3-7.3s9.6,10.5,16.1,8.1s12-9.5,17.6-7.5
			s8.8,7.6,12.4,9.9C144.3,101.6,145.1,102.2,145.8,102.9L145.8,102.9z"/>
		
			<linearGradient id="Path_3406_1_" gradientUnits="userSpaceOnUse" x1="54.6719" y1="129.6351" x2="54.6719" y2="128.6351" gradientTransform="matrix(103.856 0 0 -12.0068 -5584.1523 1653.7767)">
			<stop  offset="0" style="stop-color:#BD081C"/>
			<stop  offset="1" style="stop-color:#850000"/>
		</linearGradient>
		<path id="Path_3406" class="st19" d="M145.8,105.4v3.4c0,0.3-0.4,0.5-0.8,0.5H42.7c-0.5,0-0.8-0.2-0.8-0.5V100
			c3.6-1.6,7.6-2,11.3-1c7.5,2.1,11.2,6.1,21.8,3.3s17.8-6.4,22.3-4.5s9.6,6.4,16.1,5s12-5.8,17.6-4.6s8.8,4.6,12.4,6.1
			C144.3,104.6,145,104.9,145.8,105.4L145.8,105.4z"/>
		
			<linearGradient id="Path_3407_1_" gradientUnits="userSpaceOnUse" x1="54.6719" y1="130.8859" x2="54.6719" y2="129.8859" gradientTransform="matrix(103.856 0 0 -5.9998 -5584.1523 888.5687)">
			<stop  offset="0" style="stop-color:#E97175"/>
			<stop  offset="1" style="stop-color:#BD081C"/>
		</linearGradient>
		<path id="Path_3407" class="st20" d="M145.8,107.3v1.7c0,0.1-0.4,0.2-0.8,0.2H42.7c-0.5,0-0.8-0.1-0.8-0.2v-4.4
			c3.7-0.8,7.6-1,11.3-0.5c7.5,1,11.2,3.1,21.8,1.7s17.8-3.2,22.3-2.2s9.6,3.2,16.1,2.5s12-2.9,17.6-2.3s8.8,2.3,12.4,3
			C144.4,107,145.2,107.1,145.8,107.3L145.8,107.3z"/>
		
			<linearGradient id="Path_3408_1_" gradientUnits="userSpaceOnUse" x1="54.6718" y1="130.9694" x2="54.6718" y2="129.9694" gradientTransform="matrix(103.838 0 0 -5.806 -5583.1528 794.6331)">
			<stop  offset="0" style="stop-color:#EB3037"/>
			<stop  offset="1" style="stop-color:#9B0012"/>
		</linearGradient>
		<path id="Path_3408" class="st21" d="M42.5,34.2h102.8c0.3,0,0.5,0.2,0.5,0.5c0,0,0,0,0,0V40H41.9v-5.3
			C41.9,34.5,42.2,34.2,42.5,34.2z"/>
		<path id="Rectangle_2530" class="st22" d="M41.9,40h103.8v1.2H41.9V40z"/>
		
			<linearGradient id="Rectangle_2531_1_" gradientUnits="userSpaceOnUse" x1="54.0866" y1="128.8423" x2="54.0866" y2="127.8423" gradientTransform="matrix(60.848 0 0 -32.858 -3167.437 4279.7285)">
			<stop  offset="0" style="stop-color:#F3BFC5"/>
			<stop  offset="1" style="stop-color:#F06166"/>
		</linearGradient>
		<path id="Rectangle_2531" class="st23" d="M96.9,46.2h53.5c2,0,3.7,1.7,3.7,3.7v25.5c0,2-1.7,3.7-3.7,3.7H96.9
			c-2,0-3.7-1.7-3.7-3.7V49.9C93.2,47.9,94.9,46.2,96.9,46.2z"/>
		<path id="Path_3409" class="st2" d="M100.6,71.1l-0.5-0.6l8.3-7.4l5.8,3.7l5,0.7l3.5-3.5l5.4,0.8l8.1-4.9l6.9,1.5l5.2-5.4l0.6,0.6
			l-5.6,5.7l-7.1-1.5l-8.1,4.9l-5.2-0.8l-3.5,3.5l-5.6-0.9l-5.3-3.4L100.6,71.1z"/>
		<path id="Path_3410" class="st2" d="M148.5,74.9v-1.1h-0.8v1.1h-2.4v-1.1h-0.8v1.1H142v-1.1h-0.8v1.1h-2.4v-1.1H138v1.1h-2.4v-1.1
			h-0.8v1.1h-2.4v-1.1h-0.8v1.1h-2.4v-1.1h-0.8v1.1H126v-1.1h-0.8v1.1h-2.4v-1.1H122v1.1h-2.4v-1.1h-0.8v1.1h-2.4v-1.1h-0.8v1.1
			h-2.4v-1.1h-0.8v1.1h-2.4v-1.1h-0.8v1.1h-2.3v-1.1H106v1.1h-2.4v-1.1h-0.8v1.1h-2.4v-1.1h-0.8v1.1H97v-2.6h1.1v-0.8H97v-2.4h1.1
			v-0.8H97v-2.4h1.1V65H97v-2.4h1.1v-0.8H97v-2.4h1.1v-0.8H97v-2.4h1.1v-0.8H97V53h1.1v-0.8H97V50h-0.8v25.7h54.4v-0.8L148.5,74.9z"
			/>
		
			<linearGradient id="Rectangle_2532_1_" gradientUnits="userSpaceOnUse" x1="53.1286" y1="129.9887" x2="53.1286" y2="128.9887" gradientTransform="matrix(36.266 0 0 -9.358 -1801.3829 1297.8916)">
			<stop  offset="0" style="stop-color:#E97175"/>
			<stop  offset="1" style="stop-color:#9B0012"/>
		</linearGradient>
		<path id="Rectangle_2532" class="st24" d="M109.4,81.5h31.9c1.2,0,2.2,1,2.2,2.2v5c0,1.2-1,2.2-2.2,2.2h-31.9
			c-1.2,0-2.2-1-2.2-2.2v-5C107.2,82.4,108.2,81.5,109.4,81.5z"/>
		<circle id="Ellipse_4071" class="st9" cx="115.3" cy="85.8" r="3.8"/>
		<path id="Rectangle_2533" class="st9" d="M121.7,83.6h6.6v0.8h-6.6V83.6z"/>
		<path id="Rectangle_2534" class="st9" d="M121.7,86.6h18.9v0.8h-18.9V86.6z"/>
		<path id="Rectangle_2535" class="st9" d="M121.7,88.3h18.9v0.8h-18.9V88.3z"/>
		
			<linearGradient id="Rectangle_2536_1_" gradientUnits="userSpaceOnUse" x1="53.1286" y1="129.9887" x2="53.1286" y2="128.9887" gradientTransform="matrix(36.266 0 0 -9.358 -1793.0259 1309.6195)">
			<stop  offset="0" style="stop-color:#EB3037"/>
			<stop  offset="1" style="stop-color:#9B0012"/>
		</linearGradient>
		<path id="Rectangle_2536" class="st25" d="M117.8,93.2h31.9c1.2,0,2.2,1,2.2,2.2v5c0,1.2-1,2.2-2.2,2.2h-31.9
			c-1.2,0-2.2-1-2.2-2.2v-5C115.6,94.2,116.6,93.2,117.8,93.2z"/>
		<ellipse id="Ellipse_4072" class="st9" cx="121.7" cy="97.9" rx="3.3" ry="3.3"/>
		<path id="Rectangle_2537" class="st9" d="M127.8,95.3h6.6v0.8h-6.6V95.3z"/>
		<path id="Rectangle_2538" class="st9" d="M127.8,98.3h18.9v0.8h-18.9V98.3z"/>
		<path id="Rectangle_2539" class="st9" d="M127.8,100h18.9v0.8h-18.9V100z"/>
		<path id="Path_3411" class="st13" d="M52.4,47h-0.8v-3.7H35.9v-0.8h16.5L52.4,47z"/>
		<path id="Path_3412" class="st26" d="M52.9,47c0,0.5-0.4,0.9-0.9,0.9c-0.5,0-0.9-0.4-0.9-0.9S51.5,46,52,46c0,0,0,0,0,0
			C52.5,46,52.9,46.4,52.9,47z"/>
		<path id="Path_3413" class="st27" d="M52.4,44.8c-0.3,0-0.5,0-0.8,0c-1.2,0.2-2,1.4-1.8,2.6s1.4,2,2.6,1.8
			c0.4-0.1,0.8-0.3,1.1-0.5c0.1,0,0.1-0.1,0.2-0.1c0.8-0.9,0.8-2.3-0.1-3.2C53.2,45,52.8,44.8,52.4,44.8z M52.8,48.1
			c-0.2,0.1-0.5,0.2-0.8,0.2c-0.8,0-1.4-0.6-1.4-1.4c0-0.1,0-0.2,0-0.3v0c0.2-0.8,1-1.2,1.7-1c0.8,0.2,1.2,1,1,1.7
			c-0.1,0.3-0.2,0.5-0.5,0.7C52.9,48.1,52.8,48.1,52.8,48.1L52.8,48.1z"/>
		
			<linearGradient id="Rectangle_2540_1_" gradientUnits="userSpaceOnUse" x1="45.6467" y1="130.1044" x2="45.6467" y2="129.1044" gradientTransform="matrix(8.728 0 0 -8.728 -366.281 1174.1365)">
			<stop  offset="0" style="stop-color:#F9D65C"/>
			<stop  offset="1" style="stop-color:#F2771D"/>
		</linearGradient>
		<path id="Rectangle_2540" class="st28" d="M29.9,38.6h4.5c1.2,0,2.1,0.9,2.1,2.1v4.5c0,1.2-0.9,2.1-2.1,2.1h-4.5
			c-1.2,0-2.1-0.9-2.1-2.1v-4.5C27.8,39.5,28.7,38.6,29.9,38.6z"/>
		<path id="Path_3414" class="st12" d="M34.4,45.3c0,0.3-0.1,0.6-0.2,0.9H30c-0.1-0.3-0.2-0.6-0.2-0.9c0-1,0.6-1.9,1.6-2.2
			c-0.7-0.3-1.1-0.9-1.1-1.6c0.1-1,1-1.7,1.9-1.6c0.9,0.1,1.5,0.8,1.6,1.6c0,0.7-0.4,1.3-1,1.6C33.8,43.4,34.4,44.3,34.4,45.3
			L34.4,45.3z"/>
		
			<linearGradient id="Path_3415_1_" gradientUnits="userSpaceOnUse" x1="48.1403" y1="129.6662" x2="48.1403" y2="128.6662" gradientTransform="matrix(11.6853 0 0 -11.7155 -409.2458 1561.3159)">
			<stop  offset="0" style="stop-color:#F2771D"/>
			<stop  offset="1" style="stop-color:#F9D65C"/>
		</linearGradient>
		<path id="Path_3415" class="st29" d="M159.1,48c0,3.2-2.6,5.9-5.8,5.9c0,0,0,0,0,0c-0.6,0-1.2-0.1-1.8-0.3c-3.1-1-4.7-4.3-3.7-7.4
			c0.8-2.4,3-4,5.6-4C156.5,42.2,159.1,44.8,159.1,48L159.1,48z"/>
		<path id="Path_3416" class="st12" d="M152.8,51.5c-0.3,0-0.5-0.1-0.7-0.3l-1.8-2.6c-0.3-0.4-0.2-0.9,0.2-1.1
			c0.4-0.2,0.8-0.2,1.1,0.2l1.2,1.6l2.8-4.1c0.2-0.4,0.7-0.5,1.1-0.3s0.5,0.7,0.3,1.1c0,0,0,0,0,0.1l-3.4,5
			C153.4,51.4,153.1,51.5,152.8,51.5L152.8,51.5z"/>
		
			<linearGradient id="Path_3418_1_" gradientUnits="userSpaceOnUse" x1="48.6723" y1="129.5767" x2="48.6723" y2="128.5767" gradientTransform="matrix(12.5957 0 0 -12.596 -502.819 1713.6013)">
			<stop  offset="0" style="stop-color:#F9D65C"/>
			<stop  offset="1" style="stop-color:#F2771D"/>
		</linearGradient>
		<path id="Path_3418" class="st30" d="M114.7,83.3c-1.1-1.1-2.6-1.8-4.2-1.8c-0.2,0-0.3,0-0.5,0c-3.5,0.1-6.2,3-6.1,6.5
			c0,1.3,0.5,2.6,1.3,3.7c0.1,0.1,0.1,0.2,0.2,0.3c0,0,0,0,0,0c0.1,0.1,0.2,0.2,0.3,0.3l0.1,0.1c0.1,0.1,0.2,0.2,0.3,0.3
			c0.1,0.1,0.1,0.1,0.2,0.2c2.5,1.9,6.1,1.7,8.4-0.5c0.4-0.4,0.8-0.9,1.1-1.4c0.2-0.4,0.4-0.9,0.6-1.4
			C116.9,87.2,116.3,84.9,114.7,83.3L114.7,83.3z M113.6,91.2c-1.9,1.9-4.9,1.9-6.8,0c-1.9-1.9-1.9-4.9,0-6.8
			c0.1-0.1,0.3-0.2,0.4-0.3c1.5-1.2,3.5-1.4,5.1-0.6c0.5,0.2,0.9,0.5,1.3,0.9c1.3,1.4,1.8,3.4,1.1,5.2c-0.2,0.5-0.4,0.9-0.8,1.3
			C113.9,90.9,113.8,91,113.6,91.2L113.6,91.2z"/>
		<path id="Path_3419" class="st12" d="M113.7,91.2c-1.9,1.9-4.9,1.9-6.8,0c-1.9-1.9-1.9-4.9,0-6.8c1.9-1.9,4.9-1.9,6.8,0
			C115.5,86.2,115.5,89.3,113.7,91.2C113.7,91.2,113.7,91.2,113.7,91.2z"/>
		<path id="Path_3420" class="st12" d="M106.4,92.7l-1,1c-0.1-0.3-0.2-0.5-0.4-0.7c-0.2-0.2-0.4-0.3-0.7-0.4l1-1
			C105.6,92,106,92.4,106.4,92.7L106.4,92.7z"/>
		
			<linearGradient id="Path_3421_1_" gradientUnits="userSpaceOnUse" x1="42.3551" y1="130.6808" x2="42.3551" y2="129.6808" gradientTransform="matrix(6.5425 0 0 -6.5359 -174.9275 946.6685)">
			<stop  offset="0" style="stop-color:#F49422"/>
			<stop  offset="1" style="stop-color:#F2771D"/>
		</linearGradient>
		<path id="Path_3421" class="st31" d="M105,95.1l-3.5,3.5c-0.6,0.6-1.6,0.6-2.1,0c-0.6-0.6-0.6-1.5,0-2.1l3.5-3.5
			c0.4-0.4,0.9-0.5,1.5-0.4c0.3,0.1,0.5,0.2,0.7,0.4c0.2,0.2,0.3,0.4,0.4,0.7C105.5,94.2,105.4,94.8,105,95.1z"/>
		<g id="Group_3251" transform="translate(45.255 50.703)" class="st7">
			<path id="Rectangle_2541" class="st32" d="M37.2,0v5H0V0H37.2z"/>
			<path id="Rectangle_2542" class="st32" d="M37.2,8.9v5H0v-5H37.2z"/>
			<path id="Rectangle_2543" class="st32" d="M37.2,17.9v5H0v-5H37.2z"/>
			<path id="Rectangle_2544" class="st32" d="M37.2,26.8v5H0v-5H37.2z"/>
		</g>
		
			<linearGradient id="Rectangle_2545_1_" gradientUnits="userSpaceOnUse" x1="52.4752" y1="127.7561" x2="52.4752" y2="126.6641" gradientTransform="matrix(3.036512e-16 4.959 37.186 -2.276986e-15 -4605.1553 -208.027)">
			<stop  offset="0" style="stop-color:#0A76CD"/>
			<stop  offset="0.37" style="stop-color:#1597D7"/>
			<stop  offset="1" style="stop-color:#2AD7EA"/>
		</linearGradient>
		<path id="Rectangle_2545" class="st33" d="M83,49.7v5H45.8v-5H83z"/>
		
			<linearGradient id="Rectangle_2546_1_" gradientUnits="userSpaceOnUse" x1="52.4752" y1="127.9961" x2="52.4752" y2="126.9051" gradientTransform="matrix(3.036512e-16 4.959 37.186 -2.276986e-15 -4605.1553 -199.083)">
			<stop  offset="0" style="stop-color:#0A76CD"/>
			<stop  offset="0.37" style="stop-color:#1597D7"/>
			<stop  offset="1" style="stop-color:#2AD7EA"/>
		</linearGradient>
		<path id="Rectangle_2546" class="st34" d="M83,58.7v5H45.8v-5H83z"/>
		
			<linearGradient id="Rectangle_2547_1_" gradientUnits="userSpaceOnUse" x1="52.4752" y1="128.2371" x2="52.4752" y2="127.1451" gradientTransform="matrix(3.036512e-16 4.959 37.186 -2.276986e-15 -4605.1562 -190.138)">
			<stop  offset="0" style="stop-color:#0A76CD"/>
			<stop  offset="0.37" style="stop-color:#1597D7"/>
			<stop  offset="1" style="stop-color:#2AD7EA"/>
		</linearGradient>
		<path id="Rectangle_2547" class="st35" d="M83,67.6v5H45.8v-5H83z"/>
		
			<linearGradient id="Rectangle_2548_1_" gradientUnits="userSpaceOnUse" x1="52.4752" y1="128.4771" x2="52.4752" y2="127.3861" gradientTransform="matrix(3.036512e-16 4.959 37.186 -2.276986e-15 -4605.1553 -181.195)">
			<stop  offset="0" style="stop-color:#0A76CD"/>
			<stop  offset="0.37" style="stop-color:#1597D7"/>
			<stop  offset="1" style="stop-color:#2AD7EA"/>
		</linearGradient>
		<path id="Rectangle_2548" class="st36" d="M83,76.6v5H45.8v-5H83z"/>
		<path id="Rectangle_2549" class="st2" d="M83,49.7v5H62.1v-5H83z"/>
		<path id="Rectangle_2550" class="st2" d="M83,58.7v5H55.4v-5H83z"/>
		<path id="Rectangle_2551" class="st2" d="M83,67.6v5H67.2v-5H83z"/>
		<path id="Rectangle_2552" class="st2" d="M83,76.6v5H72.1v-5H83z"/>
		
			<linearGradient id="Rectangle_2553_1_" gradientUnits="userSpaceOnUse" x1="52.4752" y1="123.1068" x2="52.4752" y2="122.1068" gradientTransform="matrix(3.036512e-16 4.959 16.291 -9.975361e-16 -1943.4286 -208.024)">
			<stop  offset="0" style="stop-color:#9B0012"/>
			<stop  offset="1" style="stop-color:#EB3037"/>
		</linearGradient>
		<path id="Rectangle_2553" class="st37" d="M62.1,49.7v5H45.8v-5H62.1z"/>
		
			<linearGradient id="Rectangle_2554_1_" gradientUnits="userSpaceOnUse" x1="52.4752" y1="119.373" x2="52.4752" y2="118.373" gradientTransform="matrix(3.036512e-16 4.959 9.542 -5.842790e-16 -1083.7015 -199.083)">
			<stop  offset="0" style="stop-color:#9B0012"/>
			<stop  offset="1" style="stop-color:#EB3037"/>
		</linearGradient>
		<path id="Rectangle_2554" class="st38" d="M55.4,58.7v5h-9.5v-5H55.4z"/>
		
			<linearGradient id="Rectangle_2555_1_" gradientUnits="userSpaceOnUse" x1="52.4752" y1="124.3686" x2="52.4752" y2="123.3686" gradientTransform="matrix(3.036512e-16 4.959 21.408 -1.310862e-15 -2595.2649 -190.138)">
			<stop  offset="0" style="stop-color:#9B0012"/>
			<stop  offset="1" style="stop-color:#EB3037"/>
		</linearGradient>
		<path id="Rectangle_2555" class="st39" d="M67.2,67.6v5H45.8v-5H67.2z"/>
		
			<linearGradient id="Rectangle_2556_1_" gradientUnits="userSpaceOnUse" x1="52.4752" y1="125.1086" x2="52.4752" y2="124.1086" gradientTransform="matrix(3.036512e-16 4.959 26.242 -1.606859e-15 -3211.0449 -181.195)">
			<stop  offset="0" style="stop-color:#9B0012"/>
			<stop  offset="1" style="stop-color:#EB3037"/>
		</linearGradient>
		<path id="Rectangle_2556" class="st40" d="M72.1,76.6v5H45.8v-5H72.1z"/>
		<path id="Path_3422" class="st41" d="M75.4,109.3H37.7l2.2-4l5.2-9.4l5.2-9.4l5.9-10.6c0.1-0.2,0.4-0.3,0.6-0.2
			c0.1,0,0.1,0.1,0.2,0.2l5.9,10.6l5.2,9.4l5.2,9.4L75.4,109.3z"/>
		
			<linearGradient id="Path_3423_1_" gradientUnits="userSpaceOnUse" x1="53.5047" y1="129.9853" x2="53.5047" y2="128.9853" gradientTransform="matrix(43.1003 0 0 -9.378 -2250.645 1324.3181)">
			<stop  offset="0" style="stop-color:#F3BEC4"/>
			<stop  offset="1" style="stop-color:#EF7E84"/>
		</linearGradient>
		<path id="Path_3423" class="st42" d="M76.5,114.7H34.3c-0.2,0-0.4-0.2-0.4-0.4c0-0.1,0-0.1,0.1-0.2l4.8-8.7h33.3l4.8,8.7
			c0.1,0.2,0,0.5-0.2,0.6C76.7,114.7,76.6,114.7,76.5,114.7L76.5,114.7z"/>
		<path id="Path_3424" class="st2" d="M72.1,105.3H38.7l5.2-9.4h22.9L72.1,105.3z"/>
		
			<linearGradient id="Path_3425_1_" gradientUnits="userSpaceOnUse" x1="51.749" y1="129.9795" x2="51.749" y2="128.9795" gradientTransform="matrix(22.927 0 0 -9.412 -1131.0271 1309.8578)">
			<stop  offset="0" style="stop-color:#F3BCC2"/>
			<stop  offset="1" style="stop-color:#EF7A80"/>
		</linearGradient>
		<path id="Path_3425" class="st43" d="M66.9,95.9H44l5.2-9.4h12.5L66.9,95.9z"/>
		<path id="Path_3426" class="st2" d="M61.7,86.5H49.2L55,75.9c0.1-0.2,0.4-0.3,0.6-0.2c0.1,0,0.1,0.1,0.2,0.2L61.7,86.5z"/>
		<path id="Path_3427" class="st44" d="M46.7,127.1l5.9,0c0.4,0,0.7-0.3,0.7-0.6c0-0.3-0.2-0.5-0.4-0.6l-4-1.6l-2.3-0.1
			c-0.3,0-0.5,0.2-0.5,0.4c0,0,0,0,0,0c-0.2,0.7-0.2,1.4,0,2C46.2,126.9,46.4,127.1,46.7,127.1L46.7,127.1z"/>
		<path id="Path_3428" class="st44" d="M52.7,124.1l5.6-2c0.4-0.1,0.6-0.5,0.5-0.8c-0.1-0.2-0.3-0.4-0.6-0.4l-4.3-0.2l-2.2,0.7
			c-0.2,0.1-0.4,0.3-0.3,0.5c0,0,0,0,0,0c0,0.7,0.2,1.3,0.7,1.9C52.2,124.1,52.5,124.2,52.7,124.1z"/>
		
			<linearGradient id="Path_3429_1_" gradientUnits="userSpaceOnUse" x1="51.9948" y1="128.9801" x2="51.9948" y2="127.9801" gradientTransform="matrix(24.5352 0 0 -25.2397 -1233.9275 3352.0676)">
			<stop  offset="0" style="stop-color:#9B0012"/>
			<stop  offset="1" style="stop-color:#67010D"/>
		</linearGradient>
		<path id="Path_3429" class="st45" d="M54,120.8l-0.5-2.7l-0.6-3.5l-0.7-4.3l-0.1-1.1l-0.3-2.8l-0.1-1.1l-0.2-1.4l-0.4-3l-0.1-0.6
			c-0.1-0.4-0.3-0.8-0.4-1.1c-0.1-0.3-0.3-0.5-0.5-0.8c0-0.1-0.1-0.1-0.1-0.2c-0.2-0.3-0.5-0.5-0.8-0.8c-0.6-0.4-1.3-0.7-2-0.8
			c-0.4-0.1-0.7-0.1-1.1,0l-0.6,0l-0.7,0.1l-0.8,0.1l-0.4,0L41.9,97l-0.6,0.1l-1.2,0.1l-3.4,0.3h0l-0.9,0.1l-2.6,0.2
			c-0.1,0-0.3,0-0.4,0.1c-0.2,0-0.5,0.1-0.7,0.2c-0.9,0.3-1.6,0.9-2.1,1.6c-0.4,0.6-0.6,1.3-0.4,2c0,0.1,0,0.2,0.1,0.3
			c0.3,1,1.2,3.2,3.5,3.4c2.1-0.1,4.1-0.4,6.1-1c0.4-0.1,0.9-0.2,1.3-0.3c0.5-0.1,0.9-0.2,1.4-0.4c0.4-0.1,0.8-0.2,1.2-0.3
			c1.1-0.3,2.1-0.6,3.1-1c0.1,0.5,0.2,1,0.3,1.5c0.1,0.4,0.2,0.9,0.3,1.4c0.1,0.7,0.3,1.4,0.4,2.2c0.1,0.6,0.3,1.2,0.4,1.8
			c0.3,1.4,0.7,2.7,1.1,4.1c0.1,0.4,0.3,0.9,0.4,1.3c0.3,1.1,0.7,2.2,1,3.2c0.4,1.2,0.9,2.5,1.5,3.6c0,0,0,0.1,0.1,0.1
			C51.7,122.3,53.9,121.4,54,120.8L54,120.8z M46.1,102.1l0-0.2l0.1,0.3C46.2,102.2,46.1,102.2,46.1,102.1z"/>
		
			<radialGradient id="Path_3430_1_" cx="51.5417" cy="128.4458" r="0.5" gradientTransform="matrix(21.7267 0 0 -26.7851 -1081.5945 3551.8201)" gradientUnits="userSpaceOnUse">
			<stop  offset="0" style="stop-color:#E97175"/>
			<stop  offset="1" style="stop-color:#9B0012"/>
		</radialGradient>
		<path id="Path_3430" class="st46" d="M49,122.9l-0.2-4.9l-0.1-3.4l-0.1-1.3v0l0.1-4.1l0-2.2l0-1.8l0-1.4v0l0-0.5
			c0-0.4-0.1-0.8-0.3-1.2c-0.3-0.7-0.7-1.4-1.2-1.9c-0.4-0.4-1-0.8-1.5-1c-0.1-0.1-0.3-0.1-0.4-0.1C45.2,99,45,99,44.9,99
			c-0.2,0-0.4-0.1-0.6-0.1l-0.6,0l-0.2,0l-1.1-0.1l-0.4,0l-2.3-0.2l-2.3-0.2l-0.5,0L35,98.2L32.1,98l-0.6,0c-0.1,0-0.3,0-0.4,0
			c-0.7,0-1.4,0.2-2,0.5c-1.1,0.5-1.8,1.6-1.7,2.8c0,0.3,0.1,0.6,0.1,0.9c0.2,1.6,1.4,2.9,2.9,3.3c1.3,0.3,4.7,0.2,8.3-0.2l0.4,0
			l0.8-0.1c0.7-0.1,1.3-0.2,2-0.3s1.3-0.2,1.9-0.3c0,0.2,0,0.4,0,0.6c0,0.5,0,1,0.1,1.5c0,0.5,0,0.9,0.1,1.4c0,0.3,0,0.7,0.1,1
			c0.2,3.1,0.6,6.1,1.1,9.1c0.2,1.3,0.5,2.6,0.7,3.7c0.2,0.8,0.4,1.6,0.7,2.4c0.1,0.4,2.2,0.3,2.5-0.2c0,0,0.1-0.1,0-0.2L49,122.9z
			 M43.7,104.3v-0.2V104.3l0,0.1C43.8,104.4,43.8,104.4,43.7,104.3L43.7,104.3z"/>
		<path id="Path_3431" class="st47" d="M32.6,77.9c0,0-0.1,0-0.1,0C32.5,77.8,32.5,77.8,32.6,77.9l-0.1-0.2c0,0,0,0,0.1,0
			C32.6,77.7,32.6,77.8,32.6,77.9L32.6,77.9z"/>
		<path id="Path_3432" class="st48" d="M38,76.3c0.1,0.8,0.1,1.7-0.3,2.5c-0.1,0.1-0.3,0-0.6-0.2c-0.1,0.2-0.2,0.4-0.3,0.6
			c-0.3,1.1-1.1,1.1-2,0.6c-0.3,0.2-0.5,0.6-0.4,1c0.2,0.8-5.2,0-3.6-0.9c0.8-0.4,1.4-1.1,1.5-2c0,0,0.1,0,0.1,0c0-0.1,0-0.2,0-0.3
			c-0.1-1,0.2-2.7,0.8-3c0.1-0.1,0.2-0.1,0.3-0.1c0.1,0,0.2,0,0.3,0c0.2,0.1,0.4,0.3,0.5,0.6c0.1,0.3,0.1,0.5,0.1,0.8l0.9-0.4
			c-0.3-1.3,1.3-2.9,2.6-2.2c0.4,0.2,0.8,0.4,1.2,0.7c0,0,0,0,0.1,0.1C39,75.3,38.6,75.1,38,76.3L38,76.3z"/>
		<path id="Path_3433" class="st49" d="M32.6,77.9L32.6,77.9l-0.1-0.2c0,0,0,0,0.1,0C32.6,77.7,32.6,77.8,32.6,77.9z"/>
		<path id="Path_3434" class="st32" d="M40,74.5c-0.1,0-0.1,0-0.2,0c-0.2-0.1-0.4-0.2-0.6-0.4c-0.1-0.1-0.1-0.1-0.1-0.1
			c-0.4-0.3-0.8-0.5-1.2-0.7c-1.3-0.6-2.8,0.9-2.6,2.2l-0.9,0.4c0-0.3,0-0.5-0.1-0.8c-0.1-0.3-0.2-0.5-0.5-0.6c-0.1,0-0.2,0-0.3,0
			c-0.1,0-0.2,0-0.3,0.1c-0.6,0.4-0.9,2.1-0.8,3c0,0-0.1,0-0.1,0v0.2c0,0,0,0,0,0.1c-0.6-0.2-2.1-2.1-1-4.9c1.7-4.4,7.2-1.2,7.7-0.7
			c0.5,0.5,1.2,0.8,2,0.8C42.1,73.3,40.6,74.5,40,74.5L40,74.5z"/>
		<path id="Path_3435" class="st49" d="M32.6,77.9c0,0-0.1,0-0.1,0C32.5,77.8,32.5,77.8,32.6,77.9l-0.1-0.2c0,0,0,0,0.1,0
			C32.6,77.7,32.6,77.8,32.6,77.9L32.6,77.9z"/>
		
			<linearGradient id="Path_3436_1_" gradientUnits="userSpaceOnUse" x1="48.0343" y1="129.0556" x2="48.0343" y2="128.0556" gradientTransform="matrix(11.5194 0 0 -22.3963 -522.219 2970.1665)">
			<stop  offset="0" style="stop-color:#6DD0C1"/>
			<stop  offset="1" style="stop-color:#28A891"/>
		</linearGradient>
		<path id="Path_3436" class="st50" d="M27,102.1c0,0,3.7,0.7,9.8-3.3c-0.5-3.5-1.9-8.6-1.1-11.9c0.9-4-0.4-6.7-3.2-7.1
			c-2.4-0.4-5.3,2-6.4,6.4C24.8,92.1,25.2,99.2,27,102.1z"/>
		<path id="Path_3437" class="st48" d="M47.9,95.4c-0.4-0.1-0.8-0.2-1.2-0.4c-0.4-0.1-0.6,0-1.2,0.5c-1,0.3-2,0.3-2.9,0.1
			c-0.5,0-11.8,1-11.8,1c-0.1,0-0.2,0-0.3,0l-0.2,0C29,96.2,28,95,27.8,93.6c0-0.2,0-0.4,0-0.6l0-0.3l0-0.4l0.1-0.9l0.2-2.5
			c1.5,0.3,2.9,0.8,4.2,1.4L32,91.9l-0.1,0.7c0,0,9.5,1.2,10.5,1.2c1.9-0.8,2-0.5,2.6-0.4c0.6,0.1,3.1,1.3,3.4,1.7
			C48.6,95.4,48.3,95.4,47.9,95.4L47.9,95.4z"/>
		
			<linearGradient id="Path_3438_1_" gradientUnits="userSpaceOnUse" x1="47.1722" y1="135.2166" x2="47.1722" y2="134.2167" gradientTransform="matrix(10.3269 0 0 -2.1959 -442.0413 392.0019)">
			<stop  offset="0" style="stop-color:#F9D65C"/>
			<stop  offset="1" style="stop-color:#F2771D"/>
		</linearGradient>
		<path id="Path_3438" class="st51" d="M49.9,96.1l-9.6,1.1c-0.2,0-0.4-0.2-0.4-0.4v-0.1c0-0.2,0.1-0.4,0.3-0.5l9.6-1.1
			c0.2,0,0.4,0.2,0.4,0.4v0.1C50.3,95.9,50.2,96.1,49.9,96.1z"/>
		
			<linearGradient id="Path_3439_1_" gradientUnits="userSpaceOnUse" x1="37.0035" y1="129.7675" x2="37.0035" y2="128.7675" gradientTransform="matrix(4.6495 0 0 -10.8568 -120.2412 1494.1364)">
			<stop  offset="0" style="stop-color:#F9D65C"/>
			<stop  offset="1" style="stop-color:#F49422"/>
		</linearGradient>
		<path id="Path_3439" class="st52" d="M54.1,85.9l-4,10c0,0.1-0.2,0.2-0.3,0.2c0,0-0.1,0-0.1,0L49.6,96c-0.1-0.1-0.2-0.3-0.1-0.5
			l4-10c0-0.1,0.2-0.2,0.3-0.2c0,0,0.1,0,0.1,0l0.1,0.1C54.1,85.5,54.2,85.7,54.1,85.9L54.1,85.9z"/>
		<path id="Path_3440" class="st9" d="M48.9,96L48.1,96c-0.1,0-0.2-0.1-0.2-0.2c0-0.1,0-0.2,0.2-0.3l0.8-0.1c0.1,0,0.2,0.1,0.2,0.2
			C49.1,95.8,49,95.9,48.9,96C48.9,96,48.9,96,48.9,96z"/>
		<path id="Path_3441" class="st9" d="M47.1,96.2l-0.3,0c-0.1,0-0.1-0.1-0.1-0.1v-0.1c0-0.1,0-0.2,0.1-0.2l0.3,0
			c0.1,0,0.1,0.1,0.1,0.1c0,0,0,0,0,0V96C47.2,96.1,47.2,96.1,47.1,96.2z"/>
		<path id="Path_3442" class="st53" d="M44.7,106.3c-0.7,0.4-1.4,0.9-2.2,1.3c-0.2,0.2-0.5,0.3-0.8,0.4c-0.1,0.1-0.2,0.1-0.3,0.2
			c-0.3,0.1-0.5,0.3-0.8,0.4c-0.3,0.1-0.6,0.3-1,0.4c-0.4,0.2-0.8,0.3-1.2,0.4c-2.5,0.7-5.1,0.9-7.6,0.5c-0.1,0-0.3,0-0.4-0.1
			c-0.3,0-0.5-0.1-0.8-0.2c-0.4-0.1-0.9-0.3-1.3-0.5c-0.2-0.1-0.3-0.2-0.4-0.3c-0.4-0.2-0.8-0.4-1.1-0.7c-6.1-5.1-5.8-19.4-1.9-17.6
			c3.4,2.8,2.4,8.9,8.5,11.2c2.3,1,4.8,1.3,7.3,1.2c1.2-0.2,2.4,0.1,3.3,0.9C44.5,104.5,45.7,105.8,44.7,106.3L44.7,106.3z"/>
		<ellipse id="Ellipse_4073" class="st54" cx="33.2" cy="125.3" rx="9.2" ry="2.4"/>
		<path id="Rectangle_2557" class="st55" d="M32.2,110.2h2.1v15.1h-2.1V110.2z"/>
		<path id="Path_3443" class="st48" d="M173.7,59.4l-1,2.3c-0.5,0.8-1.4,1.3-2.4,1.4l0.6,2.2c0,0-2.9,1.4-2.2,0
			c0.4-0.9,0.1-1.9-0.6-2.6h0c-0.3-0.1-0.7-0.3-0.9-0.4c-0.8-0.2-1.2-0.5-0.8-1.3c0.1-0.2,0-0.5,0.2-0.8c-0.2-0.2-0.4-0.4-0.6-0.6
			c-0.2-0.5,1.4-1.3,1.4-1.3c0.1-0.8,0.3-1.5,0.5-2.2c0.3-2.6,4-0.8,4-0.8C173.6,56,174.4,57.8,173.7,59.4L173.7,59.4z"/>
		
			<linearGradient id="Path_3444_1_" gradientUnits="userSpaceOnUse" x1="49.1126" y1="128.3606" x2="50.1126" y2="128.3606" gradientTransform="matrix(14.6074 0 0 -31.5951 -553.3831 4155.4111)">
			<stop  offset="0" style="stop-color:#67010D"/>
			<stop  offset="1" style="stop-color:#92262F"/>
		</linearGradient>
		<path id="Path_3444" class="st56" d="M164.6,92C164.6,92.1,164.6,92.1,164.6,92c0.3,0.9,0.6,1.6,0.9,2.4c1.5,3.5,3.2,7,5.1,10.3
			c0.8,1.5,1.6,2.9,2.3,4.4c1.1,2,2.2,4,3.2,6c0.3,0.5,0.7,0.6,1.4,0.4c0.8-0.3,1-0.3,1-0.6l-0.1-0.2c-1.1-4.7-2.7-9.3-5-13.6
			c-0.9-1.4-1.5-3-1.6-4.6c-0.1-1.5,0.2-3.1,0.7-4.5c0.1-0.4,0.3-0.9,0.3-1.4c0.1-0.5,0.2-1.1,0.2-1.6c0-0.6-0.1-1.2-0.3-1.7
			c-0.1-0.2-0.6-2-0.8-2l-2.4,0.4c-0.6-1.3-2.1-1.9-3.4-1.5c-0.1,0-0.2,0.1-0.3,0.1c-0.7,0.3-1.4,0.7-1.9,1.3L164.6,92z"/>
		<path id="Path_3445" class="st57" d="M172.9,85.9c0.2,0,0.2,1.9,0.2,2.2c0,0.6-0.1,1.2-0.3,1.8c-0.3,1-0.8,1.9-1.5,2.8
			c-1,1.2-1.7,2.6-2.1,4.2c-0.4,1.7-0.3,3.4,0.2,5c0.9,4.9,1.1,10,0.6,14.9l0,0.2c-0.1,0.4-0.5,0.3-1.2,0.3c-0.7,0-1.2-0.2-1.3-0.8
			c-0.7-4-1.5-8-2.2-12c-0.8-3.9-1.4-7.8-1.8-11.7c-0.1-0.9-0.1-1.7-0.1-2.6c0-1,0-2,0-3c0-0.8,0.1-1.7,0.3-2.5
			c0.6-1.2,2.1-1.7,3.3-1.8c0.1,0,0.3,0,0.4,0c1.5,0,2.7,1.1,2.9,2.6L172.9,85.9z"/>
		<path id="Path_3446" class="st48" d="M163.6,64.4l-0.1,0c0,0-1,2.6-1.2,3.2c-0.8-0.5-1.5-1.2-2-2l-5-10.8v-0.1
			c-0.4-0.7-0.8-1.4-1.4-1.9c-0.6-0.7,0.5-1.5,1.6-1.6c0-0.2-0.1-0.4-0.2-0.5c-0.3-0.5-0.6-0.9-0.4-1.1s0.9,0.5,1.6,1.7
			c0.4,0.9,0.5,1.8,0.3,2.8l5,8.9C162.5,64,162.7,63.8,163.6,64.4L163.6,64.4z"/>
		
			<linearGradient id="Path_3447_1_" gradientUnits="userSpaceOnUse" x1="48.1071" y1="128.5259" x2="49.1071" y2="128.5259" gradientTransform="matrix(12.4766 0 0 -23.4346 -438.0779 3087.8767)">
			<stop  offset="0" style="stop-color:#F49422"/>
			<stop  offset="1" style="stop-color:#F9D65C"/>
		</linearGradient>
		<path id="Path_3447" class="st58" d="M174.5,68.7c-1.4,8.1-0.8,10.9-0.4,17.6c0.3,3.6-10.9-1.1-10.9-1.1s1.3-3.5,1.8-5.6
			c0.7-3.4,0.9-6.8,0.6-10.2c0-0.1,0-0.1,0-0.2c0,0-0.4-0.1-1-0.3c-0.9-0.3-2.2-0.9-2.4-1.4c0,0,0,0,0-0.1c0.2-0.6,1.2-3.2,1.2-3.2
			l0.1,0l2.6,0.8h0C168,65.5,175.8,61.6,174.5,68.7L174.5,68.7z"/>
		<path id="Rectangle_2558" class="st9" d="M157.4,87.7l1.7-2.1c0.6-0.7,1.6-0.8,2.3-0.3l3.4,2.7c0.7,0.6,0.8,1.6,0.3,2.3l-1.7,2.1
			c-0.6,0.7-1.6,0.8-2.3,0.3l-3.4-2.7C156.9,89.5,156.8,88.4,157.4,87.7z"/>
		
			<linearGradient id="Path_3448_1_" gradientUnits="userSpaceOnUse" x1="23.9302" y1="133.0871" x2="23.9302" y2="132.0871" gradientTransform="matrix(2.7241 0 0 -3.1906 93.4027 510.025)">
			<stop  offset="0" style="stop-color:#FFEBEF"/>
			<stop  offset="1" style="stop-color:#EB3037"/>
		</linearGradient>
		<path id="Path_3448" class="st59" d="M159.9,85.6l-0.3-0.2c-0.1,0-0.2,0-0.2,0l-0.1,0.2c0,0.1-0.1,0.1-0.2,0l-0.1-0.1l-0.1-0.1
			c-0.1,0-0.2,0-0.2,0l-1.3,1.6l-0.2,0.2c-0.1,0.1-0.1,0.1,0,0.2l0.1,0.1l0,0l0,0c0.1,0.1,0.1,0.1,0,0.2l0,0l-0.1,0.2
			c-0.1,0.1-0.1,0.1,0,0.2c0,0,0,0,0,0l0.1,0.1l0.2,0.1c0.1,0,0.2,0,0.2,0c0,0,0,0,0,0l2.1-2.7C160,85.8,160,85.7,159.9,85.6
			C159.9,85.6,159.9,85.6,159.9,85.6L159.9,85.6z M159.3,86.2l-1.2,1.5c0,0.1-0.1,0.1-0.2,0c0,0,0,0,0,0c-0.1,0-0.1-0.1,0-0.2
			l1.2-1.5c0-0.1,0.1-0.1,0.2,0C159.4,86.1,159.4,86.1,159.3,86.2C159.3,86.2,159.3,86.2,159.3,86.2L159.3,86.2z"/>
		
			<linearGradient id="Rectangle_2559_1_" gradientUnits="userSpaceOnUse" x1="34.2945" y1="219.1554" x2="34.2945" y2="218.1554" gradientTransform="matrix(1.2217 -1.5403 -0.662 -0.5251 262.4249 256.8063)">
			<stop  offset="0" style="stop-color:#E97175"/>
			<stop  offset="1" style="stop-color:#EB3037"/>
		</linearGradient>
		<path id="Rectangle_2559" class="st60" d="M158.6,89.7l1.2-1.5l0.7,0.5l-1.2,1.5L158.6,89.7z"/>
		
			<linearGradient id="Rectangle_2560_1_" gradientUnits="userSpaceOnUse" x1="44.0906" y1="264.8633" x2="44.0906" y2="263.8633" gradientTransform="matrix(2.2707 -2.8628 -0.4403 -0.3492 177.9773 307.7337)">
			<stop  offset="0" style="stop-color:#FFEBEF"/>
			<stop  offset="1" style="stop-color:#EB3037"/>
		</linearGradient>
		<path id="Rectangle_2560" class="st61" d="M160.3,90.4l2.3-2.9l0.4,0.3l-2.3,2.9L160.3,90.4z"/>
		
			<linearGradient id="Rectangle_2561_1_" gradientUnits="userSpaceOnUse" x1="44.0906" y1="264.8633" x2="44.0906" y2="263.8633" gradientTransform="matrix(2.2707 -2.8628 -0.4403 -0.3492 178.988 308.5355)">
			<stop  offset="0" style="stop-color:#E97175"/>
			<stop  offset="1" style="stop-color:#9B0012"/>
		</linearGradient>
		<path id="Rectangle_2561" class="st62" d="M161.3,91.2l2.3-2.9l0.4,0.3l-2.3,2.9L161.3,91.2z"/>
		<path id="Path_3449" class="st48" d="M173.9,75.9c-0.1,0.6-0.2,1.1-0.4,1.7c-0.2,0.5-0.6,1-1,1.4c-0.4,0.4-0.7,0.6-1,0.9l-6.8,5.9
			l-0.1,0.1c-1,1.1-0.7,2.2-3.2,1.3c-0.5-0.1-0.7-0.5-0.4-0.7c0.8-0.6,1-0.8,1-1c-0.1,0-0.2,0.1-0.3,0.1l-0.5-0.4
			c0.2-0.1,0.5-0.2,0.8-0.4c0.5-0.2,1-0.4,1.5-0.4l6.1-6.7l0.8-0.7c0.1-0.2,0.3-0.4,0.3-0.6c0.1-0.2,0.1-0.4,0.1-0.7
			c0-0.3,0-0.5-0.1-0.7l-0.9-2.4c0.4-0.1,0.7-0.2,1.1-0.4c0.2-0.1,0.4-0.2,0.5-0.2c0.1,0,0.2,0,0.3-0.1c0.7-0.3,1.3-0.6,1.3-0.6
			s0,0.1,0.1,0.1v0.1l0.5,2.8C173.9,74.9,173.9,75.4,173.9,75.9L173.9,75.9z"/>
		<path id="Path_3450" class="st49" d="M173.2,71.5L173.2,71.5c-0.4,0.2-1.3,0.5-2.2,0.8C171.8,72,172.5,71.7,173.2,71.5
			C173.2,71.5,173.2,71.5,173.2,71.5L173.2,71.5z"/>
		
			<linearGradient id="Path_3451_1_" gradientUnits="userSpaceOnUse" x1="44.3848" y1="129.2505" x2="44.3848" y2="128.2505" gradientTransform="matrix(7.7372 0 0 -17.3482 -171.874 2296.8955)">
			<stop  offset="0" style="stop-color:#850000"/>
			<stop  offset="1" style="stop-color:#EB3037"/>
		</linearGradient>
		<path id="Path_3451" class="st63" d="M168,56.3c0.3,0.3,0.6,0.6,0.9,0.8c1,0.7,0.9,1,0.5,1.8c-0.4,1.1-0.3,2.2,0.2,3.2
			c0.8,1.8,1.3,3.8,1.3,5.8c-0.2,2.9,2.6,3.3,3.3,4s0-2,0.6-3.8s0.9-3.2,0.1-4.5s0-6.2-1-7.4s-4-1.8-5.2-1.3S167.5,55.8,168,56.3
			L168,56.3z"/>
		<path id="Path_3452" class="st9" d="M170.4,118.5c0,0.2-0.1,0.3-0.1,0.5h-6c-0.1-0.1-0.2-0.3-0.2-0.5c-0.1-0.3-0.1-0.7,0.2-0.9
			l3.1-1.2c0.8,0.5,1.8,0.6,2.6,0.2C170.5,117.2,170.6,117.8,170.4,118.5L170.4,118.5z"/>
		<path id="Path_3453" class="st64" d="M170.4,118.5c0,0.2-0.1,0.3-0.1,0.5h-6c-0.1-0.1-0.2-0.3-0.2-0.5H170.4z"/>
		<path id="Path_3454" class="st9" d="M179.6,116c0,0.2,0.1,0.3,0,0.5l-5.7,2c-0.2-0.1-0.3-0.2-0.4-0.4c-0.2-0.3-0.3-0.6-0.1-0.9
			l2.6-2.1c0.9,0.2,1.9-0.1,2.6-0.7C179.2,114.7,179.5,115.3,179.6,116z"/>
		<path id="Path_3455" class="st44" d="M179.6,116c0,0.2,0.1,0.3,0,0.5l-5.7,2c-0.2-0.1-0.3-0.2-0.4-0.4L179.6,116z"/>
	</g>
</g>
</svg>
